<svg xmlns="http://www.w3.org/2000/svg" viewBox="0 0 224.83 273.3"><defs><style>.cls-1{fill:#1f1f1f;}.cls-2{fill:#e9eae8;}</style></defs><g id="Layer_2" data-name="Layer 2"><g id="Layer_1-2" data-name="Layer 1"><path class="cls-1" d="M108.91,21.92c-18.31,0-32.22,13.86-32.2,32S91.2,86.92,109,86.69a32.63,32.63,0,0,0,32.14-32.6A31.91,31.91,0,0,0,108.91,21.92ZM170.35,57c0-.32,0-.65-.06-1,0-.51-.08-1-.13-1.52s-.11-1.09-.19-1.62-.13-1-.21-1.43c0-.19,0-.38-.09-.57q-.09-.55-.21-1.14c-.22-1.12-.48-2.22-.78-3.33q-.12-.49-.27-1c0-.18-.1-.35-.16-.53s-.2-.67-.31-1c-.29-.91-.62-1.8-.95-2.71-.17-.43-.34-.85-.52-1.28s-.37-.87-.57-1.31A62.52,62.52,0,0,1,170.05,61a61,61,0,0,1-1.91,15.38c.18-.7.36-1.38.52-2.08.32-1.32.59-2.63.82-3.94,0-.26.09-.51.13-.76.09-.51.15-1,.22-1.52.1-.69.19-1.38.26-2.07s.12-1.19.16-1.79c0-.16,0-.33,0-.51,0-.45.06-.9.07-1.36A51,51,0,0,0,170.35,57Zm49.07,199c-.49-3.07-1.77-6-2.69-9Q202.92,201.31,189,155.66c-.57-1.87-2-4.12-3.59-4.95-8.27-4.16-16.75-7.89-25.4-11.89l-5.4,9.8c7.13,3.35,14,6.52,20.83,9.87,1.39.68,3.13,1.79,3.55,3.09,3.35,10.35,6.42,20.79,9.84,32-14.58-3.56-28.07-6.92-41.6-10.12-3.34-.79-4.75-2.38-4.31-5.87a57.29,57.29,0,0,0,.06-7.18l-1.17-.26L124.24,197.4l7.38-2c0,8,0,15.61,0,23.22,0,5.29,1.55,11.8-.94,15.5s-9.12,4.71-14,6.76c-11.42,4.81-22.87,9.54-34.41,14.34a9,9,0,0,1-.62-1.83c0-12.12-.2-24.26.08-36.38,0-1.47,2.14-3.49,3.75-4.23,5.07-2.31,10.37-4.12,15.63-6.15-5.15-10-5.14-10-14.57-6.44-1.36.51-2.73.95-4.58,1.6-.17-1.91-.57-3.39-.37-4.77,2-14.41-1.9-27.1-10.8-38.42a1.58,1.58,0,0,1-.27-.42c-1.12-2.78-3-3.82-6.14-3.7-6.64.27-13.3.3-19.93,0-5.23-.22-7.8,2-9.22,6.93-4.17,14.47-8.7,28.82-13.06,43.24C16.6,223.06,11,241.44,5.56,259.85c-2.18,7.36-.18,9.89,7.38,9.9,20.1,0,40.2.05,60.3-.06a19.66,19.66,0,0,0,7.19-1.4c13.82-5.65,27.93-10.75,41.21-17.47,11.32-5.71,21.71-5.91,33.62-2,18.55,6.11,37.59,10.76,56.51,15.72,2.18.58,5.73,0,7.08-1.42S219.8,258.38,219.42,256Z"/><path class="cls-1" d="M170.35,57c0-.32,0-.65-.06-1,0-.51-.08-1-.13-1.52s-.11-1.09-.19-1.62-.13-1-.21-1.43c0-.19,0-.38-.09-.57q-.09-.55-.21-1.14c-.22-1.12-.48-2.22-.78-3.33q-.12-.49-.27-1c0-.18-.1-.35-.16-.53s-.2-.67-.31-1c-.29-.91-.62-1.8-.95-2.71-.17-.43-.34-.85-.52-1.28s-.37-.87-.57-1.31A62.52,62.52,0,0,1,170.05,61a61,61,0,0,1-1.91,15.38c.18-.7.36-1.38.52-2.08.32-1.32.59-2.63.82-3.94,0-.26.09-.51.13-.76.09-.51.15-1,.22-1.52.1-.69.19-1.38.26-2.07s.12-1.19.16-1.79c0-.16,0-.33,0-.51,0-.45.06-.9.07-1.36A51,51,0,0,0,170.35,57Z"/><path class="cls-2" d="M141.16,54.09A32.63,32.63,0,0,1,109,86.69C91.2,86.92,76.73,72.26,76.71,54s13.89-32,32.2-32A31.91,31.91,0,0,1,141.16,54.09Z"/><path class="cls-1" d="M0,264.34a8.55,8.55,0,0,0,.76,4A14.59,14.59,0,0,1,0,264.34Z"/><path class="cls-1" d="M223.76,254.46c-3.33-10.22-6.33-20.57-9.45-30.87-7-23-13.78-46-21-68.89a15.17,15.17,0,0,0-6.5-8.07c-9.18-4.93-18.8-9-27.5-13.1-15.47,24.22-30.52,47.85-45.68,71.41-3.18,4.93-4.66,4.91-7.77.09q-16.57-25.71-32.94-51.54c-1.44-2.27-2.81-3.64-5.83-3.52-8,.29-15.94.05-23.9.23-7.36.16-9.71,2-11.79,9-2.81,9.34-5.53,18.72-8.37,28.06-7.44,24.54-15,49-22.39,73.58a13.22,13.22,0,0,0-.53,2.71,1,1,0,0,0,0,.23c0,.2,0,.41,0,.61a14.59,14.59,0,0,0,.76,4v0c.19.59.35.95.35.95,2,4,5.43,4,5.43,4h69.3a21.05,21.05,0,0,0,5.47-1.12,26.46,26.46,0,0,0,4-1.31l1.31-.54.77-.31c.37-.17.74-.32,1.11-.47l.26-.1.1,0,.35-.14.07,0c13.9-5.56,27.75-11.27,41.44-17.31,5-2.19,9.46-2.81,14.73-.93,6.54,2.33,13.4,3.71,20.11,5.56,14.86,4.1,29.69,8.26,44.56,12.32,4.53,1.23,8.93,1.12,12.37-2.76C225.63,262.55,225.14,258.69,223.76,254.46Zm-4.91,8.68c-1.35,1.46-4.9,2-7.08,1.42-18.92-5-38-9.61-56.51-15.72-11.91-3.93-22.3-3.73-33.62,2-13.28,6.72-27.39,11.82-41.21,17.47a19.66,19.66,0,0,1-7.19,1.4c-20.1.11-40.2.08-60.3.06-7.56,0-9.56-2.54-7.38-9.9,5.45-18.41,11-36.79,16.6-55.16,4.36-14.42,8.89-28.77,13.06-43.24,1.42-4.95,4-7.15,9.22-6.93,6.63.29,13.29.26,19.93,0,3.13-.12,5,.92,6.14,3.7a1.58,1.58,0,0,0,.27.42c8.9,11.32,12.82,24,10.8,38.42-.2,1.38.2,2.86.37,4.77,1.85-.65,3.22-1.09,4.58-1.6C96,196.7,96,196.7,101.1,206.66c-5.26,2-10.56,3.84-15.63,6.15-1.61.74-3.71,2.76-3.75,4.23-.28,12.12-.13,24.26-.08,36.38a9,9,0,0,0,.62,1.83c11.54-4.8,23-9.53,34.41-14.34,4.87-2,11.5-3,14-6.76s.89-10.21.94-15.5c.07-7.61,0-15.23,0-23.22l-7.38,2,17.58-27.21,1.17.26a57.29,57.29,0,0,1-.06,7.18c-.44,3.49,1,5.08,4.31,5.87,13.53,3.2,27,6.56,41.6,10.12-3.42-11.25-6.49-21.69-9.84-32-.42-1.3-2.16-2.41-3.55-3.09-6.8-3.35-13.7-6.52-20.83-9.87l5.4-9.8c8.65,4,17.13,7.73,25.4,11.89,1.63.83,3,3.08,3.59,4.95q14,45.61,27.72,91.32c.92,3,2.2,6,2.69,9C219.8,258.38,220.14,261.73,218.85,263.14Z"/><path class="cls-1" d="M86.4,151.81c7,11.77,14.47,23.31,21.95,35.32a12.35,12.35,0,0,0,1.57-1.34c20.24-31.38,39.94-63,54.25-97.7.29-.72.58-1.44.86-2.15.21-.54.41-1.07.6-1.61s.5-1.37.73-2.06c.17-.48.32-1,.47-1.43l.09-.26.39-1.25c.1-.33.2-.66.29-1,.2-.64.37-1.28.54-1.93A61,61,0,0,0,170.05,61,62.52,62.52,0,0,0,165.9,38.6a.14.14,0,0,1,0-.06C157.05,15.74,135.14,0,108.9,0,80.7,0,58,17.33,50.46,42.3a.13.13,0,0,1,0,.08l0,.11c-.19.54-.36,1.09-.52,1.64-.12.38-.23.76-.33,1.13l-.3,1.15c-.2.77-.38,1.53-.54,2.32-.09.39-.17.79-.24,1.18,0,.23-.09.47-.13.7s-.09.49-.13.74-.13.77-.18,1.17-.09.64-.13,1-.1.81-.14,1.21a63.66,63.66,0,0,0,4.67,30.8C61.83,108.63,73.63,130.45,86.4,151.81ZM108.91,21.92a31.91,31.91,0,0,1,32.25,32.17A32.63,32.63,0,0,1,109,86.69C91.2,86.92,76.73,72.26,76.71,54S90.6,21.93,108.91,21.92Z"/><path class="cls-2" d="M69.69,204.75H34c3.62-11.91,7.14-23.77,10.91-35.56.41-1.29,2.27-3,3.53-3,6.93-.29,13.88-.14,21.24-.14ZM219.42,256c-.49-3.07-1.77-6-2.69-9Q202.92,201.31,189,155.66c-.57-1.87-2-4.12-3.59-4.95-8.27-4.16-16.75-7.89-25.4-11.89l-5.4,9.8c7.13,3.35,14,6.52,20.83,9.87,1.39.68,3.13,1.79,3.55,3.09,3.35,10.35,6.42,20.79,9.84,32-14.58-3.56-28.07-6.92-41.6-10.12-3.34-.79-4.75-2.38-4.31-5.87a57.29,57.29,0,0,0,.06-7.18l-1.17-.26L124.24,197.4l7.38-2c0,8,0,15.61,0,23.22,0,5.29,1.55,11.8-.94,15.5s-9.12,4.71-14,6.76c-11.42,4.81-22.87,9.54-34.41,14.34a9,9,0,0,1-.62-1.83c0-12.12-.2-24.26.08-36.38,0-1.47,2.14-3.49,3.75-4.23,5.07-2.31,10.37-4.12,15.63-6.15-5.15-10-5.14-10-14.57-6.44-1.36.51-2.73.95-4.58,1.6-.17-1.91-.57-3.39-.37-4.77,2-14.41-1.9-27.1-10.8-38.42a1.58,1.58,0,0,1-.27-.42c-1.12-2.78-3-3.82-6.14-3.7-6.64.27-13.3.3-19.93,0-5.23-.22-7.8,2-9.22,6.93-4.17,14.47-8.7,28.82-13.06,43.24C16.6,223.06,11,241.44,5.56,259.85c-2.18,7.36-.18,9.89,7.38,9.9,20.1,0,40.2.05,60.3-.06a19.66,19.66,0,0,0,7.19-1.4c13.82-5.65,27.93-10.75,41.21-17.47,11.32-5.71,21.71-5.91,33.62-2,18.55,6.11,37.59,10.76,56.51,15.72,2.18.58,5.73,0,7.08-1.42S219.8,258.38,219.42,256Zm-149.77,2.1H17.9c4.21-13.93,8.3-27.51,12.53-41.56H69.65Zm120.72-10.82c-14.53-4-29.06-7.93-43.54-12-1.47-.42-3.7-2-3.72-3-.26-12.55-.17-25.11-.17-38.31,10.14,2.47,19.59,4.74,29,7.09,5.78,1.44,11.6,2.75,17.25,4.6a7.81,7.81,0,0,1,4.58,4.18c4.3,13.54,8.25,27.2,12.56,41.69C200.69,250,195.52,248.69,190.37,247.29Z"/><path class="cls-1" d="M142.94,193.93c10.14,2.47,19.59,4.75,29,7.09,5.78,1.44,11.61,2.75,17.26,4.6a7.87,7.87,0,0,1,4.57,4.18c4.3,13.55,8.25,27.21,12.56,41.69-5.67-1.49-10.84-2.8-16-4.2-14.53-4-29.06-7.93-43.55-12-1.46-.42-3.69-2-3.71-3C142.85,219.69,142.94,207.13,142.94,193.93Z"/><path class="cls-1" d="M17.9,258.11c4.2-13.94,8.3-27.51,12.53-41.56H69.65v41.56Z"/><path class="cls-1" d="M34,204.75c3.62-11.9,7.13-23.77,10.91-35.56.41-1.3,2.28-3,3.53-3,6.93-.29,13.88-.14,21.24-.14v38.73Z"/><path class="cls-1" d="M0,263.86a.44.44,0,0,1,0-.13c0,.2,0,.41,0,.61C0,264.18,0,264,0,263.86Z"/><path class="cls-1" d="M88.76,269.45c-.2.09-.69.3-1.37.57.37-.17.74-.32,1.11-.47Z"/></g></g></svg>