<svg xmlns="http://www.w3.org/2000/svg" viewBox="0 0 179.26 272"><defs><style>.cls-1{fill:#1f1f1f;}.cls-2{fill:#e9eae8;}</style></defs><g id="Layer_2" data-name="Layer 2"><g id="Layer_1-2" data-name="Layer 1"><path class="cls-1" d="M179.25,184.79c.59,39.2-27,74-66.73,84.31C68.6,280.43,22.37,257.63,6.07,216.33c-10-25.25-7.31-49.94,5.42-73.44,21-38.71,42.45-77.18,63.65-115.79C80,18.18,84.65,9.09,89.44,0c3.57,7,7,14.13,10.77,21.12C121,60.26,143.3,98.58,165,137.23,173.34,152.09,179,167.58,179.25,184.79Z"/><path class="cls-2" d="M84,43.62c-2.52,11.8-4.69,23.13-6.41,34.55-3.87,25.7-6.39,51.5-5.37,77.52.4,10.34,3.18,20.38,4.54,30.6,1.29,9.78-.27,19-5.93,27.15s-13.24,13.23-23.68,12c-10.92-1.27-17.53-8.06-21-18-4.43-12.59-3.31-25.26.54-37.8,8-25.91,19.12-50.54,30.54-75,7.24-15.55,15-30.85,23.32-45.83C81.46,47.16,82.05,45.29,84,43.62Z"/><path class="cls-2" d="M127.39,86.87c14.77,24.49,28.44,49.45,37.31,76.85,13.7,42.31-12.42,75.09-37.22,89.83-1,.58-1.88,1.23-3.09.61q28.72-23.46,30.77-60.49c1.34-24.76-5.31-48-13.78-70.85-4.4-11.89-9.84-23.33-15-34.92C126.09,86.94,126.56,86.74,127.39,86.87Z"/><path class="cls-2" d="M127.39,86.87c-.32.35-.65.69-1,1q-2.16-4-4.3-8.09"/></g></g></svg>