<svg xmlns="http://www.w3.org/2000/svg" viewBox="0 0 922.73 396.84"><defs><style>.cls-1{fill:#dadada;}.cls-2{fill:#cbcbcb;}.cls-3{fill:#989898;}.cls-4{fill:#a6a8ab;}.cls-5{fill:#a7a8ac;}.cls-6{fill:#bbbcc0;}.cls-7{fill:#4d4d4d;}.cls-8{fill:#b2b2b2;}.cls-9{fill:gray;}.cls-10{fill:#7f7f7f;}.cls-11{fill:#404042;}.cls-12{fill:#404041;}.cls-13{fill:#666;}.cls-14{fill:#a6a8ac;}.cls-15{fill:#a7a8ab;}.cls-16{fill:#6c6d6f;}.cls-17{fill:#b1b1b1;}.cls-18{fill:#b0b0b0;}</style></defs><g id="Layer_2" data-name="Layer 2"><g id="Layer_1-2" data-name="Layer 1"><path class="cls-1" d="M643.17,45.3c0,18.48-.74,37,.16,55.41,1.43,29.09.06,58.18.92,87.25-3.53-.56-2.43-3.5-2.46-5.45-.2-12-.1-23.95-.09-35.93s-.08-24.2,0-36.3c0-.66-.76.24-.12,0,.29-.09.38.06.24.43-2.64,7.1-7.46,12.92-11.35,19.28-3.65,5.95-7.78,11.61-11.83,17.3-1.35,1.89-2.52,4.55-5.77,3.63-1.84-3.85-1.49-8.09-2-12.15-.41-3.24-1.72-4.27-4.86-3.84-14.45,2-29,3.18-43.43,5.11a38,38,0,0,1-9.41.27c-6.3-3.49-12.49-2.39-18.63.53-17-1.67-34-3.73-51-5.6-5.3-.59-6.28.05-6.54,5.26-.28,5.47-.4,11,.75,16.4.72,3.41,2.39,4.7,5.93,4.27,14.18-1.74,28.41-3.15,42.57-5.1,3.09-.43,6.22-1.23,9.34-.07,1.76,3,1.35,6.15.56,9.31-1.64,2.6-4.58,2.38-7,3.12-24.14,7.29-39.33,23.08-43.78,47.94-3.14,17.59.87,34,12.24,48.21,1.23,1.54,2.71,2.95,3.15,5,.12,1.8-1.27,2.57-2.43,3.48A629.24,629.24,0,0,1,437.82,315c-8.47,5.2-16.8,10.66-25.77,15-1.94.94-4.13,3-5.71-.56-1-14.95-.47-29.9-.27-44.85a6.87,6.87,0,0,1,.78-2.86c1.34-2.44,3.73-3.73,5.9-5.25a60.37,60.37,0,0,0-4.23-102.34c-6.4-3.71-13.51-5.54-20.57-7.49a3,3,0,0,1-1.24-2.91c1.07-8.29,1.21-8.27,9.73-7.38q21.3,2.24,42.56,4.84c3.76.46,5.5-.84,6.13-4.56a69.32,69.32,0,0,0,.59-16.4c-.33-4.87-1.46-5.61-6.36-5.11-17,1.75-33.92,4.41-51,5.77-6.58-3.4-13.16-3.56-19.76,0-16.87-1.49-33.63-3.94-50.46-5.69-5.64-.59-6.46-.12-7,5.4A60.71,60.71,0,0,0,312,157c.63,3.52,2.4,4.7,5.89,4.24,15.3-2,30.68-3.39,46-5.34,2-.24,3.94-.77,5.87.18,1.77,3,1.35,6.14.59,9.29-1.21,2.22-3.57,2.21-5.58,2.77-24.9,6.94-40.85,22.92-45.17,48.35-4.11,24.18,4.28,44.41,24.16,59.4,2.49,1.89,5.55,3.07,7.3,5.89a11.55,11.55,0,0,1,1,5.36c0,22,.12,43.9,0,65.85a15.79,15.79,0,0,1-.25,2.47c-.65,3.84-3.11,5.95-6.59,7.42-19.63,8.27-39.65,15.47-59.93,22-1.86.6-3.79,1.55-5.68,0q0-58.43-.06-116.83c0-2.06.83-4.37-1.09-6.13-.76-1.76-.45-3.61-.45-5.42q.06-29.67,0-59.33c0-6.08-.35-6.41-6.55-6.43-12.13,0-24.26,0-36.39,0-2.45,0-5,.38-7.19-1.31,1.1-2.29,3.21-1.29,4.85-1.3,14-.08,27.94-.18,41.91,0,3.92.06,5.05-1.06,5-5-.14-45.9-.1-91.8-.11-137.7,2.3-2.3,5.27-1.71,8-1.72,19.44-.06,38.89,0,58.34,0q143.88,0,287.75,0C636.87,43.61,640.36,42.74,643.17,45.3Z"/><path class="cls-2" d="M613.14,151.09c5.23-3.83,7.79-9.75,11.33-14.85,6.18-8.91,11.87-18.16,18.64-28.61v6.14q0,34.33,0,68.66c0,1.85-.91,4,1.1,5.54,15.25,0,30.51,0,45.76.05,1.63,0,3.73-1,4.82,1.29-2.17,1.68-4.75,1.29-7.2,1.3-12.12.06-24.24,0-36.37,0-6.17,0-6.51.34-6.52,6.45q0,29.64,0,59.28c0,1.82.31,3.66-.45,5.42-1.85,1.78-1,4.08-1,6.15q-.07,61.64,0,123.27c0,4.31-1,5.63-5.5,5.62q-176.42-.18-352.83,0c-4.42,0-6.1-1.16-5.5-5.57a50,50,0,0,0,.1-6.48c10.34-2.21,20.13-6.16,30-9.64,11.64-4.09,23-8.92,34.56-13.33,2.68-1,5.1-2.19,6.25-5,1.23.95,1.29,2.34,1.42,3.71.08,5.79-.43,11.59,1.84,17.22,4.2,10.45,15.95,17.67,27.6,16.66S403,384.32,405,372.89a41.91,41.91,0,0,0,1-9.42c0-8.72-.34-17.42-.16-26.13,0-2.26-.27-4.66,1.6-6.5,13.87-6.37,26.47-14.92,39.37-22.95,18.54-11.52,36-24.54,53.45-37.66.13-.1.34-.31.39-.28,5.85,3.47,11.88,6.7,15.82,12.59.83,8.59.3,17.2.37,25.79.11,14.56,0,29.12,0,43.67a28.75,28.75,0,0,0,.68,6.36c.26,5.57-1.38,11.08.68,16.75,3.79,10.4,13,18.41,23.31,19.26a27.59,27.59,0,0,0,27-15.29,20.67,20.67,0,0,0,2.36-9.59c0-3.66-.08-7.32-.07-11-.4-22.92-.12-45.82-.17-68.72,0-3-.33-6,1.69-8.59a35.64,35.64,0,0,1,5.91-4.53c29.6-20.43,35.31-60.39,12.63-88.46-1.14-1.41-2.63-2.58-3-4.48,2-4.59,6.41-7.36,9-11.51,2.21-3.48,5.57-6.28,5.92-10.78a5.17,5.17,0,0,1,2.89-.12c3.45.7,4.61-1.11,5.08-4.19C611.09,155,609.86,152.1,613.14,151.09Z"/><path class="cls-3" d="M643.17,45.3c-1.66,0-3.32-.14-5-.14H284.5c-1.66,0-3.32.11-5,.16-17-.07-33.93-.27-50.9-.15-3.85,0-5.17-.89-5.07-5,.28-11.14.1-22.29.1-33.44,0-6.78,0-6.78,6.57-6.78H692.49c6.56,0,6.56,0,6.57,6.78,0,11.31-.14,22.63.08,33.94.06,3.59-1.15,4.46-4.56,4.44C677.44,45.08,660.31,45.23,643.17,45.3Z"/><path class="cls-4" d="M173,202l54.73.07c1.7,1.73,1.57,4,1.5,6.1-.19,5.78.75,11.62-.68,17.35-1.94,3.43-5.34,2.91-8.42,2.92-20.46.07-40.92,0-61.38,0-27.13,0-48,20.66-48.41,47.86-.14,11-.05,21.95,0,32.93.07,27.74-15.42,49-41.88,58.84a41.35,41.35,0,0,1-14.24,2.15c-16.47.12-32.94-.07-49.4.12-3,0-4.66-.47-4.37-4.07C1,359.21-.26,352.06,1,345q24.2-.08,48.38-.16c19.91-.05,35-14.95,35.26-34.9.13-10.81,0-21.62,0-32.43.27-32.59,15.86-55.31,44.86-69.33,1.48-.71,2.93-1.48,4.39-2.22,5.34-2.38,5.5-6.9,5.47-11.94,0-4.66-1.43-9.6,1.41-14,2.85.27,4.13-.72,3.95-3.88-.31-5.57-.2-11.17-.27-16.76l.74-.44a2.65,2.65,0,0,1,1.61,1.92c.71,4.08.31,8.2.36,12.3a16.85,16.85,0,0,0,1.41,7.19c1.26,5.24.59,10.56.62,15.84,0,3.39,1.11,4.81,4.67,4.49,4.45-.39,8.94-.14,13.41-.12C169.31,200.52,171.29,200.64,173,202Z"/><path class="cls-5" d="M695,202.05l54.74-.06a4.82,4.82,0,0,1,2.18-1.13c4.07-.25,4.66-2.88,4.54-6.22-.11-3,0-6,0-8.95,0-2,0-4,1.48-5.62l2.91,0c3.47-1.74,4.09.74,4.37,3.16a81.5,81.5,0,0,1,.17,11.9c-.11,3.6,1.18,5.49,5,5.86a71.39,71.39,0,0,1,13.16,2.43c1.91.56,3.86,1,5.26,2.56,10.39,4.91,20.42,10.31,28.46,18.82C830.33,238.63,837.7,254.86,838,274c.18,11.47.16,23,0,34.43-.23,22.9,17.73,37.06,36.3,36.47,15.78-.5,31.6,0,47.39.05,1.18,7.42.27,14.88.51,22.32.06,2-1.44,2.43-3,2.72a28.69,28.69,0,0,1-5.48.26c-14.14,0-28.28-.28-42.41.07-25,.63-53.09-19.44-57.82-48.48a77.42,77.42,0,0,1-1.14-12.9q.11-16.47,0-32.94c-.15-28.16-25.68-48.82-48.29-47.77-20.41,1-40.91.24-61.37.17-3.07,0-6.47.56-8.5-2.81C693.41,217.73,692.13,209.82,695,202.05Z"/><path class="cls-6" d="M695.06,226c2,1.23,4.15,1,6.31,1,21.28,0,42.57.13,63.86,0,18.83-.15,31.94,9.44,41.75,24.38,5,7.61,6.92,16.34,6.93,25.46,0,11.3-.09,22.61,0,33.92.27,30.35,20.85,52.47,49.44,57.78,8.2,1.52,16.91.31,25.39.32,9.32,0,18.63-.15,27.94.08,3.8.1,5.38-.83,5.15-4.95-.35-6.31-.11-12.64-.13-19,1.27.75,1,2,1,3.13,0,11-.12,22,0,32.94,0,3.18-1.26,3.91-4.16,3.89-18-.13-36,1-53.89-.42-24.16-1.9-42.77-14.38-55.75-34.85a71.32,71.32,0,0,1-11-39.73c.1-11,0-22,0-32.95.13-19-15.91-34.72-34-34.25-21,.53-41.94.12-62.9.12-2,0-4,.26-5.85-.83A18.06,18.06,0,0,1,695.06,226Z"/><path class="cls-6" d="M1,345C1,351.8,1,358.62.9,365.44.85,368,1,369,4.27,369c15.13-.3,30.27-.27,45.4-.11,21.43.22,37.54-8.92,49.6-26.52,6.67-9.73,9.23-20.32,9.48-31.72.21-10.14.29-20.29,0-30.43-.42-14,3.38-26.7,12.74-37.06,8.68-9.62,19.69-15.87,33-16.05,22.28-.3,44.57-.09,66.85-.09,2.16,0,4.35.23,6.31-1,2.36,5.36,2.54,10.71-.12,16-1.83,1.09-3.86.82-5.84.82-21.3,0-42.6.25-63.89,0-17-.25-32.72,14.67-33,33.19-.17,12.14,0,24.29,0,36.44-.07,34-26.81,65.6-60.33,71.39-11.42,2-22.89.74-34.34,1-8.64.21-17.3,0-25.95.07-2.42,0-4.18-.17-4.15-3.36.1-11.48,0-23,0-34.44A2.16,2.16,0,0,1,1,345Z"/><path class="cls-7" d="M695.06,226a108.71,108.71,0,0,0,.1,16c-.11,5.28-.41,10.57-.26,15.84.09,3.11-1,3.91-4,3.89-15.55-.1-31.1,0-46.65,0-1.28-1.38-.95-3.1-.95-4.73q0-31.84,0-63.68c0-1.95-.91-4.57,2.76-4.51,16.23.31,32.48-.5,48.71.43q.09,6.38.2,12.74Z"/><path class="cls-7" d="M227.53,242a107.35,107.35,0,0,0,.12-16l0-23.93.15-12.76c11.75-1,23.53-.2,35.3-.45,4-.08,8,.16,11.95-.06,3.1-.18,4.37.6,4.34,4.06-.14,21.74-.07,43.49-.06,65.24,0,1.34.07,2.67-.95,3.74-15.38-.05-30.75-.19-46.12-.05-3.43,0-4.63-.87-4.49-4.41C228,252.27,227.65,247.14,227.53,242Z"/><path class="cls-8" d="M144.48,159.34c-10,1.24-20,2.51-30,3.69-6.9.82-13.83,1.39-20.7,2.35-2.08.29-3.3,0-3.66-2.06-1.34-7.53-2-15.07-.67-22.7.46-2.67,1.21-3.25,4.17-3,17.44,1.71,34.76,4.63,52.27,5.61a26.58,26.58,0,0,0-1,15.68A4.19,4.19,0,0,0,144.48,159.34Z"/><path class="cls-8" d="M160.55,143.3c15.07-.9,30-3.16,45-4.9,3-.34,6-.38,8.92-.83,2.1-.33,2,.93,2.3,2.28a56.91,56.91,0,0,1-.37,22.74c-.4,2-1.19,3-3.68,2.67-13.82-1.66-27.68-3-41.5-4.65a52.06,52.06,0,0,0-9.41-.5,2.51,2.51,0,0,1-.81-2.06C163.4,153.07,162.19,148.18,160.55,143.3Z"/><path class="cls-8" d="M760.78,159.21c-10,1.28-20,2.61-30,3.82-6.89.83-13.84,1.32-20.7,2.34-2.48.37-3.48-.39-3.82-2.49-1.26-7.72-1.94-15.44-.32-23.22.32-1.52.72-2.57,2.46-2.36l52.14,6.56c.15,0,.29.16.43.24,0,4.62-1.55,9.3.55,13.84A1.72,1.72,0,0,1,760.78,159.21Z"/><path class="cls-8" d="M778,144.09c6.34-2.07,13-1.89,19.54-2.81,10.64-1.5,21.37-2.29,32-3.67,2.45-.32,3.15.18,3.6,2.48,1.52,7.79.77,15.48-.53,23.18-.38,2.21-1.89,2.16-3.73,1.95-13.63-1.59-27.28-2.94-40.87-4.72-3.24-.42-6.7.4-9.74-1.39l-.51-.55C779.16,153.76,778.28,148.92,778,144.09Z"/><path class="cls-9" d="M788.8,206c-7.42-1.38-14.7-3.62-22.31-3.92-2.42-.1-2.44-1.71-2.44-3.45,0-5-.06-9.94,0-14.9,0-2.3-.32-4-3.2-3.64l.24-1c2.63-2,5.47-.45,8.2-.43,5.43,0,6-.45,6.19-5.77.11-4-.32-8,.35-11.93a2.39,2.39,0,0,1,1.63-1.83l.76.05c-.86,5.95-.15,11.93-.4,17.89-.14,3.22,2.09,2.72,4,2.76,7,.18,7,.18,7,7.26C788.87,193.33,788.83,199.64,788.8,206Z"/><path class="cls-10" d="M173,202c-7.6.45-15.24-.71-22.82.72-2.67.5-2.41-1.58-2.41-3.21,0-6.47,0-12.95,0-19.42a19,19,0,0,1,14-1c2.52,1.27,5.22.69,7.82.65s3.49.81,3.44,3.42C172.79,189.41,172.92,195.7,173,202Z"/><path class="cls-11" d="M160.55,143.3c4.24,5.35,4.55,9.25,1.16,14.77-3.11,6.51-11,7.5-15.92,2l-.86-1.11c-3.61-6.43-3.38-10.14,1-15.68C150.79,139.76,155.67,139.8,160.55,143.3Z"/><path class="cls-12" d="M777.49,159.06c-.22.3-.45.59-.67.88-5.44,5.31-12.64,4.46-15.84-1.86-3.59-4.66-2.46-9.32,0-14,6.94-4.61,10.22-4.61,17,0C780.84,149.18,781.35,154.19,777.49,159.06Z"/><path class="cls-13" d="M761,158.08c4.72,5.32,10.15,4.75,15.84,1.86,0,5.28-.07,10.55.15,15.82.14,3.12-.77,4.34-4.12,4.38-4,0-7.82-.76-11.73-1.12q-.17-9.92-.34-19.81C760.84,158.83,760.91,158.45,761,158.08Z"/><path class="cls-13" d="M145.79,160.06c7,3.48,10.72,3,15.92-2l.06,2-.12,18.95c-4.59,1.16-9.27,1-14,1-2.27-.42-2.06-2.17-2-3.81Q145.72,168.16,145.79,160.06Z"/><path class="cls-9" d="M140.8,180c0,5.75-.49,11.56.11,17.25s-1.18,8.59-7,8.71c0-6.27-.08-12.53-.09-18.8C133.82,180.09,133.83,180.09,140.8,180Z"/><path class="cls-9" d="M758,180.07c0,5.45-.33,10.92.09,16.34.36,4.7-1.36,6.32-5.82,5.64a18.4,18.4,0,0,0-2.47-.06c0-5.47.4-11,0-16.41-.38-4.73,1.35-6.26,5.76-5.58A18.58,18.58,0,0,0,758,180.07Z"/><path class="cls-4" d="M407.45,330.84l-.15,34.08c-2.06-.26-1.91-2-2.21-3.39-2.5-11.17-9.43-17.83-20.47-20.57-2.57-.63-5.85-.13-7.24-3.44a26.52,26.52,0,0,1-.54-7.43q0-60.75,0-121.5c0-2.48-.19-5,.58-7.41,1.43-3,4-2.32,6.42-1.93a28.3,28.3,0,0,1,16.89,9.45,25.75,25.75,0,0,1,8,18.68c.45,16.87.16,33.74.14,50.62,0,1-.39,1.94-.48,2.93a8.09,8.09,0,0,0-1.06,4.75Q407.44,308.26,407.45,330.84Z"/><path class="cls-7" d="M408.42,280.93c-2-1.3-1.07-3.32-1.08-5-.08-15.06-.14-30.12,0-45.18.07-8.29-2.14-15.64-7.86-21.78-1.47-2-1.58-4.32-1.58-6.67,0-5.65-.12-11.31,0-17,.09-3.84-1.06-6.07-5.34-5.81a7.88,7.88,0,0,1-5.26-1.18c-1.67-4.26-2.94-8.48,1.12-12.21,24.06,2.28,46.69,24.21,50.92,49.35C443.91,242.43,433,265.58,408.42,280.93Z"/><path class="cls-7" d="M349.47,281c-23.65-13.89-35.83-38.43-31.67-63.79a61.9,61.9,0,0,1,47.67-50.64c1.29-.28,2.62-.37,3.94-.55,2,0,1.92,1.67,1.78,2.75-.43,3.28.43,6.85-1.87,9.78a8,8,0,0,1-4.17.9c-5.95.56-6,.66-6.16,6.47-.21,7.76.54,15.55-.48,23.3-6.38,9.12-6.86,19.44-6.56,30.09.33,11.81.15,23.63,0,35.45C351.94,277.05,352.7,279.9,349.47,281Z"/><path class="cls-7" d="M515.29,280.94c-5.73-2.57-10.13-7-15-10.71-12.46-14.09-18.68-30.26-17.16-49.3,2.19-27.5,24.69-51.41,52.11-55,2.51,3.91,1.91,8,.51,12a5,5,0,0,1-3.36,1.5c-7.55.38-7.47.38-7.6,8-.13,7.25.54,14.51-.46,21.73-6.71,9.62-8,20.44-7.59,31.82.38,11.12.12,22.26.06,33.38C516.77,276.62,517.14,279.05,515.29,280.94Z"/><path class="cls-8" d="M387.38,140.14c7.18-1,14.35-2.1,21.54-3,10.48-1.33,21-2.42,31.46-3.88,4-.55,6.35.34,6.72,4.63a84.14,84.14,0,0,1-.94,22.3c-.51,2.78-2.59,3.17-4.94,2.87-9.5-1.22-19-2.67-28.51-3.62-6.91-.68-13.85-1.08-20.7-2.29-2.4-.43-3.86.44-3.64,3.22.1,1.29.26,2.68-.76,3.79-2.38-2.39-1.46-5.29-1.26-8.08C389.63,151,388.29,145.53,387.38,140.14Z"/><path class="cls-8" d="M369.33,156.15c-6,1.93-12.35,2.26-18.56,2.81-11,1-22,2.41-33,3.92-5.23.71-6.49,0-7.24-5.22a67,67,0,0,1-.28-20.77c.56-3.46,2-4.08,4.85-3.74,9,1,18.06,2,27.09,3.11q11.82,1.38,23.63,2.88a27.31,27.31,0,0,1,3.78,1.06c-.68,4.91-2.26,9.84.25,14.71A1.59,1.59,0,0,1,369.33,156.15Z"/><path class="cls-8" d="M535,156.17c-6.51,1-13,2.05-19.54,2.88-10.65,1.35-21.33,2.41-32,3.83-5.23.7-6.22.15-7.21-5.24a59.67,59.67,0,0,1-.19-21.73c.44-2.42,1.65-3,3.74-2.78,12.31,1.43,24.64,2.67,36.9,4.39,6.19.87,12.55.64,18.58,2.63-.77,5-2.55,9.93.31,14.81A1.46,1.46,0,0,1,535,156.17Z"/><path class="cls-8" d="M613.14,151.09c-1.57,1.47-.88,3.4-.95,5.13-.26,6.91-1.18,7.61-8.06,6a11.6,11.6,0,0,0-2-.11c-1.43,1.49-3.31,1.51-5.09,1.28-14.38-1.83-28.81-3.33-43.15-5.5a2.36,2.36,0,0,1-1.35-1.92c2.75-5.66,1.74-11.19-.59-16.68,18.24-1.3,36.37-3.62,54.49-6.05,3.56-.48,6.08-.34,5.81,4.55C612,142.2,613.68,146.59,613.14,151.09Z"/><path class="cls-14" d="M349.47,281c1.62-1.47.9-3.42.91-5.15.06-15.4.17-30.8,0-46.2a29.59,29.59,0,0,1,7.35-20.5,1.45,1.45,0,0,1,1.76-.15c1.46,1.44,1.34,3.31,1.36,5.13.53,41.36.11,82.72.22,124.07a33,33,0,0,1-.56,6.44c-2.7,5.77-5.52,11.49-9.86,16.29-.07-1.38-.15-2.77-.22-4.15q0-35.51.08-71A8,8,0,0,0,349.47,281Z"/><path class="cls-11" d="M552,139.3c4.82,6.08,5.11,9.6,1.32,15.81-1.34,4.18-4.52,6-8.6,6-4.33.05-8.1-1.26-9.6-6-4.05-5.07-2.88-10,.24-15C540.68,135.73,546.21,135.14,552,139.3Z"/><path class="cls-11" d="M369.38,155.12c-3.75-5-2.86-10,.23-14.92,7-5,10.54-5,17.77-.06,3.11,5,4.18,10,.25,15-1.57,3.85-4.5,6-8.58,5.94C374.77,161.08,371.07,159.58,369.38,155.12Z"/><path class="cls-13" d="M369.38,155.12c7.1,6.51,11.83,6.53,18.24.06,0,3,0,6,0,9-.1.83,0,1.59.84,2-1.94,3.82-.63,7.91-1,11.86-5,2.89-10.35,1.23-15.58,1.31a3.75,3.75,0,0,1-2.45-1.31c-.73-4,1.54-8,0-12a29.26,29.26,0,0,0-.08-9.88C369.35,155.8,369.37,155.46,369.38,155.12Z"/><path class="cls-13" d="M535.11,155.16c5.74,7.05,13.81,5.76,18.2,0,0,.67,0,1.34,0,2,2.1,2.77,1.27,6,1.37,9.06-.14,4,.94,8.2-1.16,12-4.79,2.47-9.9,1.07-14.88,1.19a4.44,4.44,0,0,1-3.42-1.44V165.91c.17-3.25.52-6.51-.18-9.74C535.06,155.83,535.08,155.5,535.11,155.16Z"/><path class="cls-4" d="M574.21,280.93c-2.33,1.56-2,4-2,6.27q0,36.33-.08,72.68c-2.43-.16-2.49-2.39-3.23-3.88-4.13-8.22-10.77-13.12-19.61-15.32-2.29-.56-5.15-.24-6.19-3.27a28.77,28.77,0,0,1-.5-7.46q0-60.68,0-121.35c0-2.48-.18-5,.58-7.43,1.27-2.74,3.65-2.27,5.95-2,7.19.69,12.35,5,17.33,9.66,5.16,5.86,7.36,12.59,7.33,20.49C573.77,246.49,573.15,263.72,574.21,280.93Z"/><path class="cls-7" d="M574.21,280.93c-2.89-.53-1.74-2.85-1.75-4.41-.09-15.29-.3-30.59,0-45.87A31.52,31.52,0,0,0,565.17,209c-1.71-2.7-1.48-5.73-1.49-8.72,0-5-.12-10,0-15,.12-3.87-1.09-6-5.35-5.81-1.79.1-3.7,0-5.08-1.53q0-6.1,0-12.21c1.52-1.12,3.17-.68,4.79-.36,10.35,2,19.27,7,27.3,13.63,1.26,1,2.53,2.2,2.73,4,10.89,11.7,17.54,25.36,17.83,41.46C606.42,249.4,595.29,268,574.21,280.93Z"/><path class="cls-15" d="M515.29,280.94c.07-16.64.17-33.28.19-49.92,0-8.28,2.2-15.73,7.81-22a1.17,1.17,0,0,1,1.63.56,10.6,10.6,0,0,1,.94,5.35c0,43.1.1,86.21,0,129.3a5,5,0,0,1-1.11,4.16,35.64,35.64,0,0,0-6.54,10.39,1.47,1.47,0,0,1-2,1c-1.58-7.19-.86-14.49-.89-21.74C515.25,319,515.3,300,515.29,280.94Z"/><path class="cls-16" d="M350.63,360.94a49.89,49.89,0,0,1,8.88-15.06c3.82-5.56,13.11-9.08,18.88-7.16,13.11.35,26.92,8.73,28.39,25.37,0,.29.34.55.52.83.14,25.46-21.49,34-36.15,29.86a28.26,28.26,0,0,1-20.73-26.86C350.41,365.6,350.56,363.27,350.63,360.94Z"/><path class="cls-16" d="M516.24,359.78a42,42,0,0,1,9-14c3.89-5.82,12.93-9.22,18.92-7.12,14.09.78,22.93,8.49,28,21.19,1,10.26,0,19.85-7.95,27.59A28.4,28.4,0,0,1,516,363.75C516.14,362.43,516.16,361.1,516.24,359.78Z"/><path class="cls-1" d="M588.14,183.07c-9.9-9.2-21.31-15.36-34.82-17.28v-8.67c11-.08,21.79,2.46,32.72,3.4,5.38.47,10.68,1.74,16.13,1.6,1.34,1.12,2.43,2.42.91,4.07C598,171.71,594.78,178.92,588.14,183.07Z"/><path class="cls-2" d="M378.39,338.72c-7.14.15-13.21,3.14-18.88,7.16,0-41.11,0-82.22-.18-123.33,0-4.48.9-9.11-.75-13.54,0-4.46,4.11-5.1,6.66-7.19,3.52-1.6,7.31-2,11.07-2.47a2.38,2.38,0,0,1,2.07.78Q378.38,269.43,378.39,338.72Z"/><path class="cls-9" d="M378.38,200.13l-1.91,0c-5.51.68-6.55.15-6.46-4.92.09-5.68-1.53-11.54,1.31-17l16.16-.16c12,.24,12,.24,12,12.21q0,9.38,0,18.76C393.65,203.15,386.69,200,378.38,200.13Z"/><path class="cls-10" d="M365.46,203c-2.37,1.9-5.42,3-6.88,6-.29,0-.59.09-.88.15-.05-7.79-.13-15.57-.15-23.36,0-8,0-8,8.08-7.53A42.84,42.84,0,0,1,365.46,203Z"/><path class="cls-17" d="M365.46,203q.09-12.37.17-24.75l3.82-.26,1.87.16c.07,5.66.41,11.33.12,17-.21,4,1.16,5.53,5,5C373,201.78,368.88,201.11,365.46,203Z"/><path class="cls-10" d="M524.14,208.9l-.85.12c0-8.24.32-16.51-.09-24.73-.24-4.93,1-7.19,6.2-6.23a20.74,20.74,0,0,0,3,.16,146.83,146.83,0,0,1,0,23.54C530.77,205.44,527.73,207.49,524.14,208.9Z"/><path class="cls-18" d="M531.3,203c0-6.54,0-13.08,0-19.63,0-1.79-.18-3.62,1-5.18l2.87-.24,2.84.23c2.35,2.26,1.45,5.21,1.65,7.91.34,4.52-.92,9.23,1.58,13.5C539.13,204.15,534.93,202.78,531.3,203Z"/><path class="cls-10" d="M541.27,200.17c-2.69.07-3.11-1.52-3.08-3.81.06-6.05-.07-12.1-.12-18.15l15.21-.21c11.94.27,12,.27,11.94,12.26,0,6.26,0,12.52-.05,18.78-6-5.25-12.46-9.63-21-8.83A2.11,2.11,0,0,1,541.27,200.17Z"/><path class="cls-2" d="M541.27,200.17l2.86,0q0,69.24,0,138.48c-7.15.15-13.35,2.8-18.93,7.12-1.71-1.66-.92-3.79-.92-5.69q-.15-65.61-.18-131.22c1.7-2.8,4.57-4.16,7.16-5.87C534.33,201.05,538.08,201.58,541.27,200.17Z"/><path class="cls-11" d="M357.43,367.43c0-12.63,9-21.62,21.5-21.61a21.23,21.23,0,0,1,21.5,21.35c-.05,12.48-9.23,21.27-21.67,21.73C367.27,389.33,356,377.53,357.43,367.43Z"/><path class="cls-11" d="M543.71,388.8a21.16,21.16,0,0,1-21.33-21.58c.33-11.45,8.68-21.52,22.56-21.53,10.3,0,21.22,9.94,21.06,21.67C565.82,379.85,555,389.44,543.71,388.8Z"/></g></g></svg>