<svg xmlns="http://www.w3.org/2000/svg" viewBox="0 0 172.13 273.44"><defs><style>.cls-1{fill:#484848;}.cls-2{fill:#1c1c1c;}.cls-3{fill:#727474;}.cls-4{fill:#1f1f1f;}.cls-5{fill:#313131;}.cls-6{fill:#d4d4d4;}.cls-7{fill:#494949;}.cls-8{fill:#e9eae8;}.cls-9{fill:#606060;}.cls-10{fill:#2c2c2c;}.cls-11{fill:#fdfdfd;}.cls-12{fill:#989898;}.cls-13{fill:#979797;}.cls-14{fill:#8c8c8c;}.cls-15{fill:#999;}.cls-16{fill:#868686;}.cls-17{fill:#858585;}.cls-18{fill:#848484;}.cls-19{fill:#080808;}.cls-20{fill:#505050;}.cls-21{fill:#232323;}.cls-22{fill:#292929;}.cls-23{fill:#2a2a2a;}.cls-24{fill:#212121;}.cls-25{fill:#282828;}</style></defs><g id="Layer_2" data-name="Layer 2"><g id="Layer_1-2" data-name="Layer 1"><path class="cls-1" d="M119.07,174.19l-19.16-6s0,0-.14-.15l7.24-5.28q12.9-9.42,25.83-18.83c.31-.23.65-.82,1.06-.5s.09.89-.11,1.32q-4.84,10.15-9.69,20.31c-.3.64-.54,1.31-.81,2a14.5,14.5,0,0,0-1.45,2.86c-.63,1.29-1.29,2.57-1.88,3.88C119.76,174.19,119.55,174.35,119.07,174.19ZM97.8,116.61l21.32-12.31c.35-.2.67-.43,1-.65a13.2,13.2,0,0,0,2.45-1.39c.24,0,.7-.71.67.21l-2.55,5.34c-2.26,4.75-4.54,9.48-6.75,14.25-.39.83-.71,1.09-1.66.78-5.34-1.73-10.71-3.38-16.15-5.08A4.53,4.53,0,0,1,97.8,116.61Zm27.09-7.18c1.48,5.75,3,11.51,4.47,17.26.12.46.18,1,.67,1.22,0,.28-.12.4-.46.29-3.95-1.24-7.9-2.46-11.85-3.69-.41-.13-.6-.27-.36-.75,2.45-5.09,4.88-10.2,7.32-15.29,0-.09.18-.13.28-.19A1.29,1.29,0,0,0,124.89,109.43ZM113.8,131.19c.39-.82.75-1,1.62-.7,5.24,1.68,10.5,3.3,16,5L101.64,157.3l-.2-.1q2-4.24,4-8.49C108.26,142.87,111.06,137.05,113.8,131.19ZM131.13,178c-1.87-.58-3.71-1.2-5.58-1.74-.65-.19-.71-.45-.44-1l11-22.94c0-.06.12-.1.18-.14q3.82,14.85,7.66,29.72ZM95.18,132.14c.09-2.41,0-4.82.16-7.24,0-.46.12-.64.64-.47q7,2.22,14,4.38c.8.24.39.59.23.94l-6.09,12.86q-4.19,8.8-8.39,17.59c-.06.14-.14.28-.21.41l-.2,0c0-4.85,0-9.71,0-14.56C95.3,141.4,95,136.76,95.18,132.14Zm.43,92.68a4.72,4.72,0,0,1-.32.36v-4.72q0-21.45,0-42.9c0-1.39,0-1.39,1.36-1,6,1.88,12,3.77,18,5.62.76.23,1,.4.62,1.25Q105.45,204.13,95.61,224.82ZM171.7,221q-2.14-8-4.3-15.9L165,196.23a2.2,2.2,0,0,0,0-.36l-22.41-83.93c-1.55-5.78-3.09-11.56-4.66-17.33-.21-.77-.13-1.2.66-1.58,1.25-.61,2.42-1.38,3.63-2.09a60.16,60.16,0,0,0,.13-6.3v0a0,0,0,0,0,0,0c0-.21-.08-.31-.19-.34a.55.55,0,0,0-.37,0,8,8,0,0,0-1.49.76c-2.59,1.58-5.25,3-7.87,4.55-5.14,3-10.3,5.93-15.43,9s-10,5.78-15,8.66-9.9,5.84-14.93,8.62a2.89,2.89,0,0,0-1,.74l0,.07a1.57,1.57,0,0,0-.15.32,39.39,39.39,0,0,0,0,5.85V123c0,.06,0,.12,0,.18a65,65,0,0,1,.16,6.69,3.77,3.77,0,0,0,.26,1.88l.13.05h0c.92.38,1.81.91,2.89.48a1.12,1.12,0,0,1,.92.14,1.68,1.68,0,0,0,1.39,0c1.34-.47,1.78-.18,1.82,1.22s0,3,0,4.56c0,.52.3,1.43-.59,1.41s-.55-.91-.57-1.44c-.06-1.2,0-2.4,0-3.6,0-.58,0-1.33-.85-1.31s-.74.71-.79,1.26,0,1.12,0,1.68c0,.91,0,1.83,0,2.75,0,.32-.08.66-.5.7s-.59-.32-.64-.7,0-.72,0-1.08c0-1.19,0-2.39,0-3.59,0-.43-.07-1-.67-1s-.65.52-.69,1a26.76,26.76,0,0,0,0,3.35c.06,1.19,0,2.23-1.47,2.4h-.08c-.1,0-.15.15-.21.24a4.84,4.84,0,0,0-.21,2v51.1a7.66,7.66,0,0,0,.11,1.79,1.48,1.48,0,0,0,.13.35.41.41,0,0,0,.05.09.39.39,0,0,0,.08.1c.88.87.79,2,.92,3.11a2.7,2.7,0,0,1-.77,2.48l-.12.11a1.89,1.89,0,0,1-.27.2,9.09,9.09,0,0,0-.12,2.27c0,17.88,0,35.76,0,53.65a3.37,3.37,0,0,0,.19.32h0c.46.69,1.15,1.28,1,2.25a6.08,6.08,0,0,0,.08,1.65,1.49,1.49,0,0,1-.86,1.78.09.09,0,0,1-.07,0l-.09,0A.67.67,0,0,0,86,264c.09,3.06-.14,6.11-.14,9.17.47.54.8,0,1.12-.18,2.46-1.4,4.89-2.86,7.35-4.25a1.55,1.55,0,0,0,.93-1.58c0-8.62,0-17.25,0-25.87a2.4,2.4,0,0,1,1.12-2.26q15.06-10.92,30.08-21.92l19.83-14.46c.05-.28-.15-.32-.34-.37a2.05,2.05,0,0,1-1.05-3.6,10.67,10.67,0,0,1,1.54-1.31c.51-.4.86-1,.41-1.55s-.93,0-1.32.39c-.59.59-1,.48-1.24-.31-.09-.34-.14-.66-.52-.77l-.06,0h0a3.08,3.08,0,0,0-1.54.84q-9.9,7.19-19.76,14.41-7.11,5.19-14.22,10.39c-2.14,1.57-4.29,3.15-6.5,4.67a.89.89,0,0,1,.17-.74c2.42-5,4.75-10,7.17-15,3.86-8,7.64-16.09,11.52-24.11.37-.76.74-1,1.57-.72q11.27,3.5,22.53,7c1.6.51,1.59.53.91,2a0,0,0,0,0,0,0s0,0,0,0a.64.64,0,0,0,.05.17.91.91,0,0,0,.53.23c1.79.32,2.18.75,2.25,2.55,0,1,0,1.9,0,2.85,0,.43-.08,1,.51,1.15h0a.93.93,0,0,0,.46-.27.45.45,0,0,0,.1-.14.89.89,0,0,0,.15-.27,49.37,49.37,0,0,0,.14-5.7,9.4,9.4,0,0,1,0-1.19c0-.33.13-.64.55-.65s.52.28.57.62,0,.63,0,1a30.66,30.66,0,0,0,.12,4.39.75.75,0,0,0,.25.3h0a1.78,1.78,0,0,0,.46.22h0l.13,0c.78-.48,1.37-1.2,2.19-1.64a1.28,1.28,0,0,0,.52-1.16.67.67,0,0,0-.35-.7.69.69,0,0,0-.78.15c-.18.15-.3.37-.48.53a.66.66,0,0,1-.87.11c-.28-.2-.19-.5-.13-.78a1.81,1.81,0,0,1,2-1.38c1.12,0,1.89.56,1.94,1.57a46.48,46.48,0,0,1,0,6.57v0s0,0,0,.08a3.41,3.41,0,0,0,.18,1.76c1.26,5.35,2.9,10.61,4.22,15.95a69.88,69.88,0,0,0,2.44,8.62c.44.45.71-.05,1-.22,2.08-1.17,4.14-2.37,6.21-3.55C172.43,223.75,172.44,223.75,171.7,221Z"/><path class="cls-2" d="M50.18,168.91c-.1-.31-.21-.61-.32-.92l-.64-1.25c-1.08-1-1-2.6-1.74-3.82s-1.3-2.65-1.94-4c-2.26-4.75-4.54-9.5-6.79-14.25-.23-.48-.62-1-.23-1.68l34.39,25.1L65,170.6c-3.69,1.15-7.39,2.27-11.07,3.47-.77.26-1.14.16-1.45-.59-.48-1.14-1.06-2.23-1.59-3.35C50.65,169.72,50.59,169.22,50.18,168.91Zm4.73-45.78c.46,1,.38,1.27-.68,1.58-3.88,1.15-7.72,2.42-11.58,3.64a2,2,0,0,1-.35,0,2.09,2.09,0,0,0,.61-1.26c1.58-6.36,3.34-12.68,4.83-19.06C50.12,113.08,52.48,118.12,54.91,123.13Zm-26.22,57.8c.58-2.36,1.2-4.71,1.8-7.06q2.7-10.47,5.42-20.94c.08-.27-.15-.92.58-.79q3.21,6.8,6.41,13.6c1.47,3.09,2.91,6.2,4.43,9.26.44.88.2,1.07-.62,1.32-6,1.84-11.92,3.72-17.89,5.59C28.16,181.68,28.62,181.23,28.69,180.93ZM71,157.34,41.07,135.53l10.17-3.18c2-.64,4.1-1.27,6.15-1.93.5-.16.85-.26,1.15.37Q64.8,144,71.1,157.21Zm.68,69.11-18.25-13.3Q40,203.36,26.54,193.53c-.36-.26-1-.41-.87-1s.69-.47,1.09-.59c8-2.49,15.9-5,23.84-7.47.76-.24,1.14-.23,1.54.61q9.63,20.35,19.34,40.69C71.57,226,71.83,226.13,71.64,226.45ZM77.22,225,77,225c-1.83-3.84-3.68-7.67-5.5-11.5-4.74-9.93-9.45-19.86-14.21-29.78-.42-.88-.49-1.27.63-1.6,6.1-1.84,12.18-3.77,18.26-5.67.58-.18,1-.41,1,.59Q77.21,201,77.22,225Zm0-68.31v3.92c-.48,0-.44-.38-.54-.59q-7.17-15.06-14.35-30.12c-.38-.79-.17-1,.55-1.19,4.45-1.36,8.91-2.73,13.35-4.16.84-.27,1-.12,1,.72,0,2.4-.13,4.8.08,7.19-.16,2.56-.07,5.13,0,7.7Q77.23,148.41,77.21,156.67Zm9.19-24.88h0c0-2.34,0-4.69,0-7a2.67,2.67,0,0,0-.24-1.62q-.15-.16-.3-.3a2.77,2.77,0,0,0-.52-.38c-2.07-1.15-4.12-2.35-6.18-3.53a7.2,7.2,0,0,0-2.89-1.32h0a1.47,1.47,0,0,0-.29,0,4.29,4.29,0,0,0-.7.2c-4.82,1.45-9.61,3-14.41,4.48-1.4.43-1.5.42-2.12-.9-1.92-4.08-3.92-8.12-5.79-12.23a5.25,5.25,0,0,0-1.19-1.92h-.16c-.49,0-1,.16-1.47.12s-1.15.19-1.4-.52a1.62,1.62,0,0,1,.5-1.82c.29-.27.67-.48.85-.85h0a.16.16,0,0,0,0-.09h0a.6.6,0,0,0,.06-.19.75.75,0,0,0-.39-.73l-.11,0,0,0c-.94.36-1,.32-.87-.66a.27.27,0,0,1,0-.09s0-.08,0-.12a1.7,1.7,0,0,0-.94-1.53C43.93,98.43,39.9,96.37,36,94c-.35-.21-.74-.51-1.2-.17-.08.22-.18.44-.24.67q-10.41,38.61-20.81,77.23Q6.95,197.11.11,222.45c-.22.79-.18,1.23.65,1.68,2.59,1.4,5.12,2.93,7.68,4.4.29.16.55.49,1,.34a3.42,3.42,0,0,0,.74-1.6c.35-1.72.8-3.42,1.28-5.1,2.13-7.39,4-14.84,6-22.26.74-2.71.67-2.69,3-1.12,1.07.72,1.94,1.8,3.32,2a5.46,5.46,0,0,0,.45.39q26.07,19,52.14,38a1.9,1.9,0,0,1,.89,1.76c0,8.75,0,17.5,0,26.25a1.31,1.31,0,0,0,.65,1.38c2.67,1.49,5.32,3.05,8,4.59.13-.08.37-.18.37-.23-.35-1.15.15-2.27.12-3.41-.06-2,0-4,0-5.94a.28.28,0,0,0,0-.09c0-.38-.23-.46-.55-.4-.5.1-1,.19-1.19-.42a1.55,1.55,0,0,1,.33-1.67c.24-.26.55-.46.81-.7s.75-.73.39-1.22-.78-.06-1.15.12c-.11.05-.23,0-.36-.12,0-.92,1-.78,1.47-1.27h0a5.85,5.85,0,0,0,.24-2q0-27.22,0-54.44v-.13c0-.55-.29-.49-.69-.47-.94.06-1.27-.35-1.13-1.26.11-.71.65-1.06,1.13-1.47s.86-.73.48-1.28-.77-.07-1.14.1a.27.27,0,0,1-.35-.07c-.07-.54.33-.72.74-.89s.61-.12.85-.33a.47.47,0,0,0,.1-.1c0-5.23,0-10.45,0-15.67q0-19.86,0-39.72l.08-.1a1.68,1.68,0,0,0,.27-1q0-3.08,0-6.15A1.57,1.57,0,0,0,86.4,131.79Z"/><path class="cls-3" d="M142.22,84.38c-2.93,1.65-5.77,3.22-8.58,4.83-2.65,1.52-5.26,3.09-7.89,4.63-3.91,2.28-7.82,4.57-11.74,6.83-3.34,1.93-6.7,3.82-10,5.74-3.64,2.09-7.27,4.21-10.91,6.31-2.3,1.32-4.62,2.61-6.93,3.92H86a2.56,2.56,0,0,1-1.21-.48c-4.69-2.67-9.31-5.45-14-8.12-6.77-3.85-13.5-7.77-20.26-11.64q-6.91-4-13.78-8c-1.93-1.13-3.9-2.19-5.82-3.35-.37-.22-.83-.33-1-.83a38.79,38.79,0,0,1,5-3q21-12.12,41.92-24.2l1.33-.77a3.88,3.88,0,0,1,.58-.28l.61-.26a.29.29,0,0,1,.19,0c.1,0,.14.14.17.27-.09,2.71-.07,5.43,0,8.14a3.8,3.8,0,0,1-.08.92v0a1.72,1.72,0,0,1-.07.21h0a1.78,1.78,0,0,1-.21.44,2.77,2.77,0,0,1-1.1,1c-3.88,2.13-7.66,4.44-11.53,6.61-.33.19-.88.27-.87.72s.56.51.89.7c6.11,3.56,12.26,7,18.36,10.6a2,2,0,0,0,2.29.05c6.09-3.26,11.84-7.11,18-10.31l.1-.06c1.35-.81,1.35-.93,0-1.72-3.82-2.24-7.66-4.45-11.49-6.68a6.92,6.92,0,0,1-1.43-.91l-.18-.2a1.84,1.84,0,0,1-.31-.59c-.19-2.79-.1-5.57-.07-8.35,0-.1,0-.2,0-.3,0-.29-.08-.74.29-.9h0l.22,0,.83.48,1.54.89,0,0,23.17,13.36c7.56,4.35,15.11,8.74,22.7,13a3.6,3.6,0,0,1,1.31,1.11Z"/><path class="cls-4" d="M104.38,21.76c-3.07,1.42-6.15,2.81-9.2,4.28a22.49,22.49,0,0,0-6.51,4.41,9.79,9.79,0,0,0-2.79,6A17,17,0,0,1,84.51,31a32.13,32.13,0,0,1,1.87-15.41,24.15,24.15,0,0,1,14.86-14.4A10.76,10.76,0,0,1,102.83.8c.81-.18.72.21.36.64s-.82.71-.89,1.3h0a.1.1,0,0,1,0,0,1.22,1.22,0,0,0-.07.17.2.2,0,0,0,0,.17,1.8,1.8,0,0,1,.7.08c.46.16.62.58.62,1.35,0,5,0,10.09,0,15.14C103.46,20.64,104.23,21,104.38,21.76Z"/><path class="cls-5" d="M86.13,116.64c0,2.16,0,4.32,0,6.48l-.3-.14a50.15,50.15,0,0,1-5.78-3.2,38.24,38.24,0,0,0-3.76-2l-.39-.19c-2.9-1.46-5.64-3.19-8.44-4.79C62.36,110,57.32,107,52.23,104.09a13.45,13.45,0,0,0-2.86-1.67h0a.66.66,0,0,0-.28,0,1.07,1.07,0,0,1-.38.1.36.36,0,0,1-.23-.08c.07-.92-.59-1.25-1.25-1.63q-5.72-3.28-11.41-6.6a6.54,6.54,0,0,0-1-.38c-1.06-1-2.47-1.5-3.67-2.31-.39-.26-.88-.37-1.17-.77a52.86,52.86,0,0,1,0-6.54h0l12.94,7.44q7.91,4.56,15.82,9.12c3.62,2.09,7.21,4.23,10.84,6.31,5.38,3.1,10.77,6.17,16.16,9.26l.3.21Z"/><path class="cls-4" d="M45.36,33.6a43.65,43.65,0,0,1,11.23-1.83,1.8,1.8,0,0,1-.4.23,6.05,6.05,0,0,1-2.11.29l-.43,0A42.1,42.1,0,0,0,45.3,34,7,7,0,0,0,43.05,35c-.48.34-1.13.78-.7,1.43s1,.13,1.47-.15a29.71,29.71,0,0,1,7.34-3.41,5.42,5.42,0,0,1,2.21-.41h0l.17.07a.76.76,0,0,1,.39.82c-.29,4,0,8-.11,12,0,.4,0,.8,0,1.2,0,1.7-.12,1.81-1.76,1.91.46.13,1.21-.42,1.42.53-.63-.8-1.58,0-2.3-.5a1.24,1.24,0,0,1,1-.32c1,.25,1.29-.2,1.28-1.18,0-3.75,0-7.5,0-11.25,0-.79-.42-1.6.18-2.39.22-.28-.07-.59-.46-.65a26.46,26.46,0,0,0-9,3.73c-.34.2-.7.38-1.06.55s-1,.28-1.27-.22a1.1,1.1,0,0,1,.2-1.42A7.6,7.6,0,0,1,45.36,33.6Z"/><path class="cls-4" d="M56.68,31.71l-.08.06h0c-1-.06-1.64-1-2.67-1C55.07,30.42,55.83,31.2,56.68,31.71Z"/><path class="cls-4" d="M114.24,3.3C112,.14,107-.87,102.83.8c.93.31.12.56-.07.69-.47.33-1,.58-.56,1.28l.06,0a1,1,0,0,0,.35.13l-.42,0-.43,0c-.24,0-.55,0-.55.29s.3.17.47.18c.4,0,.8,0,1.2,0s.55.14.36.42c-.5.74,0,1.47-.06,2.19-.06,4.47,0,8.94-.05,13.41,0,1.06.05,1.94,1.25,2.26.6,0,.81-.57,1.3-.76,3.62-1.44,6.8-3.52,8.74-7S116.71,6.77,114.24,3.3Zm-2.82.43c-.16.55-.85.24-1.27.13a23.59,23.59,0,0,0-6.86-1c.29-.06.57-.17.86-.22a13.16,13.16,0,0,1,6.27.07C110.89,2.9,111.6,3.16,111.42,3.73Z"/><path class="cls-4" d="M68.86,39.18c-5.19,2.65-9.72,6.32-14.63,9.4-.24.15-.48.27-.72.41-.63-.8-1.58,0-2.3-.5a1.24,1.24,0,0,1,1-.32c1,.25,1.29-.2,1.28-1.18,0-3.75,0-7.5,0-11.25,0-.79-.42-1.6.18-2.39.22-.28-.07-.59-.46-.65a1.12,1.12,0,0,1,.17-.2l.24-.18c.57-.31,1.3-.09,1.9-.3a2.28,2.28,0,0,1,.64,0,.52.52,0,0,0,.44-.23h0c-1-.06-1.64-1-2.67-1a5.65,5.65,0,0,1,2.24-.2,26.65,26.65,0,0,0,4.19,0l.6,0a32.41,32.41,0,0,1,8.38,1,2.23,2.23,0,0,0-.3.2c-1.13.85-.77,2.18-.8,3.37,0,.56,0,1.11,0,1.66s0,1.34.7,1.76C69.23,38.73,69.19,39,68.86,39.18Z"/><path class="cls-6" d="M88.61,67.62h0c0,.9,0,1.79-.1,2.69,0,.08,0,.15,0,.23a3.46,3.46,0,0,1-.15,1c-.18.45-.56.37-1.44,0a2.12,2.12,0,0,0-1.74-.1.65.65,0,0,0-.45.64c0,.4.35.35.64.32s.48-.13.62.17a.69.69,0,0,1-.19.76c-.21.24-.45.45-.67.68a1.84,1.84,0,0,0-.52,1.86c.07.25.26.54.11.79,0,0,0,0,0,0h0a.53.53,0,0,1-.15.15,4.75,4.75,0,0,1-5.26-4.44c0-2.19,0-4.38.09-6.56,0-.09,0-.18,0-.26s0-.2,0-.3v0c0-.25,0-.48,0-.72v0s0,0,0,0,0,0,0,0,0,0,0,0,0,0,0,0c.06-1.9.13-3.79.15-5.69,0-.64,0-1.27,0-1.9V56s0,0,0,0l-.19-.24a.29.29,0,0,0,0-.09,5,5,0,0,0,.17-.84.28.28,0,0,0,0-.09,15.24,15.24,0,0,0,0-2.34c0-.53,0-1.05,0-1.57,0-.28,0-.57,0-.85s0-.46,0-.69a5.68,5.68,0,0,0,3.52,2.43A12.93,12.93,0,0,0,87,52l.59-.06s0,0,0,0v0a16.68,16.68,0,0,1,.74,2.41v0a12.26,12.26,0,0,1,.27,2.92C88.54,60.73,88.67,64.18,88.61,67.62Z"/><path class="cls-7" d="M23.78,200.81c-.47.25-.42.73-.52,1.14C21.44,209,19.61,216,17.82,223a2.43,2.43,0,0,1-1.28,1.71c-2.41,1.32-4.67,2.9-7.14,4.12.95-4,2.07-7.86,3.13-11.79,1.74-6.39,3.4-12.8,5.06-19.21.27-1.07.66-1.1,1.48-.47C20.6,198.58,22.2,199.68,23.78,200.81Z"/><path class="cls-2" d="M162.8,228.9c-2.48-1.45-4.94-2.92-7.42-4.34a1.45,1.45,0,0,1-.7-1q-2.88-11.22-5.79-22.45a.14.14,0,0,1,0-.16s0-.06.06-.06h0c.16-.17.32-.33.47-.5a.32.32,0,0,1,.12.11,1.3,1.3,0,0,1,.26.83c.07.41.13.83.68.77s.53-.51.55-.9a12.89,12.89,0,0,1,.09-1.76.76.76,0,0,1,.28-.49h0c.29-.19.45-.12.46.24h0c.35.52,0,1.08.1,1.62.21,1.19.81,1.6,1.92,1.15.88-.35,1.46.18,2.11.54l.15.08c.54,3,1.45,5.94,2.23,8.89,1.37,5.21,2.75,10.42,4.09,15.64C162.59,227.66,163.26,228.18,162.8,228.9Z"/><path class="cls-8" d="M92.72,66.7v5.84a3.46,3.46,0,0,1-1.9,3.21,9,9,0,0,1-5,1.2,1.4,1.4,0,0,1-1.09-.35h0l0,0c-1.48-1.86.23-2.84,1.23-4.06-.55.21-1,.62-1.53.15-.29-.28-.19-.67-.06-1a1.29,1.29,0,0,1,1.34-.8,2,2,0,0,1,1.75.56.6.6,0,0,0,.51.2c.23-.07.3-.34.3-.59V67.73q0-6.12.06-12.24a4.57,4.57,0,0,0-.45-1.83A2.33,2.33,0,0,1,87.57,52l.05,0,.08,0h0l.61-.09.08,0A8.21,8.21,0,0,0,91.81,50c.57-.18.56.18.55.56,0,.89,0,1.78,0,2.66,0,.14,0,.27,0,.41s0,.55-.06.83a.64.64,0,0,0,.07.36v0l0,.08a1.4,1.4,0,0,1,.22.44,0,0,0,0,1,0,0c-.25.16-.21.41-.2.64v1.24c0,.52,0,1,0,1.56q0,3.27,0,6.52a2.62,2.62,0,0,1,.18.43A3,3,0,0,1,92.72,66.7Z"/><path class="cls-4" d="M116.33,50.66a4.52,4.52,0,0,1-3.5.12,9.37,9.37,0,0,1-3.52-2.19,7.58,7.58,0,0,1-.26-2.6,60.85,60.85,0,0,1,.16-7.27,2.78,2.78,0,0,0-.35-1.49c-.16-.37-.52-.79,0-1.14a.89.89,0,0,1,.75.22,2.12,2.12,0,0,0,1.66.48c3,.85,5.73,2.19,7.55,4.87A6.07,6.07,0,0,1,116.33,50.66Z"/><path class="cls-4" d="M109.35,46a5,5,0,0,1,0,2.63c-2.19-1.62-3.92-3.73-5.92-5.55a31.27,31.27,0,0,0-3.89-3.19c-2.28-1.48-4.65-2.26-7.44-.71A5,5,0,0,1,95.67,36c3.83-1.24,7.72-1,11.61-.33.55.09,1.08.25,1.62.38,0,0,0,.08,0,.11C110.22,39.39,109,42.71,109.35,46Z"/><path class="cls-4" d="M81.34,39.83c-3.81-3.13-7.71-2.66-11.69-.9a6.61,6.61,0,0,1-.79.25c0-.14.19-.39,0-.41-1.15-.15-1-1-1-1.76,0-1.47,0-2.94-.1-4.41,0-.45.12-.51.43-.67a5.75,5.75,0,0,1,.8-.18.54.54,0,0,0,.3-.2.9.9,0,0,1,.76.2,1,1,0,0,0,1.16.29,17.75,17.75,0,0,1,7.86,3.8A5.93,5.93,0,0,1,81.34,39.83Z"/><path class="cls-3" d="M90.37,45.67a9.6,9.6,0,0,0-8.82,0,3,3,0,0,0-1.87,3.58,5.68,5.68,0,0,0,3.52,2.43A12.93,12.93,0,0,0,87,52l.59-.06h.1l.61-.09.08,0A8.21,8.21,0,0,0,91.81,50C92.74,48,92.35,46.65,90.37,45.67Zm-4.45,5a8.29,8.29,0,0,1-3.83-.94c-.55-.32-1.17-.7-1.14-1.41a1.82,1.82,0,0,1,1.21-1.49,8.35,8.35,0,0,1,7.25-.15c.69.3,1.45.71,1.49,1.55s-.7,1.36-1.44,1.71A8.29,8.29,0,0,1,85.92,50.71Z"/><path class="cls-9" d="M88.32,51.79a7,7,0,0,1-.69.15H87l.59-.06h.1Z"/><path class="cls-9" d="M90.9,48.27c0,.92-.7,1.36-1.44,1.71a8.58,8.58,0,0,1-7.37-.21c-.55-.32-1.17-.7-1.14-1.41a1.82,1.82,0,0,1,1.21-1.49,8.35,8.35,0,0,1,7.25-.15C90.1,47,90.86,47.43,90.9,48.27Z"/><path class="cls-3" d="M30,84.25v6.54A25.56,25.56,0,0,1,30,84.25Z"/><path class="cls-4" d="M61,30.56a9.83,9.83,0,0,1-4.79,0l1.56,0a11.2,11.2,0,0,1,3.06,0A.11.11,0,0,1,61,30.56Z"/><path class="cls-4" d="M111.31,36.79c-.78.68-1.31-.1-1.94-.32l.28-.16A3.62,3.62,0,0,1,111.31,36.79Z"/><path class="cls-10" d="M60.78,30.54H57.72A8.08,8.08,0,0,1,60.78,30.54Z"/><path class="cls-4" d="M71.25,32a1.15,1.15,0,0,1-1.31.09c-.43-.21,0-.3.15-.38Z"/><path class="cls-11" d="M143.9,181.86q-3.83-14.87-7.66-29.72c.5.3.56.85.69,1.34.8,2.84,1.51,5.71,2.24,8.57,1.54,6,3.11,12.06,4.65,18.09C144,180.69,144.31,181.26,143.9,181.86Z"/><path class="cls-2" d="M150.76,183.83c-.33.4-.76,0-1.09-.1-1.91-.68-3.92-1-5.77-1.87q-3.83-14.87-7.66-29.72c1-2.8,2.54-5.39,3.85-8.31A26.24,26.24,0,0,1,141.7,149c1.57,5.86,3.08,11.75,4.64,17.62,1.43,5.36,2.9,10.72,4.36,16.08C150.81,183.08,151,183.5,150.76,183.83Z"/><path class="cls-2" d="M136.18,130.25c-2.09-.67-4.29-1.06-6.15-2.34-.49-.26-.55-.76-.67-1.22-1.52-5.75-3-11.51-4.47-17.26a1.29,1.29,0,0,1,.07-1.15c.19-1.37,1.07-2.46,1.55-3.71.55-1.42,1.34-2.75,2.1-4.27,1,2.79,1.52,5.55,2.26,8.24q2.4,8.85,4.76,17.69c.31,1.15.59,2.31.91,3.46C136.64,130.06,136.69,130.41,136.18,130.25Z"/><path class="cls-12" d="M86.37,201.28c-.11-.11-.29-.32-.32-.3-.7.44-1.42.55-1.76-.34a1.92,1.92,0,0,1,.71-2.43c.27-.17.54-.34.79-.53s.49-.55.22-.8-.49,0-.64.34-.65.28-1,.19-.25-.55-.18-.83c.3-1.12,1.26-1,2.12-1.08a1.76,1.76,0,0,1,1.13,1.78c.06,1,0,2,.05,3S87.24,201.48,86.37,201.28Z"/><path class="cls-13" d="M86.36,263.63c-.11-.1-.28-.32-.31-.3-.72.45-1.42.52-1.75-.36a1.86,1.86,0,0,1,.62-2.34c.35-.26.71-.5,1-.79a.47.47,0,0,0,.06-.65.32.32,0,0,0-.56.15.65.65,0,0,1-1.12.33c-.39-.34-.15-.89.16-1.27a1.91,1.91,0,0,1,1.63-.54c1.31.16,1.27,1.24,1.37,2.14s0,1.65,0,2.47S87.27,263.77,86.36,263.63Z"/><path class="cls-7" d="M36.49,152.14c-.73-.13-.5.52-.58.79q-2.73,10.47-5.42,20.94c-.6,2.35-1.22,4.7-1.8,7.06-.07.3-.53.75.13,1l-6.91,2.18c-.73.23-.48-.25-.39-.59l3.36-12.68c1.33-5,2.64-10.08,4-15.11,1-3.67,2-7.34,3.05-11,.07-.27.08-.61.43-.62s.39.36.5.6c1,2.14,2,4.3,3,6.45C36.06,151.48,36.29,151.8,36.49,152.14Z"/><path class="cls-7" d="M47.74,108.05c-1.49,6.38-3.25,12.7-4.83,19.06a2.09,2.09,0,0,1-.61,1.26c-1.78.56-3.58,1.07-5.33,1.7-1.1.4-1.23.06-.95-.9q.81-2.8,1.57-5.61c1-3.68,2-7.36,2.95-11,1.07-4,2.16-8,3.32-12.35C45.23,103,46.49,105.5,47.74,108.05Z"/><path class="cls-2" d="M15.47,198.89v.24c0,2.31,0,2.31-2.24,2.18a.92.92,0,0,1-.9-.68,2,2,0,0,1,.3-2c.36-.37.83-.62,1.22-1s.54-.49.18-.79-.45,0-.58.31c-.21.51-.71.36-1,.24s-.19-.64-.1-.93a1.45,1.45,0,0,1,1.72-1c.72.05,1.35.31,1.37,1.19,0,.72,0,1.44,0,2.16Z"/><path class="cls-14" d="M51.57,107.32c-.68.6-2.72.66-3.15.09a2.18,2.18,0,0,1,.75-2.82c.28-.21.64-.33.8-.68l.08.17h0c.5,1.06,1,2.12,1.49,3.17Z"/><path class="cls-15" d="M84.7,76.59a10,10,0,0,0,6.1-1.21,3,3,0,0,0,1.57-2.76c0-2.43,0-4.86,0-7.3q7.09,4.11,14.2,8.22c.7.41.7.77,0,1.18-2.23,1.28-4.47,2.57-6.7,3.87s-4.35,2.57-6.54,3.84-4.43,2.5-6.62,3.79c-.42.24-.69,0-1-.12L67.36,75.45c-.54-.32-1.09-.63-1.67-.91s-.69-.66,0-1c2.84-1.37,5.43-3.16,8.2-4.64,1.62-.86,3.17-1.83,4.77-2.73a1.53,1.53,0,0,0,.83-1.55c0-2.47,0-4.95,0-7.42,0-.43-.14-.89.19-1.27,0,5.33.1,10.66,0,16,0,2.22,1,3.29,2.8,4.05A5,5,0,0,0,84.7,76.59Z"/><path class="cls-16" d="M102.2,2.76A21.61,21.61,0,0,1,108.8,2a5.57,5.57,0,0,1,2.7.84,1,1,0,0,1,.5,1.22c-.21.56-.75.38-1.14.31-1-.19-2-.45-3-.7a18.44,18.44,0,0,0-5-.47c-.37,0-.8.2-1.11-.2Z"/><path class="cls-17" d="M56.47,32.19a11.24,11.24,0,0,0-2.89.38l-.34.13a26.46,26.46,0,0,0-9,3.73c-.34.2-.7.38-1.06.55s-1,.28-1.27-.22a1.1,1.1,0,0,1,.2-1.42,7.6,7.6,0,0,1,3.23-1.74,43.65,43.65,0,0,1,11.23-1.83h0C57.23,32.15,56.76,32.17,56.47,32.19Z"/><path class="cls-4" d="M53.7,33.35c-.6.79-.17,1.6-.18,2.39,0,3.75,0,7.5,0,11.25,0,1-.24,1.43-1.28,1.18a1.24,1.24,0,0,0-1,.32c.72.54,1.67-.3,2.3.5A42.88,42.88,0,0,1,49,51.37c-4.69,1.73-8,.83-10.49-2.88-2.75-4.15-2.44-8.54.87-12C42.25,33.41,46,32.14,50,31.3a17.11,17.11,0,0,1,3.9-.52c1-.05,1.68.93,2.67,1A43.65,43.65,0,0,0,45.36,33.6a7.6,7.6,0,0,0-3.23,1.74,1.1,1.1,0,0,0-.2,1.42c.31.5.8.44,1.27.22s.72-.35,1.06-.55a26.46,26.46,0,0,1,9-3.73C53.63,32.76,53.92,33.07,53.7,33.35Z"/><path class="cls-18" d="M113.93,39.82a8.39,8.39,0,0,1,4.36,3.77,2.33,2.33,0,0,1,.23.79.65.65,0,0,1-.42.76c-.33.11-.5-.13-.65-.38s-.4-.68-.58-1A15.92,15.92,0,0,0,113.93,39.82Z"/><path class="cls-19" d="M90.9,48.27c0,.92-.7,1.36-1.44,1.71a8.58,8.58,0,0,1-7.37-.21c-.55-.32-1.17-.7-1.14-1.41a1.82,1.82,0,0,1,1.21-1.49,8.35,8.35,0,0,1,7.25-.15C90.1,47,90.86,47.43,90.9,48.27Z"/><path class="cls-20" d="M146.8,198.71c0,.58,0,1,0,1.44,0,.27,0,.58-.39.59s-.53-.26-.56-.61C145.79,199.5,146.11,199.11,146.8,198.71Z"/><path class="cls-21" d="M154.49,198.69c0,.55,0,1,0,1.39s-.1.75-.57.7-.48-.48-.41-.84A1.7,1.7,0,0,1,154.49,198.69Z"/><path class="cls-22" d="M86.09,198.74c0,.54.25,1-.19,1.31a.26.26,0,0,1-.4-.1C85.25,199.41,85.51,199.07,86.09,198.74Z"/><path class="cls-23" d="M86.09,261.08c0,.55.22,1-.2,1.31a.27.27,0,0,1-.4-.11C85.27,261.74,85.53,261.4,86.09,261.08Z"/><path class="cls-10" d="M50.18,168.91H50c-.24,0-.47,0-.52-.36,0-.22,0-.4.14-.49a.47.47,0,0,1,.26-.08C50,168.3,50.08,168.6,50.18,168.91Z"/><path class="cls-24" d="M83.74,136.49v1c0,.31.05.66-.31.82a.5.5,0,0,1-.43-.05.8.8,0,0,1-.17-1,4.91,4.91,0,0,1,.67-.92Z"/><path class="cls-2" d="M14.14,198.74c0,.53.27,1-.2,1.29a.44.44,0,0,1-.4-.11C13.39,199.45,13.57,199.08,14.14,198.74Z"/><path class="cls-25" d="M50.11,105.27c0,.48.25.93-.17,1.25a.29.29,0,0,1-.46-.2C49.35,105.81,49.63,105.52,50.11,105.27Z"/><polygon class="cls-2" points="86.36 192.07 86.34 266.42 80.91 266.06 81.91 241.06 81.91 196.06 86.36 192.07"/><polygon class="cls-1" points="86.36 193.16 86.36 273.44 91.91 259.06 91.91 190.62 86.36 193.16"/><polygon class="cls-2" points="53.33 110.18 49.73 102.54 47.55 101.03 46.91 103.06 47.91 107.06 48.91 109.06 51.57 110.92 53.33 110.18"/><polygon class="cls-1" points="86.37 126.04 86.37 165.1 93.91 139.06 94.91 127.06 86.37 126.04"/><polygon class="cls-1" points="141.44 196.51 145.73 193.45 150.91 191.06 156.91 193.06 158.91 201.06 157.91 203.06 154.91 203.06 149.91 199.06 145.97 202.91 141.91 203.06 141.91 200.06 141.44 196.51"/><polygon class="cls-2" points="148.9 200.85 154.91 197.06 156.68 205.15 150.65 205.15 149.91 202.06 148.9 200.85"/><polygon class="cls-1" points="145.65 203.15 151.17 199.42 150.91 198.06 146.91 199.06 145.65 203.15"/><path class="cls-6" d="M88.22,75.87s0,0,0,0c-.12.19-.24.38-.38.58a19.5,19.5,0,0,1-3.12.09h0a7,7,0,0,1-1.58-.26h0a1.91,1.91,0,0,1-.35-.14l-.06,0,0,0h0L86.11,57s-.2-4.89.83-5H87l.59-.06h.1l.61-.09.08,0,0,2.58v0l-.12,12.25,0,1.11V70l.09.08a2.75,2.75,0,0,1,.21.23C89.09,71,90.09,72.81,88.22,75.87Z"/><path class="cls-8" d="M88.22,68.66s.54,8.23-.38,7.81a4.85,4.85,0,0,0,3.07-2.35l-2.66-7.5Z"/><path class="cls-3" d="M79.59,54.77V65.31l-.2.18-.17.16-.62.56-.39-9.93v0a3.88,3.88,0,0,1,.58-.28l.63-.35A5,5,0,0,0,79.59,54.77Z"/><path class="cls-9" d="M78.21,56.24a3.88,3.88,0,0,1,.58-.28l-.58.32L76.88,57Z"/><path class="cls-9" d="M79.59,54.77a.28.28,0,0,0,0-.09v.84l-.17.09A5,5,0,0,0,79.59,54.77Z"/><path class="cls-9" d="M79.67,49.92l0,2.42c0-.53,0-1.05,0-1.57,0-.28,0-.57,0-.85Z"/><path class="cls-9" d="M93.4,55.84l-1,1.4,0-1.28V54.89a1.4,1.4,0,0,1,.22.44l.83.49Z"/><polygon class="cls-8" points="92.3 51.96 92.33 56.76 90.91 56.06 90.91 53.46 92.3 51.96"/><polygon class="cls-3" points="94.98 56.75 93.91 58.06 92.38 58.8 92.37 58.8 92.35 55.96 92.35 55.21 92.56 55.33 93.39 55.82 94.94 56.73 94.98 56.75"/></g></g></svg>