<svg id="Layer_1" data-name="Layer 1" xmlns="http://www.w3.org/2000/svg" viewBox="0 0 300 300"><defs><style>.cls-1{fill:#2e5187;}</style></defs><path class="cls-1" d="M203.13,96.25C169.48,80.71,135.32,79.54,101.31,95,69,109.65,44.17,134,19.37,158.78a10.41,10.41,0,0,0,1.08,1.78c17,15.58,32.89,32.62,51.22,46.42,40.91,30.79,85.59,36,132.51,14,20.56-9.61,38-23.75,54.46-39.16,7.59-7.1,14.55-14.88,22-22.56C258.48,134.06,234.37,110.68,203.13,96.25ZM150.65,212.56c-29.17.19-52.8-23.7-52.92-53.5-.13-28.91,23.37-53.14,51.64-53.28,29.59-.15,53.23,23.69,53.22,53.64C202.57,188.21,179,212.37,150.65,212.56Z"/><path class="cls-1" d="M167,185.18c-11.62,7.9-26.8,6.67-37.53-3-10.4-9.41-13-25.61-6.13-38.16,6.08-11.08,19.68-18.09,30.47-15.21-5.34,9.15-5.34,17.76,2.22,25,7.07,6.81,15.29,6.83,23.64,2.07C183,164.81,177,178.37,167,185.18Z"/></svg>