<svg id="Layer_1" data-name="Layer 1" xmlns="http://www.w3.org/2000/svg" viewBox="0 0 300 300"><defs><style>.cls-1{fill:#2e5187;}</style></defs><polygon class="cls-1" points="66.43 283.96 20.3 237.55 20.3 283.96 66.43 283.96"/><path class="cls-1" d="M223.14,157.9c-4.5,20.44-7.36,39-14.19,56.51-6.07,15.61-14.37,29.81-24.12,43.36-4,5.59-7.48,5.6-12.73,2.1-15.27-10.19-25.35-24.73-34.55-40.1-1.33-2.23-1.87-5.06-5.61-6.81,1.08,25.27,9.89,48,17.62,71C95.16,224.53,99,153,138.81,93.48c1.17,13-.63,25.37,1.9,37.43,1.17,5.6,2.11,11.19,4.64,16.47,2.88,6,5.34,7.28,10,1.29,15.07-19.41,23.77-41.24,25.33-65.71,1.36-21.22-.35-42.24-6.22-62.8-.56-2-.7-4.05-1.25-7.33C182,17.7,186.9,25,192.62,31.18c31.27,33.91,59.89,69.76,76.08,113.64,16.95,45.9,12.83,89-19.87,127.33-1.51,1.77-2.59,4.13-6.89,4.84C253.42,235,246.24,196.3,223.14,157.9Z"/></svg>