<svg xmlns="http://www.w3.org/2000/svg" viewBox="0 0 510.96 721.13"><defs><style>.cls-1{fill:#2d2d2d;}.cls-2{fill:#1aa043;}.cls-3{fill:#1dd860;}</style></defs><g id="Layer_2" data-name="Layer 2"><g id="Layer_1-2" data-name="Layer 1"><path class="cls-1" d="M435.3,106.69H292.7V70.47l33.38-1.8V0H184.88V68.67l33.38,1.8v36.22H75.66C50.35,312.27,25.23,516.23,0,721.13H71.44c3.88-30.37,7-59.78,11.73-88.94,1.3-8.1,5.47-17.08,11.15-22.91,36.83-37.88,74.41-75,111.82-112.32,3.32-3.31,7.14-6.12,13.31-11.35V720.78h72.06V485.61c6.17,5.23,10,8,13.31,11.35,37.41,37.31,75,74.44,111.82,112.32,5.68,5.83,9.85,14.81,11.15,22.91,4.69,29.16,7.85,58.57,11.73,88.94H511C485.73,516.23,460.61,312.27,435.3,106.69ZM99.55,495.85c7-57.93,14.26-117.52,21.26-175.27l78.81,78.79ZM217.84,308.11c-28.72-29-56.7-53.75-79.64-82.52-7.28-9.13-1.13-29-1.13-46.18h80.77Zm75.28,0V179.41h80.77c0,17.21,6.15,37.05-1.13,46.18C349.82,254.36,321.84,279.1,293.12,308.11Zm18.22,91.26,78.81-78.79c7,57.75,14.23,117.34,21.26,175.27Z"/><path class="cls-2" d="M372.76,225.59c-22.94,28.77-50.92,53.51-79.64,82.52V179.41h80.77C373.89,196.62,380,216.46,372.76,225.59Z"/><path class="cls-2" d="M411.41,495.85,311.34,399.37l78.81-78.79C397.15,378.33,404.38,437.92,411.41,495.85Z"/><path class="cls-3" d="M199.62,399.37,99.55,495.85c7-57.93,14.26-117.52,21.26-175.27Z"/><path class="cls-3" d="M217.84,179.41v128.7c-28.72-29-56.7-53.75-79.64-82.52-7.28-9.13-1.13-29-1.13-46.18Z"/></g></g></svg>