<svg xmlns="http://www.w3.org/2000/svg" viewBox="0 0 542.36 721.13"><defs><style>.cls-1{fill:#2d2d2d;}.cls-2{fill:#1aa043;}.cls-3{fill:#1dd860;}.cls-4{fill:red;}.cls-5{fill:#333;}</style></defs><g id="Layer_2" data-name="Layer 2"><g id="Layer_1-2" data-name="Layer 1"><path class="cls-1" d="M435.3,106.69H292.7V70.47l33.38-1.8V0H184.88V68.67l33.38,1.8v36.22H75.66C50.35,312.27,25.23,516.23,0,721.13H71.44c3.88-30.37,7-59.78,11.73-88.94,1.3-8.1,5.47-17.08,11.15-22.91,36.83-37.88,74.41-75,111.82-112.32,3.32-3.31,7.14-6.12,13.31-11.35V720.78h72.06V485.61c6.17,5.23,10,8,13.31,11.35,37.41,37.31,75,74.44,111.82,112.32,5.68,5.83,9.85,14.81,11.15,22.91,4.69,29.16,7.85,58.57,11.73,88.94H511C485.73,516.23,460.61,312.27,435.3,106.69ZM99.55,495.85c7-57.93,14.26-117.52,21.26-175.27l78.81,78.79ZM217.84,308.11c-28.72-29-56.7-53.75-79.64-82.52-7.28-9.13-1.13-29-1.13-46.18h80.77Zm75.28,0V179.41h80.77c0,17.21,6.15,37.05-1.13,46.18C349.82,254.36,321.84,279.1,293.12,308.11Zm18.22,91.26,78.81-78.79c7,57.75,14.23,117.34,21.26,175.27Z"/><path class="cls-2" d="M372.76,225.59c-22.94,28.77-50.92,53.51-79.64,82.52V179.41h80.77C373.89,196.62,380,216.46,372.76,225.59Z"/><path class="cls-2" d="M411.41,495.85,311.34,399.37l78.81-78.79C397.15,378.33,404.38,437.92,411.41,495.85Z"/><path class="cls-3" d="M199.62,399.37,99.55,495.85c7-57.93,14.26-117.52,21.26-175.27Z"/><path class="cls-3" d="M217.84,179.41v128.7c-28.72-29-56.7-53.75-79.64-82.52-7.28-9.13-1.13-29-1.13-46.18Z"/><path class="cls-4" d="M399.47,154.54c-12.53,0-21.67-7.58-23.86-19.74a20.89,20.89,0,0,1,2.7-14.47l10.18-17.68c16.36-28.41,33.28-57.78,50.05-86.6A22.24,22.24,0,0,1,458,4.89a23,23,0,0,1,20,11.55c8.39,14.41,16.85,29.08,25,43.28q6,10.45,12.07,20.92l8.7,15,13.66,23.67c4.41,7.64,4.56,16.49.41,23.69S526,154.52,517.16,154.53H399.47Z"/><path class="cls-1" d="M458,6.39A21.54,21.54,0,0,1,476.68,17.2C489.12,38.56,501.42,60,513.79,81.39Q525,100.74,536.15,120.1c8.8,15.25-1.38,32.92-19,32.93H399.48c-11.79,0-20.32-7-22.39-18.51a19.5,19.5,0,0,1,2.52-13.45Q409.67,68.91,439.84,16.8A20.72,20.72,0,0,1,458,6.39m0-3h0a23.75,23.75,0,0,0-20.72,11.9c-16.75,28.78-33.64,58.12-50,86.48L377,119.58a22.37,22.37,0,0,0-2.88,15.48c2.33,12.93,12,21,25.34,21H517.16c9.35,0,17.57-4.58,22-12.24s4.27-17.09-.41-25.19l-13.87-24-8.49-14.68L504.34,59c-8.2-14.21-16.67-28.91-25.07-43.33A24.47,24.47,0,0,0,458,3.39Z"/><path class="cls-5" d="M503.08,124.55c-4-3.31-17.35-14.53-21.26-17.8-2.15-1.79-2-1.2-1-3.89C484.52,93,483.46,83.7,477,75.38S461.58,63.51,451.08,65a27.56,27.56,0,0,0-23.73,29.32c1.07,14.76,13,25.87,26.23,25.88,7.15,0,12.36-1.47,17-4.68,1.15-.79,1.85-.62,2.85.23,4.26,3.63,17.79,14.93,22.09,18.51l7.73-9.51Zm-48-16.7a15.44,15.44,0,1,1,15.37-15.44A15.25,15.25,0,0,1,455.09,107.85Z"/></g></g></svg>