<svg id="Layer_1" data-name="Layer 1" xmlns="http://www.w3.org/2000/svg" viewBox="0 0 300 300"><defs><style>.cls-1{fill:#2e5187;}</style></defs><path class="cls-1" d="M276.32,103.47c0,3.42-1.89,5.67-4.89,7.17q-54.39,27-108.79,54c-3.77,1.86-8.08,2.61-12.32,3.93-4.22-1.19-8.53-1.73-12.2-3.53C101.48,147,65,128.77,28.37,110.59c-3-1.5-4.87-3.7-4.78-7.2s2-5.44,4.86-6.88Q83.07,69.36,137.68,42.19c8-4,16.15-4.13,24.09-.19q54.91,27.15,109.72,54.54C274.41,98,276.29,100.17,276.32,103.47Z"/><path class="cls-1" d="M276.32,227.67c0,3.69-2.29,5.8-5.44,7.37Q217,261.82,163.05,288.68a27.56,27.56,0,0,1-13.13,3.26c-.07.25-.15.49-.21.73-4.08-1.21-8.42-1.89-12.17-3.74-36.47-18-72.85-36.19-109.27-54.31-2.92-1.45-4.69-3.59-4.68-7s1.82-5.49,4.74-6.94c9.9-4.89,19.8-9.79,29.64-14.79a4,4,0,0,1,4.11,0c22.41,11.23,44.91,22.29,67.3,33.57,13.68,6.9,27.22,7,40.89.13,22.34-11.18,44.73-22.28,67.06-33.48a5,5,0,0,1,5.08,0q14.18,7.22,28.47,14.2C274,221.86,276.33,224,276.32,227.67Z"/><path class="cls-1" d="M275.41,168.91a11.22,11.22,0,0,1-4.4,3.9c-21.15,10.63-42.35,21.14-63.54,31.69q-22,11-44,21.93a28.18,28.18,0,0,1-13.63,3.43c-.07.22-.13.46-.19.69-3.92-1.14-8.1-1.74-11.71-3.51Q83,200,28.2,172.53c-2.93-1.46-4.66-3.66-4.61-7s1.76-5.38,4.57-6.79c10.05-5,20.12-10,30.12-15a3.82,3.82,0,0,1,3.87.2c22.43,11.21,44.91,22.3,67.3,33.57,13.7,6.9,27.22,6.91,40.9.06,22.34-11.2,44.72-22.29,67.06-33.48a4.72,4.72,0,0,1,4.83-.06c9.76,5,19.6,9.78,29.38,14.71C276,160.9,277.67,165.17,275.41,168.91Z"/></svg>