<svg xmlns="http://www.w3.org/2000/svg" viewBox="0 0 718.67 578.44"><defs><style>.cls-1{fill:#2d2d2d;}.cls-2{fill:#af2828;}.cls-3{fill:#010101;}.cls-4{fill:red;}</style></defs><g id="Layer_2" data-name="Layer 2"><g id="Layer_1-2" data-name="Layer 1"><path class="cls-1" d="M704.68,261c10.34,2.27,13.9,6.51,13.93,16.85q.07,25.61,0,51.21c-.05,11-5.35,16.27-16.41,16.32q-25.62.09-51.22,0c-10.93,0-16-4.65-16.45-15.47-.14-3.44-1-4.27-4.34-4.24-18.71.16-37.42.1-56.13,0-2.59,0-4.33,0-4.29,3.56.18,15.42.08,30.83.08,46.34,12-2.73,19.44.74,21.27,9.58.58,2.84,1.06,6.42-.73,8.13-5.71,5.5-1.61,9.89.69,14.7,13.48,28.24,6.89,61-16.91,82.36a12,12,0,0,0-4.41,10.17c.2,20.34.12,40.69.07,61,0,11.58-5.14,16.73-16.64,16.77q-25.61.09-51.22,0c-11,0-16.29-5.32-16.32-16.38-.06-20.59-.11-41.17.06-61.75,0-4-.91-6.72-4.09-9.56-32.31-28.83-32.19-76.54.18-105.54,2.66-2.38,4-4.57,3.92-8.24-.22-15.2-.2-30.4,0-45.6.05-3.85-.27-5.73-5.08-5.68-24.78.29-49.58.23-74.37,0-4.11,0-5,1.28-4.91,5.11q.3,23.15,0,46.3a9.24,9.24,0,0,0,3.48,7.75c32.82,29.63,33.06,76.64.47,106a10.64,10.64,0,0,0-3.95,8.94c.15,20.58.1,41.17.06,61.75,0,11.61-5.13,16.81-16.57,16.85q-25.6.09-51.22,0c-11.08,0-16.36-5.28-16.4-16.3-.06-20.82-.1-41.63.06-62.45a10.52,10.52,0,0,0-4-8.88c-25.51-22.7-31.29-57.06-15-87.25,1-1.85,3.12-3.34.84-6.08-4.76-5.73-4.91-12-.39-18,4-5.25,9-6.15,18.5-3.47,0-15.75-.07-31.31.06-46.87,0-2.95-1.21-3.4-3.74-3.4q-38.24.11-76.48,0c-2.81,0-4.16.42-4.12,3.74.17,15.41.07,30.82.07,46.35,14.21-3.64,25.7,4.65,20.62,15.56-3.94,8.45-.68,13.52,2,20,11.59,27.69,4.45,58.54-18.45,79.13-3.06,2.75-4.36,5.37-4.31,9.49.21,20.58.13,41.16.08,61.74,0,11.5-5.19,16.58-16.81,16.61q-25.26.08-50.52,0c-11.88,0-16.85-5.13-16.87-17.25,0-20.58-.08-41.16.07-61.74a9.85,9.85,0,0,0-3.69-8.34c-32.74-29.29-32.76-76.69-.1-106,2.41-2.16,3.86-4.1,3.81-7.58-.22-15.67-.19-31.34,0-47,0-3.49-.67-4.82-4.54-4.77-18.48.22-37,.17-55.43,0-3.44,0-4.69.62-4.8,4.48-.29,10.29-5.62,15.16-16,15.21-16.37.08-32.75-.32-49.11.17-8.59.25-14.93-2.32-19-10V101.22c5.45-7.11,12.68-8.91,21.44-8.58,15.42.57,30.87.12,46.31.18,10.83,0,15.89,4.66,16.33,15.55.15,3.56,1.23,4.18,4.43,4.15,15.91-.15,31.82-.18,47.72,0,3.52,0,4.23-1.17,4.19-4.4-.16-12.86-.22-25.73,0-38.59.57-35.79,27.18-64.88,63-69.09,34.09-4,66.93,19.28,75.32,53.6,3.55,14.51,1.68,29.34,1.93,44,.25,14.37,0,14.37,14.47,14.37,45.38,0,90.76-.11,136.14.14,5.56,0,6.76-1.48,6.8-6.86.12-15.87-1.52-31.81,1.08-47.61,5.46-33.19,35.13-58,69.12-57.93s63.35,24.86,68.78,58.29c2.61,16,.86,32.21,1.09,48.31.06,4.5,1.07,5.87,5.72,5.78,15.2-.32,30.41-.25,45.61,0,3.89.06,5-.9,5.08-4.94.18-9.42,5.67-14.69,15-14.76q27-.2,54,0c9.54.08,14.93,5.76,15,15.55.11,12.63.06,25.26,0,37.89,0,10.32-3.6,14.57-13.93,16.87-10.37-2.18-14-6.47-14.12-16.68-.06-6.78-.31-13.57.09-20.32.26-4.53-1.43-5.63-5.59-5.36a94.38,94.38,0,0,1-15.41,0c-5.85-.6-7.33,1.34-7.31,7.21.24,55.86.13,111.72.16,167.57,0,7-2.43,16.54,1.13,20.26,4.47,4.68,14.1.91,21.45,1.6,4.21.39,5.71-.87,5.58-5.35-.33-11.21-.14-22.43-.1-33.65C690.59,267.49,694.07,263.25,704.68,261ZM359.39,297.71q134,0,268,.15c5.91,0,7.21-1.5,7.18-7.27q-.37-71.55,0-143.1c0-5-.62-7.13-6.59-7.12q-268.68.28-537.36,0c-5.32,0-6.48,1.37-6.46,6.54q.31,71.91,0,143.81c0,6,1.71,7.1,7.35,7.09Q225.41,297.55,359.39,297.71ZM209.92,112.45c12.62,0,25.24-.17,37.85.1,4.07.08,5-1.24,5-5.1-.24-12.85.16-25.71-.19-38.55a42,42,0,0,0-84,.17c-.3,12.85.1,25.71-.18,38.55-.09,4.13,1.33,5,5.14,4.92C185.62,112.31,197.77,112.45,209.92,112.45Zm298.18,0c12.39,0,24.77-.15,37.15.09,4,.08,5.12-1,5-5-.26-12.85.14-25.71-.19-38.55a42,42,0,0,0-84,0c-.31,12.84.09,25.7-.17,38.55-.08,4,1.15,5.07,5.06,5C483.33,112.3,495.72,112.45,508.1,112.45Zm-452,107c0-30.85-.12-61.71.12-92.57,0-5-1.37-6.54-6.25-6.12a78.57,78.57,0,0,1-14.71,0c-5.77-.59-7.4,1.2-7.37,7.16.25,55.87.13,111.74.17,167.61,0,7-2.39,16.31,1.14,20.31,4.05,4.6,13.63.73,20.73,1.6,5.79.7,6.29-2,6.26-6.8C56.05,280.26,56.14,249.87,56.14,219.48ZM358.3,396c-3.77-.12-8,1-12.33,2.2-3.91,1.07-4.49,2.32-1.35,5.34,7.91,7.62,15.66,15.41,23.32,23.28,6.79,7,7.18,15.14,1.27,21.08s-14.11,5.61-21.08-1.16c-7.38-7.16-14.56-14.52-21.85-21.78-5.23-5.21-5.6-5.12-7.49,1.67A42,42,0,1,0,399,424.51C393.09,407.25,377.15,395.89,358.3,396ZM228.46,419.85c-8.9,9.09-17.12,17.65-25.51,26-7.62,7.62-15.93,8.24-22.09,1.9-6-6.14-5.28-14.18,2-21.58s14.32-14.78,21.88-21.74c4.69-4.32,2.49-5.5-2-6.81a42.06,42.06,0,1,0,13,74.22C231.78,460.12,237.22,439.67,228.46,419.85Zm296.41,60.27c31,.13,51.77-28,43-54.71-1.35-4.14-2.42-5.56-6.13-1.59-7.33,7.86-15,15.36-22.75,22.85-7,6.81-15.14,7.21-21.1,1.32s-5.66-14.12,1.1-21.08c7.33-7.54,14.7-15.05,22.36-22.26,3.88-3.65,4.07-5.49-1.48-6.92-16.91-4.36-31.74-.65-43.34,12.34-11.78,13.18-14.36,28.65-7.15,44.94S510,479.12,524.87,480.12Zm-348-110.82c8.58-1.49,16.5-2.21,24.36-.44,3.61.82,3.78-.94,3.73-3.64-.11-5.61.13-11.23-.07-16.83-.27-7.39,3.23-17.82-1.34-21.37-4.86-3.76-14.71-1.09-22.38-1.23-.46,0-.93,0-1.4,0-2-.17-2.94.62-2.93,2.76C176.88,342.05,176.86,355.55,176.86,369.3Zm196.49,0c0-7.21,0-14.16,0-21.11-.07-7.21,2.58-17.19-1.08-20.92-4.61-4.69-14.54-1-22.15-1.48-.47,0-1,0-1.4,0-2.89-.39-3.48,1.09-3.46,3.67.09,12.16.11,24.31,0,36.47,0,3,1.06,3.49,3.74,2.92C356.85,367.16,364.76,367.81,373.35,369.3Zm140.36-22.8c0,7,.19,12.84-.08,18.67-.16,3.65,1,4.28,4.42,3.57a46.56,46.56,0,0,1,19.49,0c3.61.79,4.36-.29,4.3-3.71-.18-11-.39-22,.07-32.95.23-5.33-1.29-6.86-6.52-6.43-6.94.57-16.33-2.32-20.28,1.2C510.54,331,514.36,340.5,513.71,346.5ZM204.91,506.82c-8.59,1.49-16.51,2.21-24.37.43-3.63-.82-3.77,1-3.72,3.67.1,5.61-.13,11.22.07,16.83.27,7.39-3.24,17.81,1.34,21.36,4.87,3.76,14.71,1.09,22.38,1.23a5.45,5.45,0,0,1,.7,0c2.66.34,3.68-.67,3.66-3.48C204.85,533.79,204.91,520.72,204.91,506.82Zm140.37,0c0,7.58,0,14.34,0,21.1.07,7.21-2.59,17.18,1.08,20.93,4.6,4.7,14.53,1,22.14,1.49.47,0,.94-.06,1.4,0,2.87.38,3.5-1.07,3.48-3.66q-.15-18.24,0-36.47c0-3-1-3.53-3.72-3C361.78,509,353.88,508.31,345.28,506.82Zm196.49,22.1c0-6.07-.12-12.15.05-18.23.09-3.07-.7-4.1-4-3.4a48.16,48.16,0,0,1-20.18,0c-3.13-.66-4.07.11-4,3.31q.21,17.88,0,35.76c0,3,.72,4.13,3.89,4,6.77-.23,13.56-.21,20.33,0,3.06.09,4.08-.85,4-3.95C541.61,540.62,541.77,534.77,541.77,528.92Z"/><path class="cls-2" d="M704.68,261c-10.61,2.21-14.09,6.45-14.12,17.37,0,11.22-.23,22.44.1,33.65.13,4.48-1.37,5.74-5.58,5.35-7.35-.69-17,3.08-21.45-1.6-3.56-3.72-1.12-13.29-1.13-20.26,0-55.85.08-111.71-.16-167.57,0-5.87,1.46-7.81,7.31-7.21a94.38,94.38,0,0,0,15.41,0c4.16-.27,5.85.83,5.59,5.36-.4,6.75-.15,13.54-.09,20.32.08,10.21,3.75,14.5,14.12,16.68v34.72c-9.36,1.83-14.09,6.61-14.09,14.21s4.74,12.38,14.09,14.22Z"/><path class="cls-3" d="M704.68,226.31c-9.35-1.84-14.08-6.62-14.09-14.22s4.73-12.38,14.09-14.21c9.15,2,13.72,6.56,13.9,13.87C718.77,219.32,714.07,224.24,704.68,226.31Z"/><path class="cls-4" d="M359.39,297.71q-134,0-268,.13c-5.64,0-7.39-1-7.35-7.09q.42-71.91,0-143.81c0-5.17,1.14-6.55,6.46-6.54q268.68.22,537.36,0c6,0,6.61,2.11,6.59,7.12q-.24,71.55,0,143.1c0,5.77-1.27,7.28-7.18,7.27Q493.37,297.53,359.39,297.71Z"/><path class="cls-2" d="M209.92,112.45c-12.15,0-24.3-.14-36.45.09-3.81.07-5.23-.79-5.14-4.92.28-12.84-.12-25.7.18-38.55a42,42,0,0,1,84-.17c.35,12.84,0,25.7.19,38.55.07,3.86-.89,5.18-5,5.1C235.16,112.28,222.54,112.45,209.92,112.45Zm.28-28.11a14,14,0,1,0-13.65-14.68A14.17,14.17,0,0,0,210.2,84.34Z"/><path class="cls-2" d="M508.1,112.45c-12.38,0-24.77-.15-37.15.09-3.91.08-5.14-1-5.06-5,.26-12.85-.14-25.71.17-38.55a42,42,0,0,1,84,0c.33,12.84-.07,25.7.19,38.55.08,4-1.08,5.1-5,5C532.87,112.3,520.49,112.45,508.1,112.45Zm14-42A14,14,0,1,0,507.6,84.34,14.14,14.14,0,0,0,522.08,70.48Z"/><path class="cls-2" d="M56.14,219.48c0,30.39-.09,60.78.09,91.17,0,4.78-.47,7.5-6.26,6.8-7.1-.87-16.68,3-20.73-1.6-3.53-4-1.14-13.33-1.14-20.31,0-55.87.08-111.74-.17-167.61,0-6,1.6-7.75,7.37-7.16a78.57,78.57,0,0,0,14.71,0c4.88-.42,6.29,1.13,6.25,6.12C56,157.77,56.14,188.63,56.14,219.48Z"/><path class="cls-4" d="M358.3,396c18.85-.11,34.79,11.25,40.72,28.51a42,42,0,1,1-80.23,2.12c1.89-6.79,2.26-6.88,7.49-1.67,7.29,7.26,14.47,14.62,21.85,21.78,7,6.77,15.15,7.12,21.08,1.16s5.52-14.1-1.27-21.08c-7.66-7.87-15.41-15.66-23.32-23.28-3.14-3-2.56-4.27,1.35-5.34C350.26,397,354.53,395.88,358.3,396Z"/><path class="cls-4" d="M228.46,419.85c8.76,19.82,3.32,40.27-12.72,52a42,42,0,1,1-13-74.22c4.47,1.31,6.67,2.49,2,6.81-7.56,7-14.67,14.41-21.88,21.74s-8,15.44-2,21.58c6.16,6.34,14.47,5.72,22.09-1.9C211.34,437.5,219.56,428.94,228.46,419.85Z"/><path class="cls-4" d="M524.87,480.12c-14.92-1-28.24-8.82-35.46-25.11s-4.63-31.76,7.15-44.94c11.6-13,26.43-16.7,43.34-12.34,5.55,1.43,5.36,3.27,1.48,6.92-7.66,7.21-15,14.72-22.36,22.26-6.76,7-7.08,15.16-1.1,21.08s14.1,5.49,21.1-1.32c7.7-7.49,15.42-15,22.75-22.85,3.71-4,4.78-2.55,6.13,1.59C576.64,452.11,555.91,480.25,524.87,480.12Z"/><path class="cls-2" d="M176.86,369.3c0-13.75,0-27.25,0-40.75,0-2.14.91-2.93,2.93-2.76.47,0,.94,0,1.4,0,7.67.14,17.52-2.53,22.38,1.23,4.57,3.55,1.07,14,1.34,21.37.2,5.6,0,11.22.07,16.83.05,2.7-.12,4.46-3.73,3.64C193.36,367.09,185.44,367.81,176.86,369.3Z"/><path class="cls-2" d="M373.35,369.3c-8.59-1.49-16.5-2.14-24.38-.46-2.68.57-3.77.06-3.74-2.92.12-12.16.1-24.31,0-36.47,0-2.58.57-4.06,3.46-3.67.45.06.93,0,1.4,0,7.61.48,17.54-3.21,22.15,1.48,3.66,3.73,1,13.71,1.08,20.92C373.4,355.14,373.35,362.09,373.35,369.3Z"/><path class="cls-2" d="M513.71,346.5c.65-6-3.17-15.55,1.4-19.62,3.95-3.52,13.34-.63,20.28-1.2,5.23-.43,6.75,1.1,6.52,6.43-.46,11-.25,22-.07,32.95.06,3.42-.69,4.5-4.3,3.71a46.56,46.56,0,0,0-19.49,0c-3.4.71-4.58.08-4.42-3.57C513.9,359.34,513.71,353.49,513.71,346.5Z"/><path class="cls-2" d="M204.91,506.82c0,13.9-.06,27,.06,40,0,2.81-1,3.82-3.66,3.48a5.45,5.45,0,0,0-.7,0c-7.67-.14-17.51,2.53-22.38-1.23-4.58-3.55-1.07-14-1.34-21.36-.2-5.61,0-11.22-.07-16.83,0-2.69.09-4.49,3.72-3.67C188.4,509,196.32,508.31,204.91,506.82Z"/><path class="cls-2" d="M345.28,506.82c8.6,1.49,16.5,2.15,24.39.45,2.7-.58,3.75,0,3.72,3q-.18,18.24,0,36.47c0,2.59-.61,4-3.48,3.66-.46-.07-.93,0-1.4,0-7.61-.5-17.54,3.21-22.14-1.49-3.67-3.75-1-13.72-1.08-20.93C345.23,521.16,345.28,514.4,345.28,506.82Z"/><path class="cls-2" d="M541.77,528.92c0,5.85-.16,11.7.06,17.53.12,3.1-.9,4-4,3.95-6.77-.2-13.56-.22-20.33,0-3.17.1-3.93-1-3.89-4q.21-17.88,0-35.76c0-3.2.9-4,4-3.31a48.16,48.16,0,0,0,20.18,0c3.26-.7,4,.33,4,3.4C541.65,516.77,541.77,522.85,541.77,528.92Z"/><path class="cls-3" d="M210.2,84.34A14,14,0,1,1,224.52,71,14.13,14.13,0,0,1,210.2,84.34Z"/><path class="cls-3" d="M522.08,70.48a14,14,0,1,1-13.51-14.13A14.15,14.15,0,0,1,522.08,70.48Z"/></g></g></svg>