<svg id="Layer_1" data-name="Layer 1" xmlns="http://www.w3.org/2000/svg" viewBox="0 0 300 300"><defs><style>.cls-1{fill:#2e5187;}</style></defs><polygon class="cls-1" points="59.41 240.93 13.28 194.52 13.28 240.93 59.41 240.93"/><path class="cls-1" d="M261.84,68.42v38c-4.11,0-8.15,0-12.2-.06-.63,0-1.29-.71-1.85-1.2-8.95-7.91-21.35-7.85-30.41.07a5.21,5.21,0,0,1-3.14,1.17q-20.13.12-40.27,0a5.15,5.15,0,0,1-3.12-1.2c-9.12-8-21.42-7.91-30.62.15a4.39,4.39,0,0,1-2.67,1.06q-20.4.1-40.78,0a4.87,4.87,0,0,1-2.9-1.12c-9.22-8-21.58-8-30.63,0a5.22,5.22,0,0,1-2.88,1.13c-2.09.17-4.2.06-6.45.06v-38Z"/><path class="cls-1" d="M258.22,159.49a14.66,14.66,0,0,1-5.13-12.17c.19-4.29-.58-4.9-4.85-4.8-4.06.09-7.73-.63-10.56-3.88a33.43,33.43,0,0,0-2.69-2.32c-1.61-1.47-3.16-1.4-4.73,0-.62.57-1.29,1.12-1.85,1.75A12.18,12.18,0,0,1,218,142.47c-.85-.05-1.7.07-2.55.08a2.85,2.85,0,0,0-3.2,3.11c0,.92-.18,1.86-.13,2.79a12,12,0,0,1-5,10.79c-1.06.82-1.69,2.19-2.62,3.45A17.83,17.83,0,0,0,206.8,166a14.91,14.91,0,0,1,5.44,12.82c-.19,3.79.7,4.57,4.47,4.44a14.94,14.94,0,0,1,12.46,5.08c2.77,3.07,4.13,3.07,6.93,0a15,15,0,0,1,12.46-5.09c3.74.15,4.73-.77,4.54-4.42a15,15,0,0,1,5.18-12.65C261.22,163.53,261.18,162.2,258.22,159.49Zm-25.65,13.37c-5.2,0-9.93-4.49-9.94-9.39,0-5.85,4.3-10.5,9.83-10.58a10.4,10.4,0,0,1,10.19,10A10,10,0,0,1,232.57,172.86Z"/><path class="cls-1" d="M180.69,158.73c-3.5-2.91-4.54-6.56-4.57-11.69-.08-4.25-.27-4.44-5.47-4.56a7,7,0,0,0-1,0c-3.68.37-6.59-1.15-9.09-3.7-.89-.9-1.86-1.74-2.8-2.59-1.45-1.29-3.05-1.4-4.29.06a17.1,17.1,0,0,1-15.25,6.42c-2.3-.19-3.42,1.38-3.17,3.61.58,5.16-.77,9.36-4.88,12.9-3.2,2.76-3.12,4.34-.07,7.17a14.81,14.81,0,0,1,5.09,12.44c-.2,3.83.69,4.66,4.67,4.52a14.84,14.84,0,0,1,12.22,5c2.88,3.14,4.24,3.13,7.14,0a14.56,14.56,0,0,1,12-5c4.19.14,5.06-.71,4.89-4.86a14.31,14.31,0,0,1,4.76-11.8C184.27,163.46,184.25,161.71,180.69,158.73Zm-25,14.13c-5.2,0-10.09-4.48-10-9.25.07-6.3,4.18-10.91,10.21-10.66a10,10,0,0,1-.17,19.91Z"/><path class="cls-1" d="M104.31,159.58c-3.24-2.78-5.19-6-5.08-10.55.15-6.26-.1-6.47-6.34-6.54A12.51,12.51,0,0,1,83,138.22a20.08,20.08,0,0,0-1.82-1.75c-1.44-1.32-3-1.55-4.58-.29a24.79,24.79,0,0,0-2.66,2.36c-2.73,2.9-6,4.4-9.37,4-6.08,0-6.54.27-6.41,5.72a13.77,13.77,0,0,1-4.7,10.8c-3.53,3.4-3.56,4.28,0,7.66A14.08,14.08,0,0,1,58.12,178c-.13,4.74.54,5.4,5.23,5.28A14,14,0,0,1,74.68,188c3.28,3.51,4.34,3.38,7.73.13.37-.35.74-.71,1.09-1.08a11.07,11.07,0,0,1,8.63-3.65c1.19,0,2.38,0,3.57-.08,2-.09,3.18-1,3.25-3.12,0-1.27.21-2.55.18-3.82a10.77,10.77,0,0,1,3.49-8.43,27.55,27.55,0,0,0,2.1-2.22C107.05,163.05,107,161.87,104.31,159.58Zm-15.65,3.63a10.18,10.18,0,0,1-10.5,9.65c-5-.19-9.83-4.89-9.62-9.45.26-5.81,4.66-10.47,9.73-10.31A9.87,9.87,0,0,1,88.66,163.21Z"/><path class="cls-1" d="M245.72,137.06c0,.15-.14.3-.54,1.1-1.61-1-3.22-1.88-4.71-2.94-.95-.69-1.67-1.67-2.58-2.43-3.56-3-7-3-10.55.05-1.3,1.09-2.4,2.42-3.76,3.42a23.14,23.14,0,0,1-3.72,1.77,18.3,18.3,0,0,1-.32-2.25c0-8.23-.06-16.45.05-24.69a4.35,4.35,0,0,1,1.31-2.79c6.29-5.9,17.51-5.79,23.73.18a3.56,3.56,0,0,1,1.13,2.12C245.81,119.42,245.76,128.24,245.72,137.06Z"/><path class="cls-1" d="M91.71,138.16a28.82,28.82,0,0,1-4-1.87,22,22,0,0,1-2.81-2.58c-4.5-4.21-8.11-4.2-12.65.06a23.46,23.46,0,0,1-2.82,2.57,25.68,25.68,0,0,1-3.67,1.71c-.13-1.23-.28-2-.28-2.67,0-7.89-.09-15.79.08-23.69a5.78,5.78,0,0,1,1.84-3.81,17.91,17.91,0,0,1,22.57.07,4.45,4.45,0,0,1,1.7,2.61C91.75,119.47,91.71,128.38,91.71,138.16Z"/><path class="cls-1" d="M168.69,136.75a9,9,0,0,1-.42,1.42,26.6,26.6,0,0,1-4.46-2.69c-7.32-6.64-8.93-6.64-16.38,0a27,27,0,0,1-4.26,2.56l-.68-.62v-7.59c0-6.11-.08-12.23.08-18.34a5.25,5.25,0,0,1,1.59-3.41,17.89,17.89,0,0,1,23.16.17,4,4,0,0,1,1.36,2.51C168.76,119.43,168.71,128.09,168.69,136.75Z"/><path class="cls-1" d="M97.2,226.44c-.08,2.79-1.11,3.78-4,3.8-4.93,0-9.86,0-14.79,0s-9.68,0-14.52,0c-3,0-4-1-4-4-.05-2.29-.06-4.59,0-6.88.07-2.7,1.07-3.76,3.7-3.77q14.91-.06,29.82,0c2.65,0,3.69,1.07,3.76,3.73Q97.3,222.88,97.2,226.44Z"/><path class="cls-1" d="M174.26,225.94c0,3.31-1,4.28-4.24,4.3-4.84,0-9.68,0-14.52,0s-9.69,0-14.53,0c-3,0-3.95-1-4-4,0-2.3-.05-4.59,0-6.88.07-2.69,1.07-3.76,3.71-3.77q14.91-.06,29.82,0c2.66,0,3.66,1,3.74,3.72C174.3,221.52,174.28,223.73,174.26,225.94Z"/><path class="cls-1" d="M251.27,226.5c-.06,2.67-1.07,3.71-3.74,3.74-5,0-10,0-15,0-4.76,0-9.52,0-14.27,0-3.2,0-4.15-1-4.2-4.06,0-2.37,0-4.75,0-7.13s1.25-3.46,3.49-3.46q15.16,0,30.33,0c2.28,0,3.41,1.27,3.43,3.53C251.3,221.57,251.33,224,251.27,226.5Z"/><path class="cls-1" d="M245.73,209.45a1.9,1.9,0,0,1-1.26,1.38c-8.2.08-16.41.06-24.78.06V187.74a24.14,24.14,0,0,1,4,1.87c1.5,1.08,2.71,2.56,4.18,3.71,3.37,2.63,6.4,2.59,9.72-.07,1.26-1,2.3-2.28,3.58-3.23a50.76,50.76,0,0,1,4.65-2.66C245.79,195.39,245.82,202.42,245.73,209.45Z"/><path class="cls-1" d="M168.59,187.4v23.52h-7.2c-5.6,0-11.2.05-16.8-.07-.7,0-2-.9-2-1.41-.13-7-.09-14.06-.09-21.09l.7-.66a25.53,25.53,0,0,1,4.11,2.55c7.38,6.79,9.3,6.79,16.57,0C165.08,189.16,166.71,188.52,168.59,187.4Z"/><path class="cls-1" d="M91.51,187.53v23.16H65.59V187.57a32,32,0,0,1,4.16,2.18c1.56,1.17,2.85,2.69,4.4,3.86,3,2.25,5.92,2.23,8.91-.05,1.55-1.18,2.84-2.7,4.39-3.87A29.06,29.06,0,0,1,91.51,187.53Z"/><path class="cls-1" d="M286.86,95a2.13,2.13,0,0,1-1.53,1.4c-5.69.1-11.38.11-17.07,0a2.35,2.35,0,0,1-1.55-1.64c-.12-5-.11-10,0-15,0-.52.76-1.46,1.18-1.47,6.26-.1,12.52-.07,19-.07C286.92,84,287,89.5,286.86,95Z"/><path class="cls-1" d="M286.93,73.4H266.65c0-4.19-.09-8.25.11-12.29,0-.64,1.42-1.71,2.21-1.73,5.26-.15,10.52-.07,15.79-.07a1.89,1.89,0,0,1,2.17,2.17C286.91,65.38,286.93,69.27,286.93,73.4Z"/><path class="cls-1" d="M286.94,113.21c0,1.53-.75,2.11-2.2,2.11-5.25,0-10.51.07-15.75-.08-.79,0-2.19-1.06-2.22-1.68-.21-4-.11-8.08-.11-12.29h20.27C286.93,105.44,286.92,109.33,286.94,113.21Z"/><path class="cls-1" d="M46.62,100.65c-1.52-.07-2.78.08-2.75-2.18q.18-11.2,0-22.42c0-2.35,1.39-2,2.84-2.06s2.55.19,2.48,2.16c-.13,3.82,0,7.65,0,11.46,0,3.57-.11,7.14,0,10.71C49.3,100.4,48.35,100.72,46.62,100.65Z"/><path class="cls-1" d="M29.82,96.66c0,4.38-.16,4.51-4.8,3.6V74.15c.92-.06,1.59-.05,2.25-.15,2-.29,2.63.52,2.6,2.54C29.75,83.25,29.82,90,29.82,96.66Z"/><path class="cls-1" d="M39,74.13V100.4a13.08,13.08,0,0,1-3.12.1c-.59-.11-1.47-1-1.48-1.47-.09-8.2-.06-16.39-.06-24.9Z"/><path class="cls-1" d="M87.51,239.89q-8.9.12-17.81,0c-3.06,0-4.36-1.72-3.93-4.88H91.49C91.65,238.31,90.43,239.84,87.51,239.89Z"/><path class="cls-1" d="M242,239.84q-9.4.21-18.81,0c-2.53-.05-3.62-1.7-3.47-5,7.84,0,15.53,0,23.22,0,.84,0,1.67.07,2.47.11C245.88,237.94,244.72,239.78,242,239.84Z"/><path class="cls-1" d="M164.59,239.88q-9,.13-18,0c-2.89,0-4.13-1.74-3.76-4.79a13.38,13.38,0,0,1,1.7-.21c7.94,0,15.89,0,24,0C168.72,238.25,167.5,239.83,164.59,239.88Z"/><path class="cls-1" d="M238,162.64c-.09,3.5-2.25,5.7-5.5,5.6a5.59,5.59,0,0,1-5.31-6,5.25,5.25,0,0,1,5.11-4.7C235.73,157.66,238,159.71,238,162.64Z"/><path class="cls-1" d="M161.08,162.32c0,3.46-2.33,6-5.54,5.92s-5.5-2.61-5.38-6.08c.08-2.48,2.57-4.6,5.42-4.62C158.59,157.52,161.06,159.68,161.08,162.32Z"/><path class="cls-1" d="M83.93,162.86a5.35,5.35,0,0,1-10.69.15,5.78,5.78,0,0,1,5.43-5.69C81.33,157.28,83.9,160,83.93,162.86Z"/></svg>