<svg xmlns="http://www.w3.org/2000/svg" viewBox="0 0 586.3 763.75"><defs><style>.cls-1{fill:#2d2d2d;}.cls-2{fill:red;}.cls-3{fill:#af2828;}.cls-4{fill:#333;}</style></defs><g id="Layer_2" data-name="Layer 2"><g id="Layer_1-2" data-name="Layer 1"><path class="cls-1" d="M501.77,643.3Q470.42,508.67,439.42,374c-9.52-41.26-18.91-82.55-28.5-123.79-.67-2.89-.47-4.13,2.68-3.65,3.4.53,6-1,8.64-2.88,18.37-12.87,36.74-25.73,55.22-38.42,2.84-1.94,3.68-4.06,3.66-7.36-.12-26.8-.2-53.6.06-80.39.05-4.77-1.46-5.55-5.77-5.54-61.18.13-122.36,0-183.54.18-3.94,0-5-1-5-5,.22-16.47,0-32.95.18-49.43,0-3.55-1-4.41-4.44-4.38-17.79.17-35.58.22-53.36,0-4-.05-4.57,1.3-4.53,4.83.18,16-.11,32,.19,47.93.09,4.66-.86,6.1-5.85,6.09-61-.2-122-.09-183-.23-4.11,0-5.23.94-5.2,5.15.21,27.13.16,54.26,0,81.39A6.88,6.88,0,0,0,34.22,205c19,13.1,37.92,26.35,56.87,39.53,1.07.75,2.3,1.91,3.41,1.85,3.91-.21,3.76,1.53,3,4.54Q85,302.16,72.62,353.49,36.56,501.84.37,650.17c-1,4.06-.06,5.6,3.77,7.21Q108.06,701,211.83,744.88c14.63,6.19,29.5,11.83,43.77,18.87h2a15.47,15.47,0,0,1,2.33-1.66q39.33-18.62,78.68-37.19l159.15-75.22C500.47,648.4,502.77,647.59,501.77,643.3Zm-343-316.86c6-25.31,12-50.6,17.88-75.93.75-3.22,2.12-4.29,5.37-4.25,12.78.16,25.56.21,38.34,0,1.93,0,3.1.3,3.78,1.08a2.31,2.31,0,0,1,.41.62,7.38,7.38,0,0,1,.45,3.23c-.07,3.36-.1,6.72-.11,10.08,0,6.94,0,13.88,0,20.83,0,5.64,0,11.28,0,16.91q0,7.25.07,14.49c0,2.94-.72,4.35-3.94,5-19.27,4-38.48,8.33-57.71,12.52C157.9,332.2,157.47,331.78,158.73,326.44Zm30.59,48.76c10-2.26,20-4.44,30-6.79,3.88-.92,5.84-.36,5.62,4.34-.33,7.3-.32,14.64,0,21.94a9.15,9.15,0,0,1-.18,2.48,3.1,3.1,0,0,1-.24.69,3.06,3.06,0,0,1-.33.56,2.23,2.23,0,0,1-.21.22c-.84.8-2.25.86-4.27.43q-26.44-5.67-52.93-11.24l-14.48-3c0-.39,0-.78-.05-1.17Q170.81,379.42,189.32,375.2Zm35.63,290c-.33,4.63-.19,9.29-.25,13.94-.34,1.37,1.64,4.64-2.5,2.84-12.44-5.42-24.93-10.75-37.4-16.1l-.12,0,.13.08a26.52,26.52,0,0,0-3-.89L124.34,641l.36-1.23c7.28,1.5,14.57,3,21.85,4.49,24.58,5.17,49.15,10.44,73.76,15.5C223.66,660.41,225.21,661.6,225,665.22Zm0-59c.06,3-.83,3.55-3.75,3-22.17-4.52-44.38-8.88-66.58-13.28l-.06-1.07c11-2.25,22-4.55,32.94-6.76,11.19-2.24,22.42-4.28,33.58-6.67,2.93-.63,3.91-.12,3.86,2.91C224.8,591.64,224.78,599,224.93,606.25Zm-.07-79.35a4.37,4.37,0,0,1-.12.52l-.15.47a3.67,3.67,0,0,1-.42.84,4.24,4.24,0,0,1-.58.69,2.6,2.6,0,0,1-.36.3,4.42,4.42,0,0,1-.85.5,9.84,9.84,0,0,1-2.29.71c-25,5-50,10.09-75,15.17-12.33,2.51-24.69,4.94-37,7.6-4,.87-4.63-.19-3.69-4q14.2-57.23,28.11-114.54a12.25,12.25,0,0,1,.56-1.81,6.53,6.53,0,0,1,.38-.75l.1-.16a3.31,3.31,0,0,1,.47-.56c.87-.8,2.14-.89,4.2-.44q41.29,8.91,82.67,17.39a5.84,5.84,0,0,1,3,1.28,2.75,2.75,0,0,1,.46.56l.06.1a2.74,2.74,0,0,1,.27.6,4,4,0,0,1,.2.81,10.54,10.54,0,0,1,.1,1.57c-.11,12-.05,24-.05,35.94,0,11.65-.19,23.3.11,34.94A11.91,11.91,0,0,1,224.86,526.9ZM354.43,339.18a1.29,1.29,0,0,1,.15.17,4.84,4.84,0,0,1,.79,1.9q5.14,21.5,10.35,43t10.38,43c.76,3.13,0,4-3.56,3.23q-38.71-8.81-77.52-17.13c-3.42-.74-4.68-2-4.58-5.57.23-8.47.07-17,.07-25.44s.16-17-.08-25.43a6.92,6.92,0,0,1,.48-3.15,3.66,3.66,0,0,1,.41-.66,3.4,3.4,0,0,1,.26-.29,1.07,1.07,0,0,1,.16-.14,5.9,5.9,0,0,1,2.76-1.24q28.37-6.18,56.67-12.63C352.74,338.42,353.75,338.47,354.43,339.18Zm-64.92-90.41c.32-1.77,1.42-2.43,3.85-2.4,12.11.14,24.23.1,36.34,0a3.91,3.91,0,0,1,2.95.85,3.14,3.14,0,0,1,.39.48,4,4,0,0,1,.32.62,7.17,7.17,0,0,1,.36,1.2c2.75,12.61,5.73,25.17,8.59,37.76.7,3.06-.09,4.54-3.71,5.3-14.88,3.15-29.66,6.74-44.45,10.3-2.23.54-3.63.47-4.29-.73a5.91,5.91,0,0,1-.47-2.92q0-1,0-1.92l0-1.29c0-1.54,0-3.09,0-4.64,0-5.52,0-11,0-16.58,0-6.39.06-12.79,0-19.18,0-1.75,0-3.5-.06-5.24a7.67,7.67,0,0,1,.05-1.21A2.65,2.65,0,0,1,289.51,248.77Zm-.69,267.05h0a5.89,5.89,0,0,1-.42-2.93c.15-7.31.05-14.63.05-21.95,0-4.88.11-9.77.07-14.64,0-2.11-.06-4.21-.15-6.32a11.32,11.32,0,0,1,.08-2.17,6.18,6.18,0,0,1,.18-.84,2.42,2.42,0,0,1,1.74-1.77l.35-.08a8.27,8.27,0,0,1,3.11.25c13.23,3,26.5,5.84,39.76,8.73q25,5.45,50,10.88a8.58,8.58,0,0,1,4.85,3,9.23,9.23,0,0,1,.79,1.17,8,8,0,0,1,.6,1.3,8.19,8.19,0,0,1,.42,3.85,2.41,2.41,0,0,1-.77,1.55c-.82.72-2.12.67-3.07.87-16.34,3.51-32.71,6.87-49.08,10.25-14.9,3.09-29.85,6-44.7,9.34-1.82.41-2.88.36-3.48-.18A2,2,0,0,1,288.82,515.82ZM290,679.23a.87.87,0,0,1-.36-.25l-.09-.1a1.81,1.81,0,0,1-.26-.54,2.91,2.91,0,0,1,.4-2.49,1.06,1.06,0,0,1,.15-.15c2.49-2,4.73.55,8.58.61C295,678.78,292.64,680.2,290,679.23Zm125.7-58.33c-10.3,4.62-20.66,9.21-30.5,14.71A32.48,32.48,0,0,1,360.15,639c-22.19-5.39-44.56-10.09-66.92-14.76a8.94,8.94,0,0,1-1.54-.45,3.77,3.77,0,0,1-1.35-.85,1.92,1.92,0,0,1-.26-.32,2.23,2.23,0,0,1-.31-.54l0-.07a4.19,4.19,0,0,1-.19-.63,9.21,9.21,0,0,1-.15-2.07c.13-8,.05-16,.05-24,0-7.65.28-15.32-.12-23-.21-4,1.31-5.51,4.94-6.25,19.46-4,38.9-8.07,58.34-12.14,14.74-3.09,29.53-6,44.19-9.44,4.23-1,5.53.23,6.42,4.05q7.68,32.94,15.67,65.79C419.67,617.61,419.06,619.41,415.74,620.9Z"/><path class="cls-2" d="M224.7,679.16c-.34,1.37,1.64,4.64-2.5,2.84-12.44-5.42-24.93-10.75-37.4-16.1l-.12,0,.13.08a26.52,26.52,0,0,0-3-.89L124.34,641l.36-1.23c7.28,1.5,14.57,3,21.85,4.49,24.58,5.17,49.15,10.44,73.76,15.5,3.35.69,4.9,1.88,4.64,5.5C224.62,669.85,224.76,674.51,224.7,679.16Z"/><path class="cls-2" d="M224.88,489.71c0,11.65-.19,23.3.11,34.94.1,3.94-1.14,5.53-4.9,6.28-25,5-50,10.09-75,15.17-12.34,2.51-24.7,4.94-37,7.6-4,.87-4.63-.19-3.69-4q14.2-57.23,28.11-114.54c.87-3.62,2-4.52,5.71-3.72q41.29,8.93,82.67,17.39c3.2.65,4.06,1.93,4,4.92C224.82,465.75,224.88,477.73,224.88,489.71Z"/><path class="cls-3" d="M289.45,595.33c0-7.65.28-15.32-.12-23-.21-4,1.31-5.51,4.94-6.25,19.46-4,38.9-8.07,58.34-12.14,14.74-3.09,29.53-6,44.19-9.44,4.23-1,5.53.24,6.42,4.05q7.68,32.94,15.67,65.79c.78,3.23.17,5-3.15,6.52-10.29,4.62-20.66,9.21-30.5,14.71A32.48,32.48,0,0,1,360.15,639c-22.19-5.39-44.55-10.09-66.91-14.76-3.34-.7-3.88-2.05-3.84-4.93C289.53,611.31,289.45,603.32,289.45,595.33Z"/><path class="cls-3" d="M290.51,382.32c0-8.47.16-17-.08-25.43-.09-3.25.9-4.79,4.07-5.48q28.37-6.18,56.67-12.63c2.54-.58,3.59-.1,4.2,2.47q10.31,43,20.73,86c.76,3.14,0,4-3.56,3.23q-38.7-8.81-77.52-17.13c-3.42-.74-4.68-2-4.58-5.57C290.67,399.29,290.51,390.8,290.51,382.32Z"/><path class="cls-2" d="M224.88,282.08c0,10.47-.06,20.94.05,31.4,0,2.94-.72,4.35-3.94,5-19.27,4-38.48,8.33-57.71,12.52-5.38,1.17-5.81.75-4.55-4.59,6-25.31,12-50.6,17.88-75.93.75-3.22,2.12-4.29,5.37-4.25,12.78.16,25.56.21,38.34,0,3.92-.08,4.71,1.38,4.64,4.93C224.75,261.47,224.88,271.77,224.88,282.08Z"/><path class="cls-3" d="M288.45,490.93c0-7,.23-14-.08-21-.2-4.4,1.25-5.57,5.46-4.61,13.23,3,26.5,5.84,39.76,8.73q25,5.45,50,10.88a8.61,8.61,0,0,1,6.66,9.37c-.36,2.37-2.46,2.13-3.84,2.42-16.34,3.51-32.71,6.87-49.08,10.25-14.9,3.09-29.85,6-44.69,9.34-3.71.83-4.27-.22-4.2-3.47C288.55,505.57,288.45,498.25,288.45,490.93Z"/><path class="cls-3" d="M289.45,274.82c0-8.14.1-16.28-.06-24.42-.05-3,.9-4.07,4-4,12.12.14,24.23.1,36.34,0,2.38,0,3.48.65,4,3.15,2.75,12.61,5.73,25.17,8.59,37.76.7,3.06-.09,4.54-3.71,5.3-14.87,3.15-29.66,6.74-44.44,10.3-3.43.83-4.87.21-4.78-3.65C289.59,291.11,289.45,283,289.45,274.82Z"/><path class="cls-2" d="M152.28,383.63q18.53-4.22,37-8.43c10-2.26,20-4.44,30-6.79,3.88-.92,5.84-.36,5.62,4.34-.33,7.3-.31,14.64,0,21.94.18,4.27-1.46,5.19-5.23,4.38q-26.44-5.67-52.93-11.24c-4.82-1-9.65-2-14.48-3Z"/><path class="cls-2" d="M154.54,594.85c11-2.25,22-4.55,32.94-6.76,11.19-2.24,22.42-4.28,33.58-6.67,2.93-.63,3.91-.12,3.86,2.91-.12,7.31-.14,14.62,0,21.92.06,3-.82,3.55-3.75,3-22.17-4.53-44.38-8.89-66.58-13.29Z"/><path class="cls-3" d="M298.46,676.31c-3.49,2.47-5.82,3.89-8.42,2.92-1.09-.41-1.05-2.82-.16-3.53C292.36,673.74,294.6,676.25,298.46,676.31Z"/><path class="cls-2" d="M443.41,151.15c-12.53,0-21.68-7.58-23.86-19.74a20.88,20.88,0,0,1,2.69-14.47l10.23-17.75c16.34-28.38,33.25-57.73,50-86.53A22.23,22.23,0,0,1,501.9,1.5a23,23,0,0,1,20,11.55c8.39,14.41,16.85,29.09,25,43.28Q553,66.79,559,77.25l8.69,15q6.84,11.82,13.67,23.66c4.41,7.64,4.56,16.49.4,23.69s-11.88,11.49-20.69,11.49H443.41Z"/><path class="cls-1" d="M501.9,3a21.51,21.51,0,0,1,18.71,10.81C533.05,35.17,545.35,56.6,557.72,78q11.17,19.35,22.36,38.71c8.8,15.25-1.38,32.92-19,32.93H443.41c-11.79,0-20.32-7-22.39-18.51a19.5,19.5,0,0,1,2.52-13.45Q453.6,65.52,483.77,13.41A20.73,20.73,0,0,1,501.9,3m0-3h0a23.74,23.74,0,0,0-20.72,11.9c-16.75,28.79-33.64,58.12-50,86.49l-10.26,17.8a22.37,22.37,0,0,0-2.87,15.48c2.32,12.93,12,21,25.34,21H561.09c9.35,0,17.57-4.58,22-12.24s4.28-17.08-.4-25.19-9.25-16-13.88-24L560.32,76.5q-6-10.43-12-20.87c-8.2-14.21-16.68-28.91-25.08-43.33A24.45,24.45,0,0,0,501.9,0Z"/><path class="cls-4" d="M547,121.16c-4-3.31-17.35-14.53-21.27-17.8-2.14-1.79-2-1.2-1-3.89C528.45,89.63,527.4,80.32,521,72s-15.44-11.87-26-10.44a27.57,27.57,0,0,0-23.73,29.32c1.07,14.76,13,25.87,26.24,25.88,7.14,0,12.35-1.47,17-4.67a2,2,0,0,1,2.85.22c4.27,3.63,17.8,14.93,22.1,18.51l7.72-9.51Zm-48-16.7A15.44,15.44,0,1,1,514.4,89,15.24,15.24,0,0,1,499,104.46Z"/></g></g></svg>