<svg xmlns="http://www.w3.org/2000/svg" viewBox="0 0 502.01 710.44"><defs><style>.cls-1{fill:#2d2d2d;}.cls-2{fill:red;}.cls-3{fill:#af2828;}</style></defs><g id="Layer_2" data-name="Layer 2"><g id="Layer_1-2" data-name="Layer 1"><path class="cls-1" d="M501.77,590q-31.35-134.62-62.35-269.33c-9.52-41.26-18.91-82.55-28.5-123.79-.67-2.89-.47-4.13,2.68-3.65,3.4.53,6-1,8.64-2.88,18.37-12.87,36.74-25.73,55.22-38.42,2.84-1.94,3.68-4.06,3.66-7.36-.12-26.8-.2-53.6.06-80.39.05-4.77-1.46-5.55-5.77-5.54-61.18.13-122.36,0-183.54.18-3.94,0-5-1-5-5,.22-16.47,0-32.95.18-49.43,0-3.55-1-4.41-4.44-4.38-17.79.17-35.58.22-53.36,0-4,0-4.57,1.3-4.53,4.83.18,16-.11,32,.19,47.93.09,4.66-.86,6.1-5.85,6.09-61-.2-122-.09-183-.23-4.11,0-5.23.94-5.2,5.15.21,27.13.16,54.26,0,81.39a6.88,6.88,0,0,0,3.33,6.49c19,13.1,37.92,26.35,56.87,39.53,1.07.75,2.3,1.91,3.41,1.85,3.91-.21,3.76,1.53,3,4.54Q85,248.86,72.62,300.18,36.56,448.53.37,596.86c-1,4.06-.06,5.6,3.77,7.21q103.92,43.57,207.69,87.5c14.63,6.19,29.5,11.83,43.77,18.87h2a15.47,15.47,0,0,1,2.33-1.66q39.33-18.62,78.68-37.19l159.15-75.22C500.47,595.09,502.77,594.28,501.77,590Zm-343-316.86c6-25.31,12-50.6,17.88-75.93.75-3.22,2.12-4.29,5.37-4.25,12.78.16,25.56.21,38.34,0,1.93,0,3.1.3,3.78,1.08a2.31,2.31,0,0,1,.41.62,7.38,7.38,0,0,1,.45,3.23c-.07,3.36-.1,6.72-.11,10.08,0,6.94,0,13.88,0,20.83,0,5.64,0,11.28,0,16.91q0,7.24.07,14.49c0,2.94-.72,4.35-3.94,5-19.27,4-38.48,8.33-57.71,12.52C157.9,278.89,157.47,278.47,158.73,273.13Zm30.59,48.76c10-2.26,20-4.44,30-6.79,3.88-.92,5.84-.36,5.62,4.34-.33,7.3-.32,14.64,0,21.94a9.15,9.15,0,0,1-.18,2.48,3.1,3.1,0,0,1-.24.69,3.06,3.06,0,0,1-.33.56,2.23,2.23,0,0,1-.21.22c-.84.8-2.25.86-4.27.43q-26.44-5.67-52.93-11.24l-14.48-3c0-.39,0-.78-.05-1.17Q170.81,326.11,189.32,321.89Zm35.63,290c-.33,4.63-.19,9.29-.25,13.94-.34,1.37,1.64,4.64-2.5,2.84-12.44-5.42-24.93-10.75-37.4-16.1l-.12-.05.13.08a26.52,26.52,0,0,0-3-.89l-57.51-24.08.36-1.23c7.28,1.5,14.57,3,21.85,4.49,24.58,5.17,49.15,10.44,73.76,15.5C223.66,607.1,225.21,608.29,225,611.91Zm0-59c.06,3-.83,3.55-3.75,2.95C199,551.37,176.8,547,154.6,542.61l-.06-1.07c11-2.25,22-4.55,32.94-6.76,11.19-2.24,22.42-4.28,33.58-6.67,2.93-.63,3.91-.12,3.86,2.91C224.8,538.33,224.78,545.64,224.93,552.94Zm-.07-79.35a4.37,4.37,0,0,1-.12.52l-.15.47a3.67,3.67,0,0,1-.42.84,4.24,4.24,0,0,1-.58.69,2.6,2.6,0,0,1-.36.3,4.42,4.42,0,0,1-.85.5,9.84,9.84,0,0,1-2.29.71c-25,5-50,10.09-75,15.17-12.33,2.51-24.69,4.94-37,7.6-4,.87-4.63-.19-3.69-4q14.2-57.23,28.11-114.54a12.25,12.25,0,0,1,.56-1.81,6.53,6.53,0,0,1,.38-.75l.1-.15a3.4,3.4,0,0,1,.47-.57c.87-.8,2.14-.89,4.2-.44q41.29,8.91,82.67,17.39a5.84,5.84,0,0,1,3,1.28,2.75,2.75,0,0,1,.46.56l.06.1a2.74,2.74,0,0,1,.27.6,4,4,0,0,1,.2.81,10.54,10.54,0,0,1,.1,1.57c-.11,12-.05,24-.05,35.94,0,11.65-.19,23.3.11,34.94A11.91,11.91,0,0,1,224.86,473.59ZM354.43,285.87a1.29,1.29,0,0,1,.15.17,4.84,4.84,0,0,1,.79,1.9q5.14,21.49,10.35,43t10.38,43c.76,3.13,0,4-3.56,3.23Q333.83,368.35,295,360c-3.42-.74-4.68-2-4.58-5.57.23-8.47.07-17,.07-25.44s.16-17-.08-25.43a6.92,6.92,0,0,1,.48-3.15,3.66,3.66,0,0,1,.41-.66,3.4,3.4,0,0,1,.26-.29,1.07,1.07,0,0,1,.16-.14,5.9,5.9,0,0,1,2.76-1.24q28.37-6.18,56.67-12.63C352.74,285.11,353.75,285.16,354.43,285.87Zm-64.92-90.41c.32-1.77,1.42-2.43,3.85-2.4,12.11.14,24.23.1,36.34,0a3.91,3.91,0,0,1,2.95.85,3.14,3.14,0,0,1,.39.48,4,4,0,0,1,.32.62,7.17,7.17,0,0,1,.36,1.2c2.75,12.61,5.73,25.17,8.59,37.76.7,3.06-.09,4.54-3.71,5.3-14.88,3.15-29.66,6.74-44.45,10.3-2.23.54-3.63.47-4.29-.73a5.91,5.91,0,0,1-.47-2.92q0-1,0-1.92l0-1.29c0-1.54,0-3.09,0-4.64,0-5.52,0-11.05,0-16.58,0-6.39.06-12.79,0-19.18,0-1.75,0-3.5-.06-5.24a7.67,7.67,0,0,1,.05-1.21A2.65,2.65,0,0,1,289.51,195.46Zm-.69,267h0a5.89,5.89,0,0,1-.42-2.93c.15-7.31.05-14.63.05-21.95,0-4.88.11-9.77.07-14.64,0-2.11-.06-4.21-.15-6.32a11.32,11.32,0,0,1,.08-2.17,6.18,6.18,0,0,1,.18-.84,2.42,2.42,0,0,1,1.74-1.77l.35-.08a8.27,8.27,0,0,1,3.11.25c13.23,3,26.5,5.84,39.76,8.73q25,5.45,50,10.88a8.58,8.58,0,0,1,4.85,3,9.23,9.23,0,0,1,.79,1.17,8,8,0,0,1,.6,1.3,8.19,8.19,0,0,1,.42,3.85,2.41,2.41,0,0,1-.77,1.55c-.82.72-2.12.67-3.07.87C370,447,353.66,450.32,337.29,453.7c-14.9,3.09-29.85,6-44.7,9.34-1.82.41-2.88.36-3.48-.18A2,2,0,0,1,288.82,462.51ZM290,625.92a.87.87,0,0,1-.36-.25l-.09-.1a1.81,1.81,0,0,1-.26-.54,2.91,2.91,0,0,1,.4-2.49,1.06,1.06,0,0,1,.15-.15c2.49-1.95,4.73.55,8.58.61C295,625.47,292.64,626.89,290,625.92Zm125.7-58.33c-10.3,4.62-20.66,9.21-30.5,14.71a32.48,32.48,0,0,1-25.09,3.37c-22.19-5.39-44.56-10.09-66.92-14.76a8.94,8.94,0,0,1-1.54-.45,3.77,3.77,0,0,1-1.35-.85,1.92,1.92,0,0,1-.26-.32,2.23,2.23,0,0,1-.31-.54l0-.07a4.19,4.19,0,0,1-.19-.63,9.21,9.21,0,0,1-.15-2.07c.13-8,.05-16,.05-24,0-7.65.28-15.32-.12-23-.21-4,1.31-5.51,4.94-6.25,19.46-4,38.9-8.07,58.34-12.14,14.74-3.09,29.53-6,44.19-9.44,4.23-1,5.53.23,6.42,4q7.68,32.94,15.67,65.79C419.67,564.3,419.06,566.1,415.74,567.59Z"/><path class="cls-2" d="M224.7,625.85c-.34,1.37,1.64,4.64-2.5,2.84-12.44-5.42-24.93-10.75-37.4-16.1l-.12-.05.13.08a26.52,26.52,0,0,0-3-.89l-57.51-24.08.36-1.23c7.28,1.5,14.57,3,21.85,4.49,24.58,5.17,49.15,10.44,73.76,15.5,3.35.69,4.9,1.88,4.64,5.5C224.62,616.54,224.76,621.2,224.7,625.85Z"/><path class="cls-2" d="M224.88,436.4c0,11.65-.19,23.3.11,34.94.1,3.94-1.14,5.53-4.9,6.28-25,5-50,10.09-75,15.17-12.34,2.51-24.7,4.94-37,7.61-4,.86-4.63-.19-3.69-4q14.2-57.24,28.11-114.55c.87-3.61,2-4.52,5.71-3.72q41.29,8.93,82.67,17.39c3.2.65,4.06,1.93,4,4.92C224.82,412.44,224.88,424.42,224.88,436.4Z"/><path class="cls-3" d="M289.45,542c0-7.65.28-15.32-.12-22.95-.21-4,1.31-5.52,4.94-6.26,19.46-4,38.9-8.07,58.34-12.14,14.74-3.09,29.53-6,44.19-9.44,4.23-1,5.53.24,6.42,4q7.68,32.94,15.67,65.8c.78,3.22.17,5-3.15,6.51-10.29,4.63-20.66,9.21-30.5,14.71a32.48,32.48,0,0,1-25.09,3.37c-22.19-5.39-44.55-10.09-66.91-14.76-3.34-.7-3.88-2-3.84-4.92C289.53,558,289.45,550,289.45,542Z"/><path class="cls-3" d="M290.51,329c0-8.48.16-17-.08-25.44-.09-3.25.9-4.79,4.07-5.48q28.37-6.18,56.67-12.62c2.54-.58,3.59-.11,4.2,2.46q10.31,43,20.73,86c.76,3.14,0,4-3.56,3.23Q333.84,368.35,295,360c-3.42-.74-4.68-2-4.58-5.57C290.67,346,290.51,337.49,290.51,329Z"/><path class="cls-2" d="M224.88,228.77c0,10.47-.06,20.94.05,31.4,0,2.94-.72,4.36-3.94,5-19.27,4-38.48,8.33-57.71,12.52-5.38,1.17-5.81.75-4.55-4.59,6-25.31,12-50.6,17.88-75.93.75-3.22,2.12-4.29,5.37-4.25,12.78.16,25.56.21,38.34,0,3.92-.08,4.71,1.38,4.64,4.93C224.75,208.16,224.88,218.47,224.88,228.77Z"/><path class="cls-3" d="M288.45,437.62c0-7,.23-14-.08-21-.2-4.4,1.25-5.57,5.46-4.61,13.23,3,26.5,5.84,39.76,8.73q25,5.45,50,10.88a8.61,8.61,0,0,1,6.66,9.37c-.36,2.37-2.46,2.13-3.84,2.43-16.34,3.5-32.71,6.86-49.08,10.24-14.9,3.09-29.85,6-44.69,9.34-3.71.83-4.27-.22-4.2-3.46C288.55,452.26,288.45,444.94,288.45,437.62Z"/><path class="cls-3" d="M289.45,221.52c0-8.14.1-16.29-.06-24.43-.05-3,.9-4.07,4-4,12.12.14,24.23.11,36.34,0,2.38,0,3.48.65,4,3.15,2.75,12.61,5.73,25.17,8.59,37.76.7,3.06-.09,4.54-3.71,5.31-14.87,3.14-29.66,6.73-44.44,10.29-3.43.83-4.87.21-4.78-3.65C289.59,237.8,289.45,229.66,289.45,221.52Z"/><path class="cls-2" d="M152.28,330.33q18.53-4.23,37-8.44c10-2.26,20-4.44,30-6.79,3.88-.92,5.84-.36,5.62,4.34-.33,7.3-.31,14.64,0,21.94.18,4.27-1.46,5.19-5.23,4.39q-26.44-5.68-52.93-11.25-7.23-1.53-14.48-3Z"/><path class="cls-2" d="M154.54,541.54c11-2.25,22-4.55,32.94-6.76,11.19-2.24,22.42-4.28,33.58-6.67,2.93-.63,3.91-.12,3.86,2.91-.12,7.31-.14,14.62,0,21.93.06,3-.82,3.54-3.75,2.95C199,551.37,176.8,547,154.6,542.61Z"/><path class="cls-3" d="M298.46,623c-3.49,2.47-5.82,3.89-8.42,2.92-1.09-.41-1.05-2.82-.16-3.53C292.36,620.43,294.6,622.94,298.46,623Z"/></g></g></svg>