<svg id="Layer_1" data-name="Layer 1" xmlns="http://www.w3.org/2000/svg" viewBox="0 0 300 300"><defs><style>.cls-1{fill:#2e5187;}</style></defs><polygon class="cls-1" points="59.41 273.96 13.28 227.55 13.28 273.96 59.41 273.96"/><path class="cls-1" d="M188.36,274H104c-9.9,0-14.41-4.56-14.43-14.54,0-2.54-.06-5.08,0-7.62.21-7.24,5-12.12,12.29-12.47,1,0,2,0,3,0H272.68c11,0,14.87,4.35,15.38,15.43.7,15.27-4.26,19.64-19.19,19.36C242,273.64,215.19,274,188.36,274Z"/><path class="cls-1" d="M191.52,81.39c12.83,0,25.67,0,38.5,0,9.06,0,13.77,4.83,13.8,13.83,0,3.1.09,6.2,0,9.3a12.22,12.22,0,0,1-11.2,12.16,47.81,47.81,0,0,1-5.49.19q-36.18,0-72.35,0c-11.7,0-15.87-4.13-15.87-15.68,0-2.26,0-4.52,0-6.77.14-8.13,4.76-12.94,12.85-13C165,81.32,178.26,81.4,191.52,81.39Z"/><path class="cls-1" d="M142,231.31c-3.53,0-7.06.1-10.59,0-4.43-.17-5.74-2-5-6.29q8.69-47.13,17.3-94.27c.94-5.15,1.73-5.84,6.89-5.81,5.78,0,11.57,0,17.36,0,7.25,0,8.39,1.44,7,8.62q-2.89,15.35-5.7,30.72-5.55,30.32-11.09,60.63c-1.08,5.87-1.73,6.41-7.78,6.43Z"/><path class="cls-1" d="M223.11,124.89c3.25,0,6.51.15,9.75,0,3.44-.2,5.25,1.18,5.87,4.59q5.86,32.41,11.83,64.81c1.87,10.24,3.69,20.49,5.56,30.73.79,4.34-.48,6.2-4.85,6.3-6.5.14-13,.06-19.49,0-5.5,0-6.39-.75-7.35-6q-3.36-18.28-6.69-36.57-5-27.42-9.93-54.85c-.23-1.25-.45-2.5-.61-3.76-.44-3.37,1.17-5.12,4.48-5.2,3.81-.09,7.62,0,11.43,0Z"/><path class="cls-1" d="M190.9,73.09c-5.08,0-10.15,0-15.22,0-4.12,0-5.47-1.73-5-5.86A11.61,11.61,0,0,1,181.84,57q9.51-.33,19,0c5.63.19,10,4.27,11.08,9.87.82,4.13-.75,6.18-5,6.23C201.61,73.14,196.25,73.09,190.9,73.09Z"/><path class="cls-1" d="M209.23,188.58A8.22,8.22,0,0,1,207,191q-16.56,9.26-33.24,18.25c-.88.48-2.57.93-3,.51a5.18,5.18,0,0,1-1-3.27c-.06-3.23,1.41-5.33,4.44-6.91,9.72-5.06,19.26-10.44,28.88-15.69C207.68,181.41,209.15,182.29,209.23,188.58Z"/><path class="cls-1" d="M151.86,52.75c1.58.22,4.45.08,6.78,1.13,1.62.73,3.52,3.12,3.47,4.72-.08,2.68-2.43,3.79-5.29,3.17-10.16-2.19-18.88.59-26.17,7.9-2.08,2.08-4.34,3.69-6.86,1.17s-1.18-4.82.95-6.93C132,56.77,140.58,53,151.86,52.75Z"/><path class="cls-1" d="M225.27,33.86c1.48.34,4.11.76,6.63,1.55s4.67,2.36,3.66,5.54-3.59,2.74-6.25,2.27-5.9-1.42-8.13-.45c-3.09,1.35-5.83,4-8.06,6.67-1.76,2.08-3,4.3-6,2.82-3.24-1.6-2.61-4.28-1.27-6.84C209.66,38,215.8,34.28,225.27,33.86Z"/><path class="cls-1" d="M181.08,153.5c7.65,4.2,15.57,8.17,23,12.92,1.73,1.11,1.74,4.91,2.54,7.47-1.13.35-2.59,1.33-3.33,1-7.84-4.1-15.62-8.32-23.28-12.74C177.46,160.65,178,157.17,181.08,153.5Z"/><path class="cls-1" d="M232.24,52.45c3.28.64,6.89,1.19,10.41,2.06,2.52.63,3.78,2.46,3.09,5.11s-2.56,2.84-4.94,2.71c-5.27-.27-10.57,0-15.81-.5a6.38,6.38,0,0,1-4.49-3.33c-.4-1,1.33-3.79,2.69-4.34C225.85,53.08,228.92,53,232.24,52.45Z"/><path class="cls-1" d="M182.42,231.31c-5.73.87-10-3.12-14.44-6.08-1.09-.73-.17-4.47-.18-6.82,1.51.12,3.23-.19,4.48.44,4.63,2.34,9.14,4.91,13.59,7.58,1.17.71,1.94,2.08,2.89,3.15-1.43.58-2.84,1.21-4.3,1.71A7.83,7.83,0,0,1,182.42,231.31Z"/><path class="cls-1" d="M199.92,136.83a9.59,9.59,0,0,1-2.24,2.44c-4.11,2.4-8.31,4.64-12.55,6.81-.87.45-2.37.78-3,.34s-.87-1.94-.81-2.94c.18-3.22,1.2-5.84,4.67-7.16,2.72-1,5.18-2.76,7.76-4.16C198.24,129.73,199.73,130.6,199.92,136.83Z"/><path class="cls-1" d="M187.15,38.82c0-1.41-.48-3.06.1-4.17.92-1.76,2.53-3.16,3.85-4.72,1.47,1.42,3.83,2.64,4.2,4.3.68,3.09.34,6.45.14,9.68-.15,2.53-1.69,4.65-4.3,4-1.57-.4-3.1-2.41-3.86-4C186.65,42.43,187.15,40.51,187.15,38.82Z"/><path class="cls-1" d="M178.77,48.78c-1.54,1.56-2.46,3.2-3.77,3.61a4.71,4.71,0,0,1-4.08-1.09A18,18,0,0,1,167,44.9a5.23,5.23,0,0,1,1.39-4.65c1-.76,3.89-.65,4.72.23C175.27,42.74,176.73,45.65,178.77,48.78Z"/><path class="cls-1" d="M262,67.88c-2.75,2-4.65,4.29-5.68,3.94a8,8,0,0,1-4.64-4.39,3.26,3.26,0,0,1,3.88-4.14C257.44,63.65,259.05,65.71,262,67.88Z"/><path class="cls-1" d="M149.77,44.24c-1-1.53-3.14-3.73-2.72-4.48a11.21,11.21,0,0,1,5.16-4.45c.56-.25,3.71,2.87,3.47,3.92-.46,1.93-2.55,3.49-4,5.2Z"/></svg>