<svg id="Layer_1" data-name="Layer 1" xmlns="http://www.w3.org/2000/svg" viewBox="0 0 300 300"><defs><style>.cls-1{fill:#2e5187;}</style></defs><path class="cls-1" d="M213.38,42.24,39,216.63,86.33,264,260.72,89.58ZM74.1,234.24a5.57,5.57,0,0,1-1-.9Q63.86,224.16,54.66,215a5.4,5.4,0,0,1-.83-1,1.74,1.74,0,0,1,.28-2.32,1.83,1.83,0,0,1,2.43-.22,5,5,0,0,1,.77.69q9.31,9.33,18.62,18.66a7.92,7.92,0,0,1,1,1.47C76.91,234.09,75.36,235,74.1,234.24ZM79,215.13a3.72,3.72,0,0,1-1.94.06c-.29,0-.55-.4-.8-.64-3.6-3.6-7.22-7.18-10.77-10.83a3.12,3.12,0,0,1-.87-2.09,1.82,1.82,0,0,1,3.09-1c.88.75,1.66,1.61,2.48,2.43,2.94,2.94,5.9,5.88,8.82,8.84a13.35,13.35,0,0,1,1.18,1.7C79.78,214.18,79.52,214.89,79,215.13Zm19-3a3.57,3.57,0,0,1-2,0c-.32-.06-.59-.47-.86-.74L76.6,192.77c-.35-.35-.84-.77-.86-1.18a2.66,2.66,0,0,1,.5-1.94,3.3,3.3,0,0,1,2.09-.36c.33,0,.68.46,1,.76q9.33,9.3,18.63,18.65a13.84,13.84,0,0,1,1.32,1.86C98.81,211.18,98.54,211.89,98.05,212.12Zm3.4-19.27a1.89,1.89,0,0,1-2.85-.14c-3.77-3.75-7.52-7.51-11.29-11.27a1.75,1.75,0,0,1-.49-2.28,6.73,6.73,0,0,1,1.61-1.38,10,10,0,0,1,1.62,1q5.63,5.56,11.21,11.19A1.89,1.89,0,0,1,101.45,192.85Zm16.89-2.63a3.88,3.88,0,0,1-1-.77L98.52,170.66a2.17,2.17,0,0,1-.82-2.25,1.87,1.87,0,0,1,2.77-1.13,4.43,4.43,0,0,1,.88.74q9.33,9.31,18.63,18.66a9.23,9.23,0,0,1,1.06,1.47C121,189.91,119.58,190.84,118.34,190.22Zm4.77-19.17a3.48,3.48,0,0,1-2,0c-.32-.06-.6-.46-.87-.73L109.73,159.8a5.78,5.78,0,0,1-.82-1,1.74,1.74,0,0,1,.26-2.23,1.79,1.79,0,0,1,2.32-.36,3.29,3.29,0,0,1,.72.57q5.54,5.52,11,11.06a11,11,0,0,1,1.06,1.63C123.88,170.1,123.6,170.82,123.11,171.05Zm17.17-2.92a3.9,3.9,0,0,1-.81-.66q-9.43-9.42-18.89-18.86a2.17,2.17,0,0,1-.8-2.36,1.88,1.88,0,0,1,2.75-1,4.73,4.73,0,0,1,.88.74q9.33,9.32,18.62,18.65a8.35,8.35,0,0,1,1,1.47C143.06,167.93,141.54,168.84,140.28,168.13Zm4.69-19a2.54,2.54,0,0,1-2-.25,12.4,12.4,0,0,1-2-1.91q-4.74-4.74-9.49-9.48a1.94,1.94,0,0,1-.56-2.49c.66-1.23,2.08-1.37,3.2-.26,2.52,2.49,5,5,7.53,7.52,1.22,1.23,2.47,2.43,3.67,3.69a10.31,10.31,0,0,1,1,1.61C145.88,148.11,145.53,148.88,145,149.09Zm19.93-3.88a7.48,7.48,0,0,1-1.58,1.39,10.09,10.09,0,0,1-1.65-1q-9.61-9.59-19.21-19.21a1.91,1.91,0,0,1-.21-2.87,2,2,0,0,1,2.95.2q9.59,9.56,19.13,19.13C165,143.52,165.46,144.33,164.9,145.21Zm2.67-18.47a1.87,1.87,0,0,1-2.87-.14c-3.78-3.75-7.53-7.53-11.29-11.29a1.77,1.77,0,0,1-.5-2.2,8.1,8.1,0,0,1,1.57-1.5,9.63,9.63,0,0,1,1.72,1.06q5.64,5.58,11.22,11.21A1.89,1.89,0,0,1,167.57,126.74Zm19-3c-.85.81-1.91.72-3-.32l-19.07-19c-.68-.68-1.13-1.48-.61-2.37a7.32,7.32,0,0,1,1.57-1.43,8.83,8.83,0,0,1,1.65,1q9.65,9.59,19.23,19.21A2,2,0,0,1,186.58,123.77ZM189.15,105a3.78,3.78,0,0,1-1.94,0c-.22,0-.42-.33-.61-.52-3.65-3.65-7.31-7.28-10.93-11a2.71,2.71,0,0,1-.81-1.78A2.07,2.07,0,0,1,176,90.1a2.43,2.43,0,0,1,2.07.39c3.9,3.77,7.73,7.64,11.55,11.5a7,7,0,0,1,.82,1.44C190,104,189.67,104.72,189.15,105Zm19.5-3.27a2,2,0,0,1-2.88-.16q-9.68-9.63-19.3-19.29a1.77,1.77,0,0,1-.45-2.3,7,7,0,0,1,1.63-1.37,10.27,10.27,0,0,1,1.61,1q9.62,9.58,19.21,19.21A1.93,1.93,0,0,1,208.65,101.69ZM209.49,83a3.28,3.28,0,0,1-.82-.62l-11-11a3.93,3.93,0,0,1-.54-.61,1.79,1.79,0,0,1,.21-2.42,1.76,1.76,0,0,1,2.33-.29,5.09,5.09,0,0,1,.87.74c3.55,3.55,7.1,7.08,10.63,10.65a8.93,8.93,0,0,1,1,1.48C212.21,82.72,210.73,83.63,209.49,83Zm18.34-3.53q-9.66-9.63-19.3-19.28a1.78,1.78,0,0,1-.46-2.3,7.25,7.25,0,0,1,1.6-1.36,9.3,9.3,0,0,1,1.64,1q9.63,9.58,19.21,19.21a2,2,0,0,1,.18,2.88A1.92,1.92,0,0,1,227.83,79.48Z"/></svg>