<svg xmlns="http://www.w3.org/2000/svg" viewBox="0 0 691.26 690.94"><defs><style>.cls-1{fill:#2d2d2d;}.cls-2{fill:#af2828;}.cls-3{fill:red;}</style></defs><g id="Layer_2" data-name="Layer 2"><g id="Layer_1-2" data-name="Layer 1"><path class="cls-1" d="M345.45,690.84H679.77c4.08,0,8.61-.89,9.34-5.09.59-3.44,2.18-6.68,2.09-10.31-.2-9-.06-18.08-.06-27.13V507.19q0-115.68.12-231.36c0-7.45-2.54-12-9.19-15.43-21.2-10.93-42.15-22.32-63.2-33.54q-21.14-11.3-42.25-22.61c-3.65-1.95-7.36-3.67-11.44-1.28A9.58,9.58,0,0,0,560,212q.27,16.11,0,32.22c-.1,7.17-3.07,9.29-8.49,6.4q-31.12-16.56-62.2-33.2c-8.66-4.64-17.29-9.35-26-13.92-5.51-2.87-9.68-2.07-13.26,2-1.78,2.05-2,4.37-2,6.88q0,16.11,0,32.22c0,5.63-2.73,9.26-9.34,5.68C410.2,234.81,381.32,220,353,204.21c-9.56-5.32-17.25.56-17.14,10.16.56,47.37.26,94.74.26,142.11,0,8.23-.88,9.12-9,9.12H127.2c-9.54,0-9.67-.14-9.67-9.83v-141c0-9.53-3.45-12.92-13.09-12.93-4.39,0-8.8-.15-13.2,0-5,.21-7.06-2.36-7.13-7,0-4,0-8,0-12-.11-9.53,2-12.3,11.34-14.68,5.58-1.42,8.94-5.67,8.3-10.48s-4.93-8.35-10.51-8.38c-13-.1-25.66,11-27.6,23.84-1.09,7.18-1,14.4-.72,21.59.18,5.15-2.18,7-6.84,7.06q-9,0-18,0c-6.08,0-7.13-1-7.15-7,0-18.29.2-36.59-.08-54.87-.16-10.78,1.34-21,6.44-30.61,7.36-13.87,19.08-22.14,34-25.54,9.6-2.18,19.6-1.75,29.47-1.44,6.33.19,7.73,1.94,7,8.1a52.17,52.17,0,0,0-.54,11.62c2.74,24.68,20,43,46.43,43.66,17.59.46,35.21.08,52.82.12a9,9,0,0,0,6.19-2c3.37-3,4.14-6.89,2.66-11.16-1.33-3.82-3.64-6-8.11-6-16.37.14-32.74,0-49.12,0a35.63,35.63,0,0,1-11.28-1.7c-12.8-4.22-20.84-14.44-20.7-27.12.13-12.17,9.23-25.85,22-28.76,7.47-1.72,14.43.42,21.45,2.26A9.26,9.26,0,0,0,182,66.5C189.25,51.94,198,39.1,212.7,30.41a76.89,76.89,0,0,1,36.57-11.15,62.49,62.49,0,0,1,37.14,9.86C299.54,37.5,310.32,47.34,317,61.5c2.64,5.64,2.12,7.33-3.08,10.71A64.5,64.5,0,0,0,292.37,95c-2.87,5.11-1.23,10.55,3.44,13.25,4.5,2.61,9.33,1.33,12.8-3.43,1.14-1.56,2.19-3.2,3.3-4.77,17.86-25.43,57.89-23.59,73.32,3.36a44.89,44.89,0,0,1,6.1,19.4c.7,10,3.68,12.59,13.55,12.59h49.66c7.22,0,14.45.11,21.66-.14a9.37,9.37,0,0,0,9-8.7,9.5,9.5,0,0,0-7.71-9.89,28.48,28.48,0,0,0-5.77-.39q-26.42,0-52.81,0c-8.48,0-8.38,0-10.78-8.15C400,80.7,375.09,62.07,345.61,62.62c-5.64.1-8.09-1.79-10.24-6.48C320.52,23.76,295.82,4.76,260,.62c-25.48-2.93-47.63,4.61-67.46,20.12a85.88,85.88,0,0,0-20.25,23.4c-2,3.24-4.09,6.09-8.68,5.41-13.8-2-26.06,1.59-36.72,10.52a14,14,0,0,1-9.72,3.16q-16.64-.19-33.26.05c-39.91.55-70,31.1-70.06,71q0,29.85,0,59.7c0,3.06.15,6.83-3.43,7.42C.78,203,0,209.34,0,217.28q.21,229,0,458c0,13,4.91,15.67,15.84,15.65M27.27,225.09c10.54,0,21.09,0,31.64,0V225c10.36,0,20.73.14,31.1-.07,3.5-.06,4.51,1,4.37,4.47-.26,6.5-.16,13,0,19.52.08,2.78-.89,3.62-3.63,3.61-21.26-.1-42.54-.14-63.8,0-2.74,0-3.28-1.25-3.32-3.25-.14-7.2-.05-14.41-.25-21.6C23.29,224.34,25.49,225.1,27.27,225.09Zm67.1,439c0,2.26-.32,3.91-3.16,3.4-.71.57-1.27,0-1.87-.25l-47.44.32c-5.09,0-10.2-.09-15.28.08-2.52.09-3.39-.73-3.34-3.28.13-7,.15-14.08,0-21.12-.06-2.74,1.2-3.13,3.5-3.12q32.21.11,64.41,0c2.63,0,3.26,1,3.21,3.38C94.27,650.38,94.3,657.25,94.37,664.12Zm-1-52.47c-2.87,3.31-9.57,1-14.6,1-16.54.16-33.09,0-49.63.18-4.31.07-5.95-.64-5.93-5.59.21-53.59.13-107.18.13-160.77q0-79.59,0-159.2c0-7.37,0-7.45,7.57-7.46,19.52,0,39,.13,58.56-.11,4.15,0,4.84,1.31,4.84,5.07q-.15,156.3-.1,312.6C94.24,602.29,95.88,608.81,93.41,611.65Zm429.14-224c-.32,2.09,3.17,1,4.83,1,2.81,0,3.82.5,3.81,3.82-.08,25.68.2,51.37.2,77.06,0,24.95-.26,49.91-.3,74.88-.07,29.73-.19,59.47.08,89.21.09,9.76,0,19.5,0,29.25,0,3.57-.85,4.81-4.69,4.79q-51.17-.3-102.34-.23-74.65,0-149.29.13-48.31,0-96.62,0c-2.28,0-4.57.18-6.85.27-.17.4-.34.81-.5,1.21-.12-.43-.25-.84-.38-1.26l-40.31-.27-.48.13-.47-.08a25.45,25.45,0,0,0-3.15,0c-3.16.38-4.3-.4-4.52-4.12-.64-11.36.33-22.68.23-34-.19-18.36-.06-36.72-.06-55.08,0-42.06.06-84.13-.09-126.2,0-3.72.91-4.63,4.61-4.61,38.19.14,76.39.08,114.59.12,6.08,0,11.5-1.17,15.09-6.72,5.6-8.65-.44-20-11.21-20.64-6.84-.39-13.72-.14-20.58-.14-32.57,0-65.13-.06-97.7.14-4.14,0-5-1.24-4.8-5.06a155.78,155.78,0,0,0,0-17.95c-.22-3.82,1-4.62,4.69-4.6,33.61.14,67.22.09,100.84.09l158.92,0q61.25,0,122.49-.06c1.6,0,4.33,1.79,4.68-2.5.2-2.47,2.63,0,3.45.64,1.38,1,2.59,3.21,4.08,1,1.28-1.86.34-4.12-1.87-5.27M363.22,361.13c-2.11,0-3.6,0-3.6-2.93.1-40.95.06-81.9.06-123.55l51.56,28c2.14.17,3.66,1.54,5.27,2.76,1.87.75,3.79,1.39,5.23,2.93l.08.1a185.6,185.6,0,0,1,23,12.34,3.16,3.16,0,0,1,3.15,1.63c6.24,2.64,12.44,4.31,18.43-.65.68-.56,1.59-.84,1.82.56.36-.63.77-.67,1.26-.14-.16-.5-.6-1.09-.45-1.48,5.19-14.85,1.45-30.22,2.81-45.87l39.57,21.48c.69-.4.86,0,1,.58A33.78,33.78,0,0,1,521.8,262c.78-.43,1.29,0,1.72.57,7.48,4.47,16,7.16,22.47,13.36a.57.57,0,0,1,.83.28c4.71.4,8.31,3.35,12.29,5.4s8.11,4.27,13,3.22c7.26-1.55,11.51-7.31,11.58-16.06.09-11.09,0-22.18,0-34,9.22,5,18.07,9.73,26.93,14.48,17.9,9.57,35.75,19.24,53.78,28.58,2.79,1.43,3.28,3,3.28,5.65q-.06,99.52,0,199,0,35.3-.06,70.61c0,2.1.42,4.23-.64,6.22l.22.14-.25-.09c1.33,8.21-.44,16.45.17,24.69.27,3.81-.28,7.68-.46,11.53l.2.23-.19.23a252.29,252.29,0,0,1,.53,38.29,4.53,4.53,0,0,1,.12,4.26c.26,9.36.72,18.74-.16,28.1h.08l-.09.11s0-.07,0-.1c-10.28,1.49-20.64.56-31,.6-24.1.12-48.2-.05-72.29-.12-1.55,0-3.19.31-4.57-.8-1.44-6.74-1-13.51-.3-20.29v-6.5c-.63-19.68-1.18-39.37.26-59.06-1-10.75-.28-21.52-.34-32.29-.11-27-.06-54,0-81,0-19.12.12-38.23.13-57.35q0-16.5-.14-33c-.06-7.63-3.41-13-10.87-15.5-.8.85-1.19.1-1.65-.4h-1.2a1.62,1.62,0,0,1-1.92,0l-100,0"/><path class="cls-2" d="M94.39,248.87c.08,2.78-.89,3.62-3.63,3.61-21.26-.1-42.54-.14-63.8,0-2.74,0-3.28-1.25-3.32-3.25-.14-7.2-.05-14.41-.25-21.6-.1-3.29,2.1-2.53,3.88-2.54,10.54,0,21.09,0,31.64,0V225c10.36,0,20.73.14,31.1-.07,3.5-.06,4.51,1,4.37,4.47C94.12,235.85,94.22,242.37,94.39,248.87Z"/><path class="cls-2" d="M94.37,664.12c0,2.26-.32,3.91-3.16,3.4-.71.57-1.27,0-1.87-.25l-47.44.32c-5.09,0-10.2-.09-15.28.08-2.52.09-3.39-.73-3.34-3.28.13-7,.15-14.08,0-21.12-.06-2.74,1.2-3.13,3.5-3.12q32.21.11,64.41,0c2.63,0,3.26,1,3.21,3.38C94.27,650.38,94.3,657.25,94.37,664.12Z"/><path class="cls-3" d="M93.41,611.65c-2.87,3.31-9.57,1-14.6,1-16.54.16-33.09,0-49.63.18-4.31.07-5.95-.64-5.93-5.59.21-53.59.13-107.18.13-160.77q0-79.59,0-159.2c0-7.37,0-7.45,7.57-7.46,19.52,0,39,.13,58.56-.11,4.15,0,4.84,1.31,4.84,5.07q-.15,156.3-.1,312.6C94.24,602.29,95.88,608.81,93.41,611.65Z"/><path class="cls-2" d="M531.09,544.43c0-25,.3-49.93.3-74.88,0-25.69-.28-51.38-.2-77.06,0-3.32-1-3.78-3.81-3.82-1.66,0-2.37-1.22-4.83-1,.86-5.47-4.18-6.38-5.95-9.9-2.32,3.44.38,3.9,2.31,4.9,2.21,1.15,3.15,3.41,1.87,5.27a5.22,5.22,0,0,1-4.08-1c-.82-.61-3.25-3.11-3.45-.64-.28,1.47-3.08,2.5-4.68,2.5q-61.24.13-122.49.06l-158.92,0c-33.62,0-67.23.05-100.84-.09-3.66,0-4.91.78-4.69,4.6a155.78,155.78,0,0,1,0,17.95c-.21,3.82.66,5.09,4.8,5.06,32.57-.2,65.13-.13,97.7-.14,6.86,0,13.74-.25,20.58.14,10.77.61,16.81,12,11.21,20.64-3.59,5.55-9,6.72-15.09,6.72-38.2,0-76.4,0-114.59-.12-3.7,0-4.62.89-4.61,4.61.15,42.07.09,84.14.09,126.2,0,18.36-.13,36.72.06,55.08.1,11.34-.87,22.66-.23,34,.22,3.72,1.36,4.5,4.52,4.12a25.45,25.45,0,0,1,3.15,0l.47.08.48-.13,40.31.27.88,0c2.28-.09,4.57-.27,6.85-.27q48.3,0,96.62,0,74.64-.06,149.29-.13,51.17,0,102.34.23c3.84,0,4.68-1.22,4.69-4.79,0-9.75.11-19.49,0-29.25C530.9,603.9,531,574.16,531.09,544.43ZM295.41,416.28c7.46.24,13.67,6.72,13.45,14a14.14,14.14,0,0,1-13.78,13.19,13.61,13.61,0,0,1,.33-27.21Z"/><path class="cls-3" d="M394.34,361c-10.36,0-20.74.06-31.12.14-2.11,0-3.6,0-3.6-2.93.1-40.95.06-81.9.06-123.55l51.56,28c2.14.17,3.66,1.54,5.27,2.76,1.87.75,3.79,1.39,5.23,2.93l.08.1a185.6,185.6,0,0,1,23,12.34,3.16,3.16,0,0,1,3.15,1.63c6.24,2.64,12.44,4.31,18.43-.65.68-.56,1.59-.84,1.82.56.36-.63.77-.67,1.26-.14-.16-.5-.6-1.09-.45-1.48,5.19-14.85,1.45-30.22,2.81-45.87l39.57,21.48c.69-.4.86,0,1,.58A33.78,33.78,0,0,1,521.8,262c.78-.43,1.29,0,1.72.57,7.48,4.47,16,7.16,22.47,13.36a.57.57,0,0,1,.83.28c4.71.4,8.31,3.35,12.29,5.4s8.11,4.27,13,3.22c7.26-1.55,11.51-7.31,11.58-16.06.09-11.09,0-22.18,0-34,9.22,5,18.07,9.73,26.93,14.48,17.9,9.57,35.75,19.24,53.78,28.58,2.79,1.43,3.28,3,3.28,5.65q-.06,99.52,0,199,0,35.3-.06,70.61c0,2.1.42,4.23-.64,6.22l.22.14-.25-.09c1.33,8.21-.44,16.45.17,24.69.27,3.81-.28,7.68-.46,11.53l.2.23-.19.23a252.29,252.29,0,0,1,.53,38.29,4.53,4.53,0,0,1,.12,4.26c.26,9.36.72,18.74-.16,28.1-10.28,1.49-20.64.56-31,.6-24.1.12-48.2-.05-72.29-.12-1.55,0-3.19.31-4.57-.8-1.44-6.74-1-13.51-.3-20.29v-6.5c-.63-19.68-1.18-39.37.26-59.06-1-10.75-.28-21.52-.34-32.29-.11-27-.06-54,0-81,0-19.12.12-38.23.13-57.35q0-16.5-.14-33c-.06-7.63-3.41-13-10.87-15.5-.8.85-1.19.1-1.65-.4h-1.2a1.62,1.62,0,0,1-1.92,0l-100,0"/><path class="cls-1" d="M530.64,116.31a9.9,9.9,0,0,1,9.56,9.84,9.27,9.27,0,0,1-9.53,9.13,9.49,9.49,0,0,1-9.4-9.33C521.36,121,525.93,116.32,530.64,116.31Z"/><path class="cls-1" d="M242,499.19c0-12.24-5.48-17.5-17.73-17.45-19.86.07-39.73,0-59.6,0-10.33,0-15.57,5.23-15.65,15.54s0,20.4,0,30.6h.22c0,10.72-.19,21.45.06,32.17.21,9,5,14.36,13.92,14.5q32.16.49,64.34,0c8.7-.12,13.43-5.11,14.2-13.82.36-4.14.09-8.34.11-12.53C241.86,531.89,242,515.54,242,499.19ZM214.52,513c-.35,4.91-.09,9.84-.09,14.76h0c0,5.45-.18,10.9.07,16.34.13,2.75-.95,3.23-3.33,3.21-10.55-.09-21.09-.13-31.64,0-2.69,0-3.17-1-3.15-3.39.11-10.55.14-21.11,0-31.65,0-2.73,1-3.07,3.36-3,10.38.12,20.75.13,31.13,0C213.83,509.11,214.75,509.83,214.52,513Z"/><path class="cls-3" d="M214.52,513c-.35,4.91-.09,9.84-.09,14.76h0c0,5.45-.18,10.9.07,16.34.13,2.75-.95,3.23-3.33,3.21-10.55-.09-21.09-.13-31.64,0-2.69,0-3.17-1-3.15-3.39.11-10.55.14-21.11,0-31.65,0-2.73,1-3.07,3.36-3,10.38.12,20.75.13,31.13,0C213.83,509.11,214.75,509.83,214.52,513Z"/><path class="cls-1" d="M505.3,499.19c0-12.24-5.47-17.5-17.72-17.45-19.87.07-39.73,0-59.6,0-10.33,0-15.57,5.23-15.65,15.54s0,20.4,0,30.6h.23c0,10.72-.19,21.45.06,32.17.21,9,5,14.36,13.92,14.5q32.16.49,64.34,0c8.69-.12,13.43-5.11,14.2-13.82.36-4.14.08-8.34.11-12.53C505.21,531.89,505.29,515.54,505.3,499.19ZM477.87,513c-.35,4.91-.1,9.84-.1,14.76h0c0,5.45-.18,10.9.08,16.34.12,2.75-.95,3.23-3.33,3.21-10.55-.09-21.1-.13-31.64,0-2.69,0-3.17-1-3.15-3.39.1-10.55.13-21.11,0-31.65-.05-2.73,1-3.07,3.36-3,10.37.12,20.75.13,31.13,0C477.18,509.11,478.1,509.83,477.87,513Z"/><path class="cls-3" d="M477.87,513c-.35,4.91-.1,9.84-.1,14.76h0c0,5.45-.18,10.9.08,16.34.12,2.75-.95,3.23-3.33,3.21-10.55-.09-21.1-.13-31.64,0-2.69,0-3.17-1-3.15-3.39.1-10.55.13-21.11,0-31.65-.05-2.73,1-3.07,3.36-3,10.37.12,20.75.13,31.13,0C477.18,509.11,478.1,509.83,477.87,513Z"/><path class="cls-1" d="M372.91,497.68c0-5-1.15-9.78-5.62-13-3.4-2.46-7.34-2.87-11.35-2.88q-29.79,0-59.6,0c-10.84,0-16.22,5.12-16.35,16-.12,10.19,0,20.39,0,30.59h.18c0,10.88-.12,21.78,0,32.66.11,7.24,6.47,13.65,13.57,13.68q31.81.14,63.64,0c9.71,0,15.4-5.55,15.48-15.39C373.06,538.74,373,518.21,372.91,497.68Zm-31.1,49.62c-9.68-.22-19.36-.19-29-.26l-2.65.08c-2.11.48-2.77-.44-2.76-2.5.08-10.9.14-21.81,0-32.7,0-2.59,1.11-2.73,3.16-2.71,10.56.08,21.13.13,31.69-.06,3,0,3.44,1.12,3.41,3.71-.12,10.21-.16,20.42,0,30.63C345.7,546.5,344.78,547.37,341.81,547.3Z"/><path class="cls-3" d="M345.65,543.49c.05,3-.87,3.88-3.84,3.81-9.68-.22-19.36-.19-29-.26l-2.65.08c-2.11.48-2.77-.44-2.76-2.5.08-10.9.14-21.81,0-32.7,0-2.59,1.11-2.73,3.16-2.71,10.56.08,21.13.13,31.69-.06,3,0,3.44,1.12,3.41,3.71C345.51,523.07,345.47,533.28,345.65,543.49Z"/><path class="cls-1" d="M308.86,430.3a14.14,14.14,0,0,1-13.78,13.19,13.61,13.61,0,0,1,.33-27.21C302.87,416.52,309.08,423,308.86,430.3Z"/><rect class="cls-1" x="504.73" y="375.18" width="25.23" height="13.54"/></g></g></svg>