<svg id="Layer_1" data-name="Layer 1" xmlns="http://www.w3.org/2000/svg" viewBox="0 0 300 300"><defs><style>.cls-1{fill:#2e5187;}</style></defs><polygon class="cls-1" points="58.43 269.46 12.3 269.46 12.3 223.05 21.59 232.4 22.52 233.34 58.43 269.46"/><path class="cls-1" d="M277.58,236.87c-2.21-.15-2.91-1-2.85-3.07.07-2.54,0-5.09,0-7.64q0-33.06,0-66.13c0-7-2.46-9.7-9.25-11.11a3.88,3.88,0,0,1-2.37-2.74c-.28-3.3,0-6.64-.07-10-.15-5.39-3.83-9.07-9.23-9.36a34.5,34.5,0,0,0-5,0c-2.83.25-3.74-1.06-3.6-3.72.14-2.87.06-5.76,0-8.64,0-6.28-3-9.92-9.16-11a39.42,39.42,0,0,0-6.6-.61c-7.41-.08-14.83,0-22.25,0-4.95,0-5,0-5-5,0-17.61.05-35.22,0-52.83,0-7.53-3.83-11.32-11.23-11.31q-11.79,0-23.58.19c-6.57.1-8.95,2-11.14,8.31a4,4,0,0,1-2.85,2.28c-6.53.2-13.07,0-19.6.12-2.47,0-2.9-1.23-3-3.31-.13-4.19-1.9-6.28-6-7.08a27.43,27.43,0,0,0-5.27-.5q-10.31,0-20.6.18a20.51,20.51,0,0,0-5.26.6c-3.08.88-5.49,2.71-5.26,6.31.2,3.25-1.36,3.86-4.19,3.82-9.64-.14-19.28-.11-28.91-.1-6.66,0-10.23,3.29-10.74,10-.2,2.65-.08,5.32-.08,8,0,8.82,0,8.82-8.92,9.23-7,.33-10.55,3.84-10.56,10.87q-.06,24.25.12,48.52c.05,6.81,3.64,10.38,10.43,10.68,1.33.06,2.66,0,4,0,4.88,0,5.06,0,4.87,5.06-.11,3.07.9,4.06,4,4q25.08-.18,50.17,0c2.66,0,3.68-.7,3.65-3.56q-.18-24.75,0-49.51c0-2.73-1-3.34-3.52-3.33-16.83.07-33.67.1-50.5,0-3,0-3.78,1-3.74,3.86.14,10.63.09,21.27,0,31.9-.06,9.89,1.1,8.32-8.84,8.48-4.64.07-7.49-2.75-7.5-7.42q-.06-24.58.07-49.18c0-3.7,2.06-6.74,5.28-7.12s7-.58,10.05.51c1.07.39.68,4.83.94,7.43a4.77,4.77,0,0,1,0,1c-.17,2.13.82,3,2.94,3q25.91-.06,51.82,0c2,0,3-.6,3-2.87-.09-9.85.06-19.71,0-29.57,0-5.08-2.92-8.58-7.91-9.66-1.9-.4-3-1.33-2.63-3A6.71,6.71,0,0,1,94,37.77a8.06,8.06,0,0,1,4.44-1c7.41-.06,14.83,0,22.25.1a16.37,16.37,0,0,1,4.85,1c2.28.77,2.51,2.89,1.9,4.67-.3.89-2,1.76-3.13,1.83-6.45.41-10.35,4-10.47,10.47-.18,9.63,0,19.27-.09,28.91,0,2.36,1,3.07,3.19,3.07q25.91-.09,51.82,0c2.34,0,3-.83,3-3.12-.1-9.3,0-18.61-.05-27.91,0-7.3-2.51-10.2-9.73-11.27-2.21-.33-2.61-1.53-2-3.24a6.63,6.63,0,0,1,6.68-4.53c8.42,0,16.83,0,25.25.14A6.8,6.8,0,0,1,199,44c.07,18.49,0,37,.07,55.49,0,2.52-1.25,3.23-3.49,3.31a49.22,49.22,0,0,0-7.59.67c-6.22,1.2-9.07,4.8-9.09,11.13,0,2.77-.08,5.54,0,8.31.08,2.47-.47,3.93-3.46,3.94s-3.82-1.18-3.79-4c.11-8.41,0-16.83,0-25.25,0-2.37-.62-3.29-3.17-3.27q-25.59.15-51.17,0c-3,0-3.72,1.1-3.69,3.9.13,11.41.15,22.81,0,34.22,0,3.08.93,4,4,4q25.08-.18,50.16,0c2.69,0,4.28-.44,3.91-3.58-.29-2.41,1.23-3,3.32-3s4,.14,3.79,2.86c-.22,3.05,1.24,3.7,4,3.68q29.58-.12,59.14,0c2.39,0,3.55-.61,3.29-3.17s1.15-3.58,3.64-3.41c1.32.09,2.65,0,4,.05,4.34.19,6.61,2.2,6.89,6.49a61.32,61.32,0,0,1-.11,10,3.76,3.76,0,0,1-2.56,2.49,41.2,41.2,0,0,1-9,0,3.88,3.88,0,0,1-2.75-2.33c-.42-1.94-1.18-2.54-3.09-2.53q-30.24.07-60.47,0c-2.22,0-3,.88-2.88,2.95.15,2.77.35,5.53.33,8.29-.07,8.85-.21,17.7-.36,26.55,0,1.92.71,2.94,2.72,2.83.33,0,.67,0,1,0,19.6,0,39.2,0,58.8.05,2.89,0,4.06-.9,3.8-3.83-.18-2.09.07-4.21,0-6.31-.13-2.62.77-3.93,3.62-3.7a43.84,43.84,0,0,0,7,0c3-.26,4.1.91,4.09,4q-.15,29.09,0,58.15c0,2.79-.8,4.14-3.79,3.89a40.89,40.89,0,0,0-6.64,0c-3.08.25-4.3-.76-4.25-4.08.16-12.18-.06-24.37.07-36.54,0-3.07-.94-3.93-4-3.91-19.37.13-38.75.16-58.13,0-3.49,0-4.3,1.17-4.27,4.38.13,12.18,0,24.37.09,36.55,0,2.77-1,3.64-3.68,3.63s-3.62-1.1-3.6-3.77c.09-11.85,0-23.7,0-35.55v-4.72a8.75,8.75,0,0,0-1.54-.39c-17.94,0-35.87,0-53.82-.09-2.47,0-2.6,1.38-2.6,3.2q0,15.12,0,30.24a70.34,70.34,0,0,1-.12,8c-.14,1.07-1.39,2.88-2.11,2.88a66.74,66.74,0,0,1-9.09-1.11c-.12,0-.14-.82-.14-1.26,0-1,0-2,0-3V162.52c0-1.78.34-3.64-2.45-3.64-17.5,0-35,0-52.5.08-.87,0-2.48.95-2.48,1.45,0,3.36-2.15,3.14-4.46,3.34-6.8.59-10,4.27-10,11.12a14.52,14.52,0,0,1-.06,4c-.38,1.32-1.1,3.11-2.15,3.55-4.52,1.88-5.73,5.23-5.67,9.8.13,11.35.05,22.71.07,34.06l2.61,2.63.5.5c0-2.94,0-5.88,0-8.82,0-9.73,0-19.47,0-29.2,0-2.72.87-4.66,4.22-5.76a29.9,29.9,0,0,1,.47,3.57q0,22.07,0,44.12a6.06,6.06,0,0,1,0,.73L62,265.93l4.25,4.28q83.12-.07,166.24,0c14.73,0,29.45,0,44.18,0,5.54,0,8.36-2.76,8.49-8.32s.23-11.07.19-16.61C285.3,239.92,282.88,237.24,277.58,236.87Zm-17.74-76.76c-.1,8.31,1.13,7.56-7.64,7.59-7,0-6.94,1.51-6.94-6.9,0-9.9-1-8.59,8.58-8.67.88,0,1.76,0,2.64,0,2.32-.07,3.51.93,3.37,3.36C259.77,157,259.84,158.57,259.84,160.11ZM33.59,173.31c.55-1.77,1.43-4.06,2.84-4.76a14.23,14.23,0,0,1,7.18-1c.45,0,.7,3.26,1,5a13.08,13.08,0,0,1,0,2c0,8.48.81,7.22-7.4,7.42-2.83.06-4.12-.82-3.81-3.77C33.57,176.59,33.12,174.82,33.59,173.31Zm7.57,63.58c-9.22-.14-7.67.65-7.72-7.51-.09-13.39.06-26.8-.09-40.19,0-3.08,1-4.05,4-4,8,0,7.14-.7,7.18,7,0,6.31,0,12.62,0,18.93h.09c0,7.42-.06,14.85,0,22.26C44.69,235.93,43.78,236.93,41.16,236.89Zm225.65,0c-3.18.13-3.92-1.25-3.89-4.16.11-12.72.05-25.43.05-38.15,0-12.5,0-25,0-37.49,0-1.75-1.13-4.45,2-4.76a5.46,5.46,0,0,1,6,3.79,11.7,11.7,0,0,1,.58,3.91c0,24.33,0,48.66.11,73C271.68,236.94,269.56,236.8,266.81,236.92Z"/><path class="cls-1" d="M171.75,181.78c.06,2.39-.79,3-3.07,3-8.52-.13-17-.06-25.57-.06h0c-8.52,0-17-.08-25.56,0-2.78,0-4-.74-3.86-3.76.2-6.41.11-12.83,0-19.25,0-2.35.67-3.3,3.23-3.29q25.74.16,51.46,0c2.69,0,3.4.93,3.35,3.45C171.63,168.5,171.62,175.15,171.75,181.78Z"/><path class="cls-1" d="M248.62,140.07c-.57.56-1.05,1.31-1.74,1.61a6,6,0,0,1-2.29.14q-66.06,0-132.13,0a5.29,5.29,0,0,1-2.27-.25A2.58,2.58,0,0,1,109,140c-.07-.3.77-1,1.31-1.17a5.82,5.82,0,0,1,2-.13H179v0h65.4a7.4,7.4,0,0,1,2.31.06A8.39,8.39,0,0,1,248.62,140.07Z"/><path class="cls-1" d="M176.46,154.74c-.28,2.62-2.59,1.7-4.17,1.7q-32.7.09-65.4,0H41.83a5.45,5.45,0,0,1-2,0,28.45,28.45,0,0,1-3.09-1.72c1-.51,2-1.41,3-1.46,3.42-.18,6.85-.06,10.28-.06q61.08,0,122.16.06C173.67,153.27,176.49,154.38,176.46,154.74Z"/><path class="cls-1" d="M248.64,188.7c-1.16.53-2.33,1.53-3.5,1.54q-37.87.15-75.75.09H112.58a5.79,5.79,0,0,1-2.29-.16c-.6-.26-1.35-1-1.35-1.55s.81-1.21,1.42-1.44a6.49,6.49,0,0,1,2.3-.12h130.9a4.72,4.72,0,0,1,1.64,0C246.38,187.55,247.5,188.15,248.64,188.7Z"/><path class="cls-1" d="M176.62,90.47c-.78.57-1.52,1.54-2.36,1.65a47.5,47.5,0,0,1-6,.08q-63.39,0-126.79,0C39.94,92.15,37,91,37,90.81c.44-2.81,2.84-1.72,4.48-1.73q32.7-.09,65.39,0v0h65.72a4.71,4.71,0,0,1,1.64,0A18,18,0,0,1,176.62,90.47Z"/><path class="cls-1" d="M171.3,150.11c-.05.36-1.7.65-2.61.65q-6.88,0-13.77,0l-11.81,0H136q-9.09,0-18.18,0c-2.51,0-4.21-.18-4.21-3.47,0-3.09,1.24-3.61,4-3.59,16.83.1,33.66,0,50.49.09,1.13,0,3.13.29,3.22.75A16,16,0,0,1,171.3,150.11Z"/></svg>